<svg data-v-423bf9ae="" xmlns="http://www.w3.org/2000/svg" viewBox="0 0 582 90" class="iconLeft"><!----><!----><!----><g data-v-423bf9ae="" id="851478d6-6966-4b70-9003-7fd834730356" fill="#000" transform="matrix(5.494505405426025,0,0,5.494505405426025,166.3186798095703,-8.516481399536133)"><path d="M1.61 5.75L0.67 5.75L0.67 5.19L3.77 5.19L6.31 13.58L8.72 5.19L11.90 5.19L11.90 5.75L10.95 5.75L11.45 14.43L12.29 14.43L12.29 14.99L8.54 14.99L8.54 14.43L9.34 14.43L8.90 7.50L6.75 14.99L4.63 14.99L2.35 7.52L1.96 14.43L2.77 14.43L2.77 14.99L0.28 14.99L0.28 14.43L1.12 14.43L1.61 5.75ZM14.88 6.40L14.88 6.40L14.88 6.40Q14.55 6.08 14.55 5.61L14.55 5.61L14.55 5.61Q14.55 5.15 14.88 4.82L14.88 4.82L14.88 4.82Q15.20 4.49 15.67 4.49L15.67 4.49L15.67 4.49Q16.13 4.49 16.46 4.82L16.46 4.82L16.46 4.82Q16.79 5.15 16.79 5.61L16.79 5.61L16.79 5.61Q16.79 6.08 16.46 6.40L16.46 6.40L16.46 6.40Q16.13 6.73 15.67 6.73L15.67 6.73L15.67 6.73Q15.20 6.73 14.88 6.40ZM15.40 7.78L15.40 7.78L15.40 7.78Q16.72 7.78 16.72 8.92L16.72 8.92L16.72 13.44L16.72 13.44Q16.72 13.82 16.90 14.04L16.90 14.04L16.90 14.04Q17.08 14.25 17.46 14.25L17.46 14.25L17.46 14.25Q17.84 14.25 18.33 13.85L18.33 13.85L18.58 14.18L18.58 14.18Q17.46 15.20 16.34 15.20L16.34 15.20L16.34 15.20Q14.62 15.20 14.62 13.15L14.62 13.15L14.62 8.46L14.62 8.46Q13.85 8.65 13.44 9.14L13.44 9.14L13.06 8.71L13.06 8.71Q13.47 8.29 14.09 8.04L14.09 8.04L14.09 8.04Q14.71 7.78 15.40 7.78ZM23.80 7.78L23.80 7.78L23.80 7.78Q24.22 7.78 24.22 8.58L24.22 8.58L24.22 13.44L24.22 13.44Q24.22 13.82 24.40 14.04L24.40 14.04L24.40 14.04Q24.58 14.25 24.96 14.25L24.96 14.25L24.96 14.25Q25.34 14.25 25.83 13.85L25.83 13.85L26.08 14.18L26.08 14.18Q24.96 15.20 23.84 15.20L23.84 15.20L23.84 15.20Q22.12 15.20 22.12 13.15L22.12 13.15L22.12 9.21L22.12 9.21Q21.46 9.48 20.52 9.58L20.52 9.58L20.52 9.58Q20.41 10.86 19.78 12.15L19.78 12.15L19.21 11.98L19.21 11.98Q19.60 10.99 19.63 9.62L19.63 9.62L19.63 9.62Q19.10 9.62 18.77 9.31L18.77 9.31L18.77 9.31Q18.44 9.00 18.44 8.55L18.44 8.55L18.44 8.55Q18.44 8.09 18.75 7.78L18.75 7.78L18.75 7.78Q19.07 7.46 19.52 7.46L19.52 7.46L19.52 7.46Q19.98 7.46 20.29 7.78L20.29 7.78L20.29 7.78Q20.59 8.11 20.59 8.61L20.59 8.61L20.86 8.61L20.86 8.61Q21.97 8.61 23.21 7.99L23.21 7.99L23.21 7.99Q23.62 7.78 23.80 7.78ZM34.90 5.75L34.90 5.75L33.92 5.75L33.92 10.54L36.86 10.54L36.86 11.17L33.92 11.17L33.92 14.43L35.46 14.43L35.46 14.99L30.98 14.99L30.98 14.43L31.82 14.43L31.82 5.75L30.98 5.75L30.98 5.19L36.99 5.19L36.99 5.19Q37.30 5.19 37.44 5.21L37.44 5.21L37.44 5.21Q37.59 5.24 37.72 5.37L37.72 5.37L37.72 5.37Q37.84 5.50 37.84 5.78L37.84 5.78L37.46 8.13L36.92 8.13L36.64 6.75L36.64 6.75Q36.51 6.12 36.17 5.94L36.17 5.94L36.17 5.94Q35.83 5.75 34.90 5.75ZM44.24 7.99L46.34 7.99L46.34 13.44L46.34 13.44Q46.34 13.82 46.52 14.04L46.52 14.04L46.52 14.04Q46.70 14.25 47.08 14.25L47.08 14.25L47.08 14.25Q47.46 14.25 47.95 13.85L47.95 13.85L48.20 14.18L48.20 14.18Q47.08 15.20 45.96 15.20L45.96 15.20L45.96 15.20Q44.63 15.20 44.32 13.96L44.32 13.96L44.32 13.96Q43.60 15.20 42.18 15.20L42.18 15.20L42.18 15.20Q40.57 15.20 39.73 14.16L39.73 14.16L39.73 14.16Q38.89 13.12 38.89 11.50L38.89 11.50L38.89 11.50Q38.89 9.88 39.80 8.83L39.80 8.83L39.80 8.83Q40.70 7.78 42.32 7.78L42.32 7.78L42.32 7.78Q43.57 7.78 44.24 8.78L44.24 8.78L44.24 7.99ZM41.45 9.37L41.45 9.37L41.45 9.37Q41.06 10.15 41.06 11.49L41.06 11.49L41.06 11.49Q41.06 12.84 41.45 13.62L41.45 13.62L41.45 13.62Q41.85 14.41 42.65 14.41L42.65 14.41L42.65 14.41Q43.46 14.41 43.88 13.62L43.88 13.62L43.88 13.62Q44.31 12.82 44.31 11.49L44.31 11.49L44.31 11.49Q44.31 10.16 43.88 9.37L43.88 9.37L43.88 9.37Q43.46 8.58 42.65 8.58L42.65 8.58L42.65 8.58Q41.85 8.58 41.45 9.37ZM50.37 9.14L50.37 9.14L50.37 9.14Q50.04 8.62 50.04 8.22L50.04 8.22L50.04 8.22Q50.04 7.81 50.35 7.50L50.35 7.50L50.35 7.50Q50.67 7.18 51.11 7.18L51.11 7.18L51.11 7.18Q51.56 7.18 51.88 7.50L51.88 7.50L51.88 7.50Q52.19 7.81 52.19 8.25L52.19 8.25L52.19 8.25Q52.19 8.68 51.76 9.17L51.76 9.17L51.76 9.17Q52.91 10.01 53.52 10.81L53.52 10.81L53.52 10.81Q54.14 11.62 54.14 12.68L54.14 12.68L54.14 12.68Q54.14 13.73 53.34 14.47L53.34 14.47L53.34 14.47Q52.54 15.20 51.07 15.20L51.07 15.20L51.07 15.20Q50.40 15.20 49.72 14.91L49.72 14.91L49.72 14.91Q49.04 14.62 48.69 14.18L48.69 14.18L49.01 13.85L49.01 13.85Q49.63 14.34 50.34 14.34L50.34 14.34L50.34 14.34Q51.06 14.34 51.51 13.95L51.51 13.95L51.51 13.95Q51.97 13.57 51.97 12.75L51.97 12.75L51.97 12.75Q51.97 11.47 51.02 10.07L51.02 10.07L48.90 12.71L48.55 12.40L48.55 12.40Q49.62 10.68 50.37 9.14ZM60.82 7.99L62.92 7.99L62.92 13.44L62.92 13.44Q62.92 13.82 63.10 14.04L63.10 14.04L63.10 14.04Q63.28 14.25 63.66 14.25L63.66 14.25L63.66 14.25Q64.04 14.25 64.53 13.85L64.53 13.85L64.78 14.18L64.78 14.18Q63.66 15.20 62.54 15.20L62.54 15.20L62.54 15.20Q61.21 15.20 60.90 13.96L60.90 13.96L60.90 13.96Q60.17 15.20 58.76 15.20L58.76 15.20L58.76 15.20Q57.15 15.20 56.31 14.16L56.31 14.16L56.31 14.16Q55.47 13.12 55.47 11.50L55.47 11.50L55.47 11.50Q55.47 9.88 56.37 8.83L56.37 8.83L56.37 8.83Q57.27 7.78 58.90 7.78L58.90 7.78L58.90 7.78Q60.14 7.78 60.82 8.78L60.82 8.78L60.82 7.99ZM58.03 9.37L58.03 9.37L58.03 9.37Q57.64 10.15 57.64 11.49L57.64 11.49L57.64 11.49Q57.64 12.84 58.03 13.62L58.03 13.62L58.03 13.62Q58.42 14.41 59.23 14.41L59.23 14.41L59.23 14.41Q60.03 14.41 60.46 13.62L60.46 13.62L60.46 13.62Q60.89 12.82 60.89 11.49L60.89 11.49L60.89 11.49Q60.89 10.16 60.46 9.37L60.46 9.37L60.46 9.37Q60.03 8.58 59.23 8.58L59.23 8.58L59.23 8.58Q58.42 8.58 58.03 9.37ZM66.66 6.40L66.66 6.40L66.66 6.40Q66.33 6.08 66.33 5.61L66.33 5.61L66.33 5.61Q66.33 5.15 66.66 4.82L66.66 4.82L66.66 4.82Q66.99 4.49 67.45 4.49L67.45 4.49L67.45 4.49Q67.91 4.49 68.24 4.82L68.24 4.82L68.24 4.82Q68.57 5.15 68.57 5.61L68.57 5.61L68.57 5.61Q68.57 6.08 68.24 6.40L68.24 6.40L68.24 6.40Q67.91 6.73 67.45 6.73L67.45 6.73L67.45 6.73Q66.99 6.73 66.66 6.40ZM67.19 7.78L67.19 7.78L67.19 7.78Q68.50 7.78 68.50 8.92L68.50 8.92L68.50 13.44L68.50 13.44Q68.50 13.82 68.68 14.04L68.68 14.04L68.68 14.04Q68.87 14.25 69.24 14.25L69.24 14.25L69.24 14.25Q69.62 14.25 70.11 13.85L70.11 13.85L70.36 14.18L70.36 14.18Q69.24 15.20 68.12 15.20L68.12 15.20L68.12 15.20Q66.40 15.20 66.40 13.15L66.40 13.15L66.40 8.46L66.40 8.46Q65.63 8.65 65.23 9.14L65.23 9.14L64.85 8.71L64.85 8.71Q65.25 8.29 65.88 8.04L65.88 8.04L65.88 8.04Q66.50 7.78 67.19 7.78ZM70.08 5.21L70.08 5.21Q70.49 4.79 71.11 4.54L71.11 4.54L71.11 4.54Q71.74 4.28 72.34 4.28L72.34 4.28L72.34 4.28Q72.95 4.28 73.35 4.53L73.35 4.53L73.35 4.53Q73.74 4.77 73.74 5.14L73.74 5.14L73.74 13.44L73.74 13.44Q73.74 13.82 73.92 14.04L73.92 14.04L73.92 14.04Q74.10 14.25 74.48 14.25L74.48 14.25L74.48 14.25Q74.86 14.25 75.35 13.85L75.35 13.85L75.60 14.18L75.60 14.18Q74.48 15.20 73.36 15.20L73.36 15.20L73.36 15.20Q71.64 15.20 71.64 13.15L71.64 13.15L71.64 4.96L71.64 4.96Q70.87 5.15 70.46 5.64L70.46 5.64L70.08 5.21Z"></path></g><!----><g data-v-423bf9ae="" id="9f32fe8f-0581-40e8-97f9-af3975d94dc9" transform="matrix(1.6071428060531616,0,0,1.6071428060531616,-6.35714054107666,-35.357139587402344)" stroke="none" fill="#000"><path d="M74.8 68.5h1.7c.8 0 1.5-.1 2-.4.5-.2.8-.6 1.1-.9.3-.4.4-.8.5-1.2.1-.5.1-.9.1-1.2v-9c0-1.1.3-2 .7-2.7.5-.7 1.1-1.3 1.9-1.7.7-.4 1.6-.7 2.4-.9.9-.2 1.7-.3 2.4-.3v-.1c-.7 0-1.5-.1-2.4-.2-.9-.1-1.7-.4-2.4-.8s-1.4-1-1.9-1.8-.7-1.9-.7-3.3v-8.5c0-.4 0-.8-.1-1.2-.1-.5-.2-.9-.5-1.2-.2-.4-.6-.7-1.1-.9-.5-.3-1.1-.4-2-.4h-1.7V22h7.1c1 0 2 .2 3 .5s2 .8 2.9 1.4c.9.6 1.6 1.5 2.2 2.5.6 1 .8 2.2.8 3.6v11.2c0 .9.2 1.6.6 2.2.4.5.9.9 1.4 1.2.6.3 1.1.4 1.7.5.6.1 1.1.1 1.5.1v9.5c-.4 0-.9 0-1.5.1s-1.2.2-1.7.5c-.6.2-1 .6-1.4 1.1-.4.5-.6 1.1-.6 1.9V70c0 1.4-.3 2.6-.8 3.6-.6 1-1.3 1.8-2.2 2.5-.9.6-1.8 1.1-2.9 1.4-1 .3-2 .5-3 .5h-7.1v-9.5zM55.3 53.8h13v9.8c0 1.5-.1 2.9-.4 4.3-.3 1.4-.7 2.7-1.3 3.8-.6 1.1-1.4 2.1-2.4 3-1 .9-2.2 1.5-3.5 2-1.1.4-2.2.6-3.1.7-.9.1-1.7.1-2.3.1V72c.8 0 1.5-.2 2.2-.6.7-.4 1.2-.8 1.7-1.3s.9-1.2 1.2-1.8c.3-.7.5-1.4.5-2.1h-5.5V53.8zM55.3 33.8h13v12.3h-13zM31.7 33.8h13v12.3h-13zM31.7 53.8h13v12.3h-13zM25.2 31.5H23c-.7 0-1.3.1-1.7.4-.4.2-.7.6-.9.9-.2.4-.3.8-.4 1.2-.1.5-.1.9-.1 1.2v9c0 1.1-.2 2-.7 2.7-.5.7-1.1 1.3-1.9 1.7-.7.4-1.6.7-2.4.9-.9.2-1.7.3-2.4.3v.1c.7 0 1.5.1 2.4.2.9.1 1.7.4 2.4.8s1.4 1 1.9 1.8.7 1.9.7 3.2v8.5c0 .4 0 .8.1 1.2.1.5.2.9.5 1.2.2.4.6.7 1.1.9.5.2 1.1.4 2 .4h1.7V78h-7.1c-1 0-2-.2-3-.5s-2-.8-2.9-1.4c-.9-.6-1.6-1.5-2.2-2.5-.6-1-.8-2.2-.8-3.6V58.8c0-.9-.2-1.6-.6-2.1-.4-.5-.9-.9-1.5-1.2-.6-.3-1.2-.5-1.8-.6-.6-.1-1.1-.1-1.4-.1v-9.5c.4 0 .8 0 1.4-.1.6-.1 1.2-.2 1.7-.5.6-.3 1-.6 1.5-1.1s.6-1.1.6-1.9V30c0-1.4.3-2.6.8-3.6.6-1 1.3-1.8 2.2-2.5.9-.6 1.8-1.1 2.9-1.4 1-.3 2-.5 3-.5h7.1v9.5z"></path></g><!----></svg>