<svg
  xmlns="http://www.w3.org/2000/svg"
  xmlns:xlink="http://www.w3.org/1999/xlink"
  width="1000"
  zoomAndPan="magnify"
  viewBox="0 0 375 374.999991"
  height="1000"
  preserveAspectRatio="xMidYMid meet"
  version="1.0"
>
  <defs>
    <clipPath id="2495f489bb">
      <path d="M 0 56.980469 L 92 56.980469 L 92 310 L 0 310 Z M 0 56.980469 " clip-rule="nonzero" />
    </clipPath>
    <clipPath id="9035f833c8">
      <path d="M 148 56.980469 L 240 56.980469 L 240 310 L 148 310 Z M 148 56.980469 " clip-rule="nonzero" />
    </clipPath>
  </defs>

  <!-- left side bottom line-->
  <path
    fill="#000000"
    d="M 153.605469 152.890625 L 153.605469 256.433594 L 151.460938 256.433594 L 151.460938 152.890625 C 151.457031 151.625 151.394531 150.367188 151.269531 149.109375 C 151.140625 147.851562 150.953125 146.601562 150.707031 145.363281 C 150.457031 144.125 150.148438 142.902344 149.78125 141.691406 C 149.410156 140.484375 148.984375 139.296875 148.5 138.128906 C 148.015625 136.960938 147.472656 135.824219 146.875 134.707031 C 146.28125 133.59375 145.628906 132.511719 144.925781 131.460938 C 144.226562 130.414062 143.472656 129.398438 142.671875 128.421875 C 141.867188 127.445312 141.019531 126.511719 140.125 125.617188 C 139.234375 124.722656 138.296875 123.875 137.320312 123.074219 C 136.34375 122.273438 135.332031 121.519531 134.28125 120.816406 C 133.230469 120.113281 132.148438 119.464844 131.035156 118.867188 C 129.917969 118.273438 128.777344 117.730469 127.613281 117.246094 C 126.445312 116.761719 125.257812 116.335938 124.046875 115.96875 C 122.839844 115.597656 121.613281 115.289062 120.375 115.042969 C 119.136719 114.792969 117.886719 114.605469 116.628906 114.480469 C 115.371094 114.351562 114.113281 114.289062 112.847656 114.285156 L 91.097656 114.285156 L 91.097656 112.140625 L 112.847656 112.140625 C 114.183594 112.144531 115.511719 112.210938 116.839844 112.34375 C 118.167969 112.476562 119.484375 112.675781 120.792969 112.9375 C 122.101562 113.199219 123.394531 113.527344 124.671875 113.914062 C 125.945312 114.304688 127.199219 114.753906 128.433594 115.265625 C 129.664062 115.777344 130.867188 116.347656 132.042969 116.976562 C 133.222656 117.605469 134.363281 118.292969 135.472656 119.035156 C 136.582031 119.777344 137.652344 120.570312 138.683594 121.417969 C 139.714844 122.261719 140.699219 123.15625 141.644531 124.101562 C 142.585938 125.042969 143.480469 126.03125 144.328125 127.0625 C 145.175781 128.09375 145.96875 129.164062 146.710938 130.269531 C 147.453125 131.378906 148.140625 132.523438 148.769531 133.699219 C 149.398438 134.875 149.96875 136.078125 150.480469 137.308594 C 150.992188 138.539062 151.441406 139.792969 151.832031 141.070312 C 152.222656 142.347656 152.546875 143.636719 152.808594 144.945312 C 153.070312 146.253906 153.269531 147.570312 153.402344 148.898438 C 153.535156 150.226562 153.605469 151.554688 153.605469 152.890625 Z M 153.605469 152.890625 "
    fill-opacity="1"
    fill-rule="nonzero"
  />

  <!-- left side top line -->
  <path
    fill="#000000"
    d="M 153.605469 98.265625 L 153.605469 201.839844 L 151.460938 201.839844 L 151.460938 98.265625 C 151.457031 97 151.394531 95.742188 151.265625 94.484375 C 151.140625 93.226562 150.953125 91.980469 150.703125 90.738281 C 150.453125 89.5 150.144531 88.277344 149.777344 87.070312 C 149.410156 85.859375 148.980469 84.671875 148.496094 83.507812 C 148.011719 82.339844 147.46875 81.199219 146.875 80.085938 C 146.277344 78.972656 145.628906 77.890625 144.925781 76.839844 C 144.222656 75.789062 143.46875 74.777344 142.667969 73.800781 C 141.863281 72.824219 141.015625 71.890625 140.125 70.996094 C 139.230469 70.101562 138.296875 69.253906 137.316406 68.453125 C 136.339844 67.652344 135.328125 66.898438 134.277344 66.195312 C 133.226562 65.492188 132.144531 64.84375 131.03125 64.246094 C 129.917969 63.652344 128.777344 63.109375 127.609375 62.625 C 126.441406 62.140625 125.253906 61.714844 124.046875 61.34375 C 122.835938 60.976562 121.613281 60.667969 120.375 60.417969 C 119.136719 60.167969 117.886719 59.980469 116.628906 59.855469 C 115.371094 59.730469 114.113281 59.664062 112.847656 59.660156 L 37.46875 59.660156 L 37.46875 57.515625 L 112.847656 57.515625 C 114.183594 57.519531 115.511719 57.585938 116.839844 57.722656 C 118.167969 57.855469 119.484375 58.050781 120.792969 58.316406 C 122.101562 58.578125 123.394531 58.902344 124.667969 59.292969 C 125.945312 59.679688 127.199219 60.132812 128.429688 60.644531 C 129.664062 61.15625 130.867188 61.726562 132.042969 62.355469 C 133.21875 62.984375 134.359375 63.671875 135.46875 64.414062 C 136.578125 65.15625 137.648438 65.949219 138.679688 66.796875 C 139.710938 67.640625 140.699219 68.535156 141.640625 69.480469 C 142.582031 70.421875 143.480469 71.410156 144.324219 72.441406 C 145.171875 73.46875 145.964844 74.539062 146.707031 75.648438 C 147.449219 76.757812 148.136719 77.898438 148.765625 79.074219 C 149.394531 80.25 149.964844 81.453125 150.476562 82.6875 C 150.988281 83.917969 151.441406 85.171875 151.828125 86.445312 C 152.21875 87.722656 152.542969 89.015625 152.808594 90.320312 C 153.070312 91.628906 153.269531 92.945312 153.402344 94.273438 C 153.535156 95.601562 153.601562 96.929688 153.605469 98.265625 Z M 153.605469 98.265625 "
    fill-opacity="1"
    fill-rule="nonzero"
  />
  <!-- Right side top line -->
  <path
    fill="#000000"
    d="M 301.6875 98.265625 L 301.6875 201.839844 L 299.542969 201.839844 L 299.542969 98.265625 C 299.539062 97 299.472656 95.742188 299.347656 94.484375 C 299.21875 93.226562 299.03125 91.980469 298.785156 90.738281 C 298.535156 89.5 298.226562 88.277344 297.859375 87.070312 C 297.488281 85.859375 297.0625 84.671875 296.578125 83.507812 C 296.089844 82.339844 295.550781 81.199219 294.953125 80.085938 C 294.355469 78.972656 293.707031 77.890625 293.003906 76.839844 C 292.300781 75.789062 291.550781 74.777344 290.746094 73.800781 C 289.945312 72.824219 289.097656 71.890625 288.203125 70.996094 C 287.308594 70.101562 286.375 69.253906 285.398438 68.453125 C 284.421875 67.652344 283.410156 66.898438 282.359375 66.195312 C 281.308594 65.492188 280.226562 64.84375 279.113281 64.246094 C 277.996094 63.652344 276.855469 63.109375 275.691406 62.625 C 274.523438 62.140625 273.335938 61.714844 272.125 61.34375 C 270.917969 60.976562 269.695312 60.667969 268.457031 60.417969 C 267.214844 60.167969 265.96875 59.980469 264.710938 59.855469 C 263.453125 59.730469 262.191406 59.664062 260.929688 59.660156 L 185.515625 59.660156 L 185.515625 57.515625 L 260.863281 57.515625 C 262.199219 57.515625 263.53125 57.582031 264.859375 57.714844 C 266.191406 57.847656 267.507812 58.042969 268.820312 58.304688 C 270.128906 58.566406 271.421875 58.890625 272.699219 59.277344 C 273.976562 59.664062 275.234375 60.113281 276.464844 60.625 C 277.699219 61.136719 278.90625 61.707031 280.082031 62.335938 C 281.261719 62.964844 282.40625 63.648438 283.515625 64.390625 C 284.628906 65.132812 285.699219 65.925781 286.730469 66.773438 C 287.765625 67.617188 288.753906 68.511719 289.699219 69.457031 C 290.644531 70.398438 291.539062 71.386719 292.386719 72.417969 C 293.234375 73.449219 294.03125 74.519531 294.773438 75.628906 C 295.519531 76.738281 296.207031 77.878906 296.835938 79.058594 C 297.46875 80.234375 298.039062 81.4375 298.550781 82.671875 C 299.066406 83.902344 299.515625 85.160156 299.90625 86.433594 C 300.296875 87.710938 300.621094 89.003906 300.886719 90.3125 C 301.148438 91.621094 301.347656 92.941406 301.480469 94.269531 C 301.613281 95.597656 301.683594 96.929688 301.6875 98.265625 Z M 301.6875 98.265625 "
    fill-opacity="1"
    fill-rule="nonzero"
  />

  <!-- left side stroke -->
  <g clip-path="url(#2495f489bb)">
    <path
      fill="#000000"
      d="M 91.632812 120.914062 L 91.632812 309.097656 L 71.113281 309.097656 C 69.953125 309.09375 68.796875 309.066406 67.636719 309.007812 C 66.476562 308.949219 65.320312 308.863281 64.167969 308.746094 C 63.011719 308.632812 61.863281 308.488281 60.714844 308.316406 C 59.566406 308.144531 58.425781 307.945312 57.289062 307.71875 C 56.152344 307.492188 55.019531 307.238281 53.894531 306.953125 C 52.769531 306.671875 51.652344 306.363281 50.542969 306.023438 C 49.433594 305.6875 48.332031 305.320312 47.242188 304.929688 C 46.148438 304.539062 45.066406 304.121094 43.996094 303.675781 C 42.925781 303.230469 41.863281 302.761719 40.816406 302.265625 C 39.769531 301.769531 38.730469 301.246094 37.710938 300.699219 C 36.6875 300.152344 35.679688 299.582031 34.683594 298.984375 C 33.6875 298.386719 32.710938 297.765625 31.746094 297.121094 C 30.78125 296.476562 29.832031 295.808594 28.902344 295.117188 C 27.96875 294.425781 27.054688 293.714844 26.160156 292.976562 C 25.261719 292.242188 24.386719 291.484375 23.527344 290.703125 C 22.667969 289.925781 21.828125 289.125 21.007812 288.304688 C 20.1875 287.484375 19.386719 286.644531 18.609375 285.785156 C 17.828125 284.925781 17.074219 284.050781 16.335938 283.152344 C 15.601562 282.257812 14.886719 281.34375 14.195312 280.410156 C 13.503906 279.480469 12.835938 278.53125 12.191406 277.566406 C 11.546875 276.601562 10.929688 275.625 10.332031 274.628906 C 9.734375 273.636719 9.164062 272.625 8.617188 271.605469 C 8.070312 270.582031 7.546875 269.546875 7.050781 268.496094 C 6.554688 267.449219 6.085938 266.390625 5.640625 265.316406 C 5.195312 264.246094 4.777344 263.164062 4.386719 262.074219 C 3.996094 260.980469 3.632812 259.882812 3.292969 258.773438 C 2.957031 257.664062 2.648438 256.546875 2.363281 255.421875 C 2.082031 254.296875 1.828125 253.164062 1.601562 252.027344 C 1.375 250.890625 1.175781 249.746094 1.003906 248.601562 C 0.832031 247.453125 0.6875 246.304688 0.574219 245.148438 C 0.460938 243.996094 0.375 242.839844 0.316406 241.679688 C 0.257812 240.523438 0.230469 239.363281 0.226562 238.203125 L 0.226562 56.980469 L 27.6875 56.980469 C 28.730469 56.980469 29.777344 57.007812 30.824219 57.058594 C 31.867188 57.113281 32.910156 57.191406 33.953125 57.292969 C 34.992188 57.398438 36.03125 57.527344 37.066406 57.683594 C 38.101562 57.835938 39.128906 58.015625 40.15625 58.222656 C 41.183594 58.425781 42.203125 58.65625 43.21875 58.910156 C 44.230469 59.164062 45.238281 59.445312 46.238281 59.75 C 47.242188 60.054688 48.234375 60.382812 49.21875 60.734375 C 50.203125 61.089844 51.179688 61.464844 52.144531 61.867188 C 53.113281 62.265625 54.066406 62.691406 55.011719 63.140625 C 55.957031 63.585938 56.894531 64.058594 57.816406 64.550781 C 58.738281 65.042969 59.648438 65.558594 60.542969 66.097656 C 61.441406 66.636719 62.324219 67.195312 63.195312 67.777344 C 64.066406 68.359375 64.917969 68.960938 65.761719 69.585938 C 66.601562 70.207031 67.425781 70.851562 68.234375 71.515625 C 69.042969 72.179688 69.832031 72.863281 70.609375 73.5625 C 71.382812 74.265625 72.140625 74.988281 72.882812 75.726562 C 73.621094 76.46875 74.34375 77.222656 75.042969 78 C 75.746094 78.773438 76.429688 79.566406 77.09375 80.375 C 77.757812 81.183594 78.402344 82.007812 79.027344 82.847656 C 79.648438 83.6875 80.25 84.542969 80.832031 85.410156 C 81.414062 86.28125 81.972656 87.164062 82.511719 88.0625 C 83.050781 88.957031 83.566406 89.867188 84.058594 90.789062 C 84.554688 91.710938 85.023438 92.644531 85.472656 93.589844 C 85.917969 94.535156 86.34375 95.492188 86.746094 96.457031 C 87.144531 97.425781 87.523438 98.398438 87.875 99.382812 C 88.230469 100.367188 88.558594 101.363281 88.863281 102.363281 C 89.167969 103.363281 89.445312 104.371094 89.703125 105.386719 C 89.957031 106.398438 90.1875 107.417969 90.390625 108.445312 C 90.597656 109.46875 90.777344 110.5 90.929688 111.535156 C 91.085938 112.570312 91.214844 113.605469 91.316406 114.648438 C 91.421875 115.6875 91.5 116.730469 91.550781 117.777344 C 91.605469 118.820312 91.632812 119.867188 91.632812 120.914062 Z M 91.632812 120.914062 "
      fill-opacity="1"
      fill-rule="nonzero"
    />
  </g>

  <!-- Center -->
  <path
    fill="#000000"
    d="M 374.804688 270.578125 C 374.804688 271.808594 374.746094 273.039062 374.625 274.265625 C 374.503906 275.492188 374.324219 276.710938 374.082031 277.917969 C 373.84375 279.128906 373.542969 280.324219 373.1875 281.5 C 372.828125 282.679688 372.414062 283.839844 371.941406 284.980469 C 371.472656 286.117188 370.945312 287.230469 370.363281 288.316406 C 369.785156 289.40625 369.152344 290.460938 368.464844 291.484375 C 367.78125 292.511719 367.050781 293.5 366.265625 294.453125 C 365.484375 295.40625 364.660156 296.316406 363.789062 297.1875 C 362.914062 298.0625 362.003906 298.886719 361.050781 299.671875 C 360.097656 300.453125 359.109375 301.183594 358.085938 301.871094 C 357.058594 302.554688 356.003906 303.1875 354.917969 303.769531 C 353.828125 304.351562 352.71875 304.878906 351.578125 305.347656 C 350.4375 305.820312 349.28125 306.234375 348.101562 306.59375 C 346.921875 306.953125 345.726562 307.25 344.519531 307.492188 C 343.308594 307.734375 342.089844 307.914062 340.863281 308.035156 C 339.636719 308.15625 338.40625 308.214844 337.175781 308.214844 C 335.941406 308.21875 334.710938 308.15625 333.484375 308.035156 C 332.257812 307.914062 331.039062 307.734375 329.832031 307.496094 C 328.621094 307.253906 327.429688 306.957031 326.25 306.597656 C 325.070312 306.242188 323.910156 305.828125 322.769531 305.355469 C 321.632812 304.882812 320.519531 304.355469 319.429688 303.777344 C 318.34375 303.195312 317.289062 302.5625 316.261719 301.878906 C 315.238281 301.195312 314.25 300.460938 313.296875 299.679688 C 312.34375 298.898438 311.429688 298.070312 310.558594 297.199219 C 309.6875 296.328125 308.859375 295.417969 308.078125 294.464844 C 307.296875 293.511719 306.5625 292.523438 305.875 291.496094 C 305.191406 290.472656 304.558594 289.417969 303.976562 288.332031 C 303.394531 287.242188 302.871094 286.132812 302.398438 284.992188 C 301.925781 283.855469 301.511719 282.695312 301.152344 281.515625 C 300.792969 280.335938 300.496094 279.140625 300.253906 277.933594 C 300.015625 276.722656 299.832031 275.507812 299.710938 274.28125 C 299.589844 273.054688 299.53125 271.824219 299.53125 270.59375 C 299.53125 269.359375 299.589844 268.128906 299.710938 266.902344 C 299.832031 265.675781 300.011719 264.460938 300.253906 263.25 C 300.492188 262.042969 300.792969 260.847656 301.152344 259.667969 C 301.507812 258.488281 301.921875 257.328125 302.394531 256.191406 C 302.867188 255.050781 303.394531 253.941406 303.972656 252.851562 C 304.554688 251.765625 305.1875 250.710938 305.871094 249.683594 C 306.558594 248.660156 307.289062 247.671875 308.074219 246.71875 C 308.855469 245.765625 309.679688 244.855469 310.554688 243.984375 C 311.425781 243.109375 312.335938 242.285156 313.289062 241.503906 C 314.242188 240.71875 315.230469 239.988281 316.257812 239.300781 C 317.28125 238.617188 318.335938 237.984375 319.425781 237.402344 C 320.511719 236.824219 321.625 236.296875 322.765625 235.824219 C 323.902344 235.351562 325.0625 234.9375 326.242188 234.582031 C 327.421875 234.222656 328.617188 233.925781 329.824219 233.683594 C 331.035156 233.441406 332.25 233.261719 333.476562 233.140625 C 334.707031 233.019531 335.933594 232.960938 337.167969 232.960938 C 338.398438 232.960938 339.628906 233.019531 340.855469 233.140625 C 342.082031 233.261719 343.300781 233.441406 344.507812 233.679688 C 345.71875 233.921875 346.914062 234.21875 348.09375 234.578125 C 349.273438 234.933594 350.429688 235.347656 351.570312 235.820312 C 352.707031 236.292969 353.820312 236.816406 354.910156 237.398438 C 355.996094 237.980469 357.050781 238.613281 358.078125 239.296875 C 359.101562 239.980469 360.089844 240.714844 361.042969 241.496094 C 361.996094 242.277344 362.910156 243.101562 363.78125 243.972656 C 364.652344 244.84375 365.480469 245.757812 366.261719 246.710938 C 367.042969 247.664062 367.777344 248.652344 368.460938 249.675781 C 369.144531 250.699219 369.777344 251.753906 370.359375 252.84375 C 370.941406 253.929688 371.46875 255.042969 371.9375 256.179688 C 372.410156 257.316406 372.824219 258.476562 373.183594 259.65625 C 373.542969 260.835938 373.839844 262.027344 374.082031 263.238281 C 374.320312 264.445312 374.503906 265.664062 374.625 266.890625 C 374.742188 268.117188 374.804688 269.34375 374.804688 270.578125 Z M 374.804688 270.578125 "
    fill-opacity="1"
    fill-rule="nonzero"
  />

  <!-- Right side bottom line -->
  <path
    fill="#000000"
    d="M 301.6875 152.890625 L 301.6875 256.433594 L 299.542969 256.433594 L 299.542969 152.890625 C 299.539062 151.625 299.472656 150.367188 299.347656 149.109375 C 299.222656 147.851562 299.035156 146.601562 298.785156 145.363281 C 298.535156 144.125 298.226562 142.902344 297.859375 141.691406 C 297.492188 140.484375 297.066406 139.296875 296.578125 138.128906 C 296.09375 136.960938 295.554688 135.824219 294.957031 134.707031 C 294.359375 133.59375 293.710938 132.511719 293.007812 131.460938 C 292.304688 130.414062 291.554688 129.398438 290.75 128.421875 C 289.949219 127.445312 289.101562 126.511719 288.207031 125.617188 C 287.3125 124.722656 286.378906 123.875 285.402344 123.074219 C 284.425781 122.273438 283.410156 121.519531 282.359375 120.816406 C 281.308594 120.113281 280.226562 119.464844 279.113281 118.867188 C 278 118.273438 276.859375 117.730469 275.691406 117.246094 C 274.523438 116.761719 273.335938 116.335938 272.128906 115.96875 C 270.917969 115.597656 269.695312 115.289062 268.457031 115.042969 C 267.214844 114.792969 265.96875 114.605469 264.710938 114.480469 C 263.453125 114.351562 262.191406 114.289062 260.929688 114.285156 L 239.144531 114.285156 L 239.144531 112.140625 L 260.863281 112.140625 C 262.199219 112.140625 263.53125 112.207031 264.859375 112.339844 C 266.191406 112.46875 267.507812 112.667969 268.820312 112.925781 C 270.128906 113.1875 271.421875 113.511719 272.699219 113.898438 C 273.976562 114.285156 275.234375 114.734375 276.46875 115.246094 C 277.703125 115.757812 278.90625 116.328125 280.085938 116.957031 C 281.265625 117.585938 282.410156 118.269531 283.519531 119.011719 C 284.628906 119.753906 285.703125 120.546875 286.734375 121.394531 C 287.765625 122.238281 288.757812 123.132812 289.703125 124.078125 C 290.644531 125.019531 291.542969 126.007812 292.390625 127.039062 C 293.238281 128.070312 294.035156 129.140625 294.777344 130.25 C 295.519531 131.359375 296.207031 132.503906 296.839844 133.679688 C 297.46875 134.855469 298.042969 136.0625 298.554688 137.292969 C 299.066406 138.527344 299.519531 139.78125 299.910156 141.058594 C 300.296875 142.335938 300.625 143.628906 300.886719 144.9375 C 301.152344 146.246094 301.347656 147.566406 301.480469 148.894531 C 301.617188 150.222656 301.683594 151.554688 301.6875 152.890625 Z M 301.6875 152.890625 "
    fill-opacity="1"
    fill-rule="nonzero"
  />
  <!-- Right side stroke -->
  <g clip-path="url(#9035f833c8)">
    <path
      fill="#000000"
      d="M 239.679688 120.914062 L 239.679688 309.097656 L 219.164062 309.097656 C 218.003906 309.09375 216.84375 309.066406 215.683594 309.007812 C 214.523438 308.949219 213.367188 308.863281 212.214844 308.75 C 211.058594 308.636719 209.90625 308.492188 208.761719 308.320312 C 207.613281 308.152344 206.46875 307.953125 205.332031 307.726562 C 204.195312 307.5 203.0625 307.242188 201.9375 306.960938 C 200.8125 306.679688 199.695312 306.367188 198.582031 306.03125 C 197.472656 305.695312 196.371094 305.328125 195.28125 304.9375 C 194.1875 304.546875 193.105469 304.128906 192.035156 303.683594 C 190.960938 303.242188 189.902344 302.769531 188.851562 302.273438 C 187.804688 301.777344 186.769531 301.257812 185.746094 300.710938 C 184.722656 300.164062 183.710938 299.589844 182.71875 298.996094 C 181.722656 298.398438 180.742188 297.777344 179.777344 297.132812 C 178.8125 296.488281 177.863281 295.820312 176.933594 295.128906 C 176 294.4375 175.085938 293.722656 174.191406 292.988281 C 173.292969 292.253906 172.414062 291.496094 171.554688 290.714844 C 170.695312 289.9375 169.855469 289.136719 169.035156 288.316406 C 168.214844 287.496094 167.414062 286.65625 166.636719 285.796875 C 165.855469 284.9375 165.097656 284.058594 164.363281 283.164062 C 163.625 282.265625 162.910156 281.351562 162.21875 280.421875 C 161.527344 279.488281 160.859375 278.542969 160.214844 277.578125 C 159.570312 276.613281 158.949219 275.632812 158.351562 274.640625 C 157.757812 273.644531 157.183594 272.636719 156.636719 271.613281 C 156.089844 270.589844 155.566406 269.554688 155.070312 268.503906 C 154.574219 267.457031 154.105469 266.398438 153.660156 265.324219 C 153.214844 264.253906 152.796875 263.171875 152.40625 262.082031 C 152.015625 260.988281 151.648438 259.886719 151.3125 258.777344 C 150.972656 257.667969 150.664062 256.550781 150.382812 255.425781 C 150.097656 254.300781 149.84375 253.167969 149.617188 252.03125 C 149.390625 250.894531 149.191406 249.75 149.019531 248.605469 C 148.847656 247.457031 148.707031 246.304688 148.589844 245.152344 C 148.476562 243.996094 148.390625 242.839844 148.332031 241.683594 C 148.273438 240.523438 148.246094 239.363281 148.242188 238.203125 L 148.242188 56.980469 L 175.703125 56.980469 C 176.75 56.980469 177.792969 57.007812 178.839844 57.058594 C 179.882812 57.109375 180.929688 57.1875 181.96875 57.292969 C 183.011719 57.394531 184.050781 57.523438 185.085938 57.675781 C 186.121094 57.832031 187.148438 58.011719 188.175781 58.214844 C 189.203125 58.417969 190.222656 58.648438 191.238281 58.902344 C 192.253906 59.160156 193.261719 59.4375 194.261719 59.742188 C 195.265625 60.046875 196.257812 60.375 197.242188 60.726562 C 198.230469 61.078125 199.203125 61.457031 200.171875 61.855469 C 201.136719 62.257812 202.09375 62.683594 203.039062 63.128906 C 203.988281 63.578125 204.921875 64.046875 205.84375 64.539062 C 206.765625 65.035156 207.675781 65.550781 208.574219 66.085938 C 209.472656 66.625 210.355469 67.183594 211.226562 67.765625 C 212.097656 68.347656 212.953125 68.949219 213.792969 69.574219 C 214.632812 70.195312 215.457031 70.839844 216.265625 71.503906 C 217.078125 72.167969 217.867188 72.851562 218.644531 73.550781 C 219.417969 74.253906 220.175781 74.976562 220.917969 75.714844 C 221.65625 76.457031 222.378906 77.214844 223.082031 77.988281 C 223.785156 78.761719 224.46875 79.554688 225.132812 80.363281 C 225.796875 81.171875 226.441406 81.996094 227.066406 82.835938 C 227.691406 83.675781 228.292969 84.53125 228.875 85.402344 C 229.457031 86.269531 230.015625 87.152344 230.554688 88.050781 C 231.09375 88.949219 231.609375 89.859375 232.101562 90.78125 C 232.597656 91.703125 233.066406 92.636719 233.515625 93.582031 C 233.964844 94.527344 234.390625 95.484375 234.789062 96.449219 C 235.191406 97.417969 235.570312 98.394531 235.921875 99.378906 C 236.273438 100.363281 236.605469 101.355469 236.910156 102.355469 C 237.214844 103.355469 237.492188 104.363281 237.75 105.378906 C 238.003906 106.394531 238.234375 107.414062 238.4375 108.441406 C 238.644531 109.46875 238.824219 110.496094 238.980469 111.53125 C 239.132812 112.566406 239.261719 113.605469 239.367188 114.644531 C 239.46875 115.6875 239.546875 116.730469 239.601562 117.777344 C 239.652344 118.820312 239.679688 119.867188 239.679688 120.914062 Z M 239.679688 120.914062 "
      fill-opacity="1"
      fill-rule="nonzero"
    />
  </g>
</svg>
