<?xml version="1.0"?><svg version="1.2" baseProfile="tiny-ps" viewBox="0 0 300 300" xmlns="http://www.w3.org/2000/svg" xmlns:xlink="http://www.w3.org/1999/xlink"><title>Mir Faisal Ahmad/Mirevo</title><g><g fill="#fcfbfa" transform="matrix(.1 0 0 -.1 0 300)"><path d="M0 1500V0h3000v3000H0V1500z"/></g><g fill="#ee6c19" transform="matrix(.1 0 0 -.1 0 300)"><path d="M0 1500V0h3000v3000H0V1500zm1161 694 46-15 46-46 47-47v133l383-5 382-5 44-16 44-16 37-33 38-34 22-51 22-52v-524l1-524-7-6-6-6v700l-15 44-16 44-41 42-41 42-46 16-45 15h-176V610h-84c-46 0-108 5-137 10l-54 10-62 31-63 32-55 58-56 58-32 68-32 68-5 386-5 386-27 36c-33 42-70 70-117 85l-34 12H929l1-122c1-68 1-347 1-620l-1-498H761l-53 11-53 11-60 31-60 32-53 52-53 53-29 62c-16 35-34 87-40 117l-10 54v587c0 323 3 589 6 593 3 3 175 3 382 0l377-5 46-14zm1459-1136 54-33 31-49 30-49v-71l-1-71-22-42-21-41-38-31-38-31-38-11c-53-14-104-14-156 2l-43 13-44 44-44 43-16 55-16 55 7 50 7 50 31 46 32 47 54 28 53 28h124l54-32zM703 2175c27-14 65-37 84-52l37-28 38-60 39-60 16-55 15-55 100-3 100-2 43-19 43-19 41-41 41-41v158l-1 157-27 40-28 40-49 30-48 30-246 3-246 2 48-25zm957-6c30-16 74-49 98-72l43-42 35-69 34-69v-47l18-1c9 0 56-2 103-4l87-4 48-24c48-25 85-58 117-107l17-24v299l-24 50c-28 60-66 97-126 124l-45 21h-460l55-31z"/></g><g fill="#2e88b6" transform="matrix(.1 0 0 -.1 0 300)"><path d="M0 2024v-976l17 6 17 7-17-19-17-19v-93h11c6 0 27 14 46 30 18 17 31 30 28 30s10 14 28 30c19 16 40 30 46 30h12l-6 10-6 10h12c7 0 25 12 40 26l28 27-4-39-3-39 13 18 13 17-3 30-3 30 9-6 9-5 7 18c4 10 21 34 40 53l33 34v46l-1 45-12-16c-16-20-57-42-65-34-3 3 13 23 36 43l42 37 3 430 2 430 380-3 380-4 46-14 46-15 46-46 47-47v136l133-2c72-1 225-2 340-1l207 1v10c0 6 5 10 11 10h10l-6-10-6-10h41v10c0 6 8 10 18 11h17l-22 16c-22 15-31 34-15 32 4-1 13-1 20 0l13 1-6 10-6 10h10c6 0 11-5 11-11v-10l10 6 10 6 13-8 12-8-40-6-40-6 55-2 55-2-20-9-20-9h14l13-1-12-15-12-15h15c8 0 18 6 20 13l5 12 1-12c1-6-4-15-9-18l-10-6 16-16 16-17 10 17c5 9 14 17 20 17h10l-12-15-12-15h24l-6-15-5-15h30l5 15 6 15h33l13 20c7 11 17 20 23 20h10l-15-16c-19-18-20-30-6-39l11-7-12-14-11-14h33l-6-10-6-10h9c6 0 12 6 15 14l6 15-12 4-12 4 12 13 12 13 15-15c8-9 13-18 10-21-3-2 7-4 21-4s28 3 31 8 16 9 30 9h25l-6-10-6-10h80l-5 15-6 15h49l47-52c26-29 61-67 77-85l31-31-6-11-7-11 18-1 18-1-13-5c-6-2-12-9-12-15v-10l14 5 15 6 33-41c38-46 47-55 79-83l24-19-25-7-25-7 25-2 25-1-20-8c-11-5-25-6-31-4-7 2-15 0-19-6l-6-11 58-2 58-1-50-7c-27-4-40-8-29-8 12-1 27-9 34-17l13-16 8 13 8 12 20-23 21-24v28l9-15c6-8 7-18 5-22l-5-8h22l-6-10-6-10h31v430l-1 431-57 26c-67 31-94 38-222 63-52 10-124 26-160 35s-84 20-108 24c-23 4-45 11-49 15l-7 6 38-4 38-5-12 14-12 15h10c5 0 12-6 15-13l5-13 46-1 46-1v19l-9-6-10-5-6 10-7 11 39-4 38-5 20 8 20 9h-14c-8 1-12 4-9 7 4 3 27 2 52-1l45-7 6-19 6-19h34l-15 10c-21 13-10 16 35 9l40-6-30-3-30-2 25-8 25-8-47-1-48-1v31l-15 5-15 6-15-12c-7-6-22-11-32-10s-31 1-48 0l-30-2 30-8 30-8-64-1c-78-1-77-10 2-12l56-2-5-9-5-8 33-2c18 0 47-2 64-2l31-1 19-15 19-15-14 18-13 17h32v-30h85l-15-10-15-10 40-1c22-1 54-1 70-1h30l-12-5c-7-3-13-11-13-19v-14l20 17 20 17-1 21-1 20-5-12-5-13-56 2-57 1 55 7 55 6-35 5-35 6 43 1 42 2v380h-355l-356-1 6-9c4-6 11-10 17-10 5 0 21-9 35-20l26-20h-15c-8 0-19 5-25 11l-11 11-23-5-24-4 26-2 27-1 5-14 6-15-20-6-19-6v-28l23-4 22-4-25-2-25-1 15-10 15-10h-12c-7 0-13-5-13-11v-11l50 5 50 5 5-8 5-9-27 1c-16 0-41-1-58-2l-30-3 35-7 35-7-31-2-32-1-5-14-6-15 17-4 17-5-17-1-18-1v-59l23-4 22-4-22-2-23-1v-14c0-8 3-21 6-30l6-16h48v10c0 6 7 10 16 10h15l-6-10-6-10 58-1 58-2-35-7c-19-4-29-8-21-9l14-1-6-6-7-7-17 14-17 14 8-12 7-13h-13c-8 0-20 6-27 13l-14 12 7-12 6-12-36-3-36-3-13-39c-8-22-23-48-34-60l-21-20v74h-11c-6 0-25-15-43-33-17-18-37-33-43-33-29-2-33-5-33-21v-17l-11 11-10 10-25-5c-25-5-40-19-30-29 3-3 12 0 21 7l15 12v-22h38l5-13c3-7 4-27 2-45l-3-32h8c4 0 13 7 20 15l12 15h-11c-6 0-11 3-11 8 0 4 16 7 35 7s35-3 35-7c0-5-9-8-19-8h-20l-6-21-7-21-31 6c-18 4-56 9-84 13l-53 5v-7c0-4 8-14 17-21l18-12-7-8-8-7-21 19-22 19 5-37 4-38h-26v25l-11-15-11-15-5 13c-2 6-9 12-14 12h-10l6-10 6-10h-10c-6 0-11 5-11 10v10l-22 1h-23l19 8 20 8-12 7c-7 4-12 13-12 19v12l10-15c11-17 11-16 14 23l3 27h-9c-4 0-8-4-8-10 0-5-4-10-10-10h-9l5 15c4 8 12 15 19 15 8 0 17 5 21 12l7 11-11-7-10-6-14 15c-7 8-19 21-26 30l-13 15h19l-5 20c-5 20-23 28-23 10 0-5-5-10-11-10h-10l6 10 6 10h-21v35l9-14 9-14 17 16c21 21 24 21 19 0-2-10 0-24 4-31l9-13 23 9 24 9-23 6-22 5 15 29 15 29-9 14c-4 7-6 19-3 25l4 12-16 17-16 16 38 1 38 1-30 8c-16 4-26 8-21 9l8 1-10 13-11 13 36-4 36-5-7 12-7 11-10-5-9-6v21l23 1h22l-20 9-20 9h15l15 1-11 8-11 7 3 17 2 18-16 10-17 9 13 1h13l-15 15c-8 8-20 15-26 15h-11l6 10 6 10h-62l6 10 6 10 11-6 10-7 9 14 9 14 11-15 11-15-7 20c-4 11-8 26-8 33 0 6-4 12-9 12-4 0-8 6-8 13v13l25 2 24 2 6-10c3-6 11-10 16-10h10l-5 9-6 9 12 5 13 5-17 1-17 1 5 14 5 13-21 6c-12 3-439 6-951 7l-929 1v-977zm2517 870c-3-3-12-4-19-1l-13 5 19 1c11 1 17-2 13-5zm-701-70c-18-17-23-18-23-1v13l19 1 18 2-14-15zm597-41c-13-2-33-2-45 0l-23 4h90l-22-4zm34-19c-3-3-12-4-19-1l-13 5 19 1c11 1 17-2 13-5zm-617-21c-8-3-18-11-22-17l-8-11v35l23-1 22-1-15-5zm536-6 7-7h-21c-11 0-23 4-26 8l-5 9 19-2c11-1 23-4 26-8zm69 3 6-10-13 1c-7 0-22 4-33 9l-20 9h27l27 1 6-10zm103-10 4-10h79l-4-7-5-8-74 4c-40 2-65 6-55 8 9 3 17 8 17 13v9l-17-6-16-6 7 11 7 12 27-5c15-2 28-9 30-15zm60 3c-10-2-26-2-35 0l-18 5h70l-17-5zm-770-25c-7-13-12-26-11-29s-10-6-25-5h-27l3-12c3-16-6-15-25 4l-16 15 13 12 13 12-7-12-7-13h12c6 0 18 8 25 18l14 17-6-17-6-18h7c4 0 16 11 27 25 24 31 33 32 16 3zm621 7c2-3-20-5-50-5h-54l13 9 13 8 37-4c20-2 38-6 41-8zm-581-20c-3-3-9 2-12 12l-7 18 12-12c7-7 10-15 7-18zm502-5c0-5-2-10-4-10-3 0-8 5-11 10l-6 10h10c6 0 11-4 11-10zm355-30 6-10h119v20l18-1 17-1-13-5c-6-2-10-8-7-13l5-7 29 3 30 4 7-12 7-11-10 6-11 7-12-15-12-15h-96l-6 15-5 15-73 1-73 2 40 7 40 6-30 6-30 5 27 2 27 1 6-10zm192 4c-3-3-12-4-19-1l-13 5 19 1c11 1 17-2 13-5zm-1207-19c7-8 9-15 6-15-4 0-14 7-22 15l-15 15h9c5 0 15-7 22-15zm1265-14c-6-5-25 10-25 20v10l14-13c8-7 12-15 11-17zm-423-47-9-16v64l9-16 9-16-9-16zm-814 23c6-5 12-13 12-18 0-12-37-11-45 1-3 6-16 10-28 11h-22l20 8c26 11 48 10 63-2zm102-7c0-11-2-20-4-20s-6 9-9 20l-5 20h9c5 0 9-9 9-20zm927-26c-3-3-12-4-19-1l-13 5 19 1c11 1 17-2 13-5zm-1093-12 5-8-30 4c-16 2-29 6-29 8 0 8 49 4 54-4zm71-2 6-10-22-22-21-23 11 23 12 22-6 10-6 10h10c5 0 13-4 16-10zm65-11c0-5-4-9-8-9-5 0-9 7-9 15v14l9-5c4-3 8-9 8-15zm-110-18c0-6-5-13-10-16l-10-6 5-10 6-9h-10c-12 0-14 11-5 34 7 17 24 22 24 7zm710-1c0-5-2-10-4-10-3 0-8 5-11 10l-6 10h10c6 0 11-4 11-10zm-87-42 5-18h-8c-8 0-40 44-40 55 0 12 39-21 43-37zm-568 1c11-16 1-19-13-3l-13 14h10c5 0 13-5 16-11zm518-19c-9-16-21-30-27-30-5 0-14-7-21-17l-12-16-11 7c-7 4-12 14-12 22v14l13 1c6 1 17 1 23 0s17 10 24 24l13 25h28l-18-30zm-459-41 8-7-40-4-40-3 4 7c3 5 14 8 25 8h19v23l8-9c4-5 11-12 16-15zm-131-6c-7-2-21-2-30 0l-18 5h60l-12-5zm41-8c-4-8-9-15-13-15s-8 7-8 15v15h26l-5-15zm676-30 25-30-33 29c-17 17-32 34-32 40v10l8-9c4-6 18-23 32-40zm-105 25c-3-5-12-10-18-10h-12l15 10c19 12 23 12 15 0zm-125-10c0-5-4-10-10-10-5 0-10 5-10 10 0 6 5 10 10 10 6 0 10-4 10-10zm-492-27c-10-2-26-2-35 0l-18 5h70l-17-5zm75-51-6-14-7 12-8 13-12-8-13-8 7 11c3 6 15 10 25 9l19-1-5-14zm657 8c0-5-2-10-4-10-3 0-8 5-11 10l-6 10h10c6 0 11-4 11-10zm105-8c-3-3-11 0-18 7l-12 12 18-7c10-3 15-9 12-12zm-707-17-11-25-26 1-26 1 25 8c14 4 19 8 13 9-7 1-13 5-13 11v9l14-5 14-5 7 10c12 21 15 11 3-14zm45-72c-7-2-19-2-25 0l-13 5h50l-12-5zm944 1c-3-3-12-4-19-1l-13 5 19 1c11 1 17-2 13-5zm-164-21c-7-2-19-2-25 0l-13 5h50l-12-5zm-244-16c-2-1-12-9-22-16l-17-14 6 17 6 16h16c8 0 13-1 11-3zm138-3c-3-3-12-4-19-1l-13 5 19 1c11 1 17-2 13-5zm-10-20c-3-3-12-4-19-1l-13 5 19 1c11 1 17-2 13-5zM259 1247c-2-2-17-11-34-22l-30-18 19 21c11 12 26 22 34 22 9 0 13-1 11-3zm-85-72c-4-8-10-15-14-15-5 0-15-6-22-12-7-7-21-19-31-27l-17-14 6 17c3 9 10 16 16 16h9l-6 10-6 10h26c3-1 13 6 21 15 19 19 25 19 18 0zm-114-80c0-8-2-15-4-15s-6 7-10 15l-5 15h9c6 0 10-7 10-15zm2785 1535-6-10h15c9 0 16 5 16 10 0 6-4 10-9 10-6 0-13-4-16-10zm35 0c0-5 5-10 10-10 6 0 10 5 10 10 0 6-4 10-10 10-5 0-10-4-10-10zm-1160-30c0-5 5-10 11-10h10l-6 10c-3 6-8 10-11 10-2 0-4-4-4-10zm195 380c3-5 8-10 11-10 2 0 4 5 4 10 0 6-5 10-11 10h-10l6-10zm35 0c0-5 5-10 11-10h10l-6 10c-3 6-8 10-11 10-2 0-4-4-4-10zm15-61-20-8h13l13-1-6-10-6-9 20-23c10-13 49-61 86-108s87-104 111-128c24-23 44-47 44-53v-11l13 4 12 5 3 30 3 30-15 13c-9 7-16 19-16 26v14h-25l-32 48c-18 26-36 56-40 68-8 21-88 96-121 113l-17 8-20-8zm235-209c0-5 5-10 11-10h10l-6 10c-3 6-8 10-11 10-2 0-4-4-4-10zm465-10c3-5 8-10 11-10 2 0 4 5 4 10 0 6-5 10-11 10h-10l6-10zm-357-87c7-3 16-2 19 1 4 3-2 6-13 5l-19-1 13-5zm-432-19c-9-24-7-27 9-10 17 17 19 26 6 26-5 0-12-7-15-16zm1054-34c0-5 5-10 10-10 6 0 10 5 10 10 0 6-4 10-10 10-5 0-10-4-10-10zm50-20c0-5 5-10 10-10 6 0 10 5 10 10 0 6-4 10-10 10-5 0-10-4-10-10zm-1124-29-6-8h52l-13 8c-18 11-26 11-33 0zM703 2175c27-14 65-37 84-52l37-28 38-59c21-33 43-78 50-100 6-23 16-46 22-53l11-12 95-7 95-6 40-18c22-9 58-33 79-53 21-21 40-37 41-37 2 0 4 69 4 153l1 152-28 40-28 40-49 30-48 30-246 3-246 2 48-25zm952-3c44-22 73-42 125-84l14-13 23 3 23 3v-20l-15 5-15 6v-14c0-8 10-24 23-36l22-21 15 9c8 5 19 10 23 10h8l-6-10-6-10h22l-6-10-6-9-14 6c-24 9-17-5 23-47 20-22 43-47 51-55l13-16 15 5c8 3 27 6 41 6h27l-15 10-15 9 15 16 16 15 27 2c16 1 33 8 39 15l10 13-33 1-34 2 28 4 27 4-5 9-6 9-16-6-17-7 22 24c12 13 19 26 16 29s-10-1-15-9l-11-15-5 13-5 12h-49l6 10 6 10h-37v39l30-3c17-2 39 0 51 4l20 9h-77l-77 1 5-14 5-14-32-11c-33-11-49-8-49 12v11l11-11 11-11 27 24 26 24h70l-15 10-15 10 35-1h35l-20-9-20-9h27l27-1-5 15-6 15 18-7 17-6-6 16-6 16 15-6 14-5v22h-75l15-10 14-9-17-7-18-7-12 13-12 13 14-8 14-8-7 11c-4 7-15 13-24 13-9 1 1 5 23 9l40 7-45 2c-25 1-55 4-67 7l-23 6v-24l15 6 15 5v-9c0-6-7-10-15-10h-15l6-25 6-25h-23l6 10 6 10h-32l11 21c7 11 9 23 6 26s-76 7-163 8l-157 3 49-26zm183 1c-10-2-28-2-40 0l-23 4h40l40 1-17-5zm160-27-18-13 7-6 6-7h-34l11 20 11 20h17l17-1-17-13zm-85-23c-7-2-21-2-30 0l-18 5h60l-12-5zm40-110c-7-2-19-2-25 0l-13 5h50l-12-5zm177 132-12-14 21 2c22 1 28 12 12 21l-9 6-12-15zm226-22c-20-5-85-71-86-85 0-13 12-9 32 9l18 16v-11c0-7 5-12 11-12h10l-6 10-6 10h23l-12 15-12 15h37l-15 10-15 10h45v10c0 6-1 9-2 9-2-1-12-4-22-6zm79-13 6-10 10 5c14 9 11 15-7 15h-15l6-10zm-25-21v-10l10 6c6 3 10 8 10 11 0 2-4 4-10 4-5 0-10-5-10-11zm-202-66c6-2 18-2 25 0l12 5h-50l13-5zm307-173-18-20h11c6 0 19 8 28 18l18 17-7-17-6-18h40l-11 20c-6 11-17 20-24 20s-21-9-31-20zm-1579-12c-2-7-3-60-3-118l2-105 40-6c22-3 36-7 30-8l-10-1 15-11 15-10-15 3-15 3-23-23c-12-12-22-28-22-35v-13h40l-4 13-5 13h9c15 0 80 44 80 53 0 5 7 15 15 23l15 15 9-5 9-6-2 18-1 17 25 2 25 2-25-8-25-9 21-1 22-1 6-15 6-16 62 3 63 3 1 42 2 43-30 45c-33 50-66 76-117 93l-34 12H939l-3-12zm124-206c0-5-7-9-15-9h-14l5 9c3 4 9 8 15 8 5 0 9-4 9-8zm955 197 18-19 16 1 16 1-18 5-18 5 4 12 5 12-20 1-20 2 17-20zm503-16c7-3 16-2 19 1 4 3-2 6-13 5l-19-1 13-5zm-640-610-3-598-100 3-100 4-70 20-70 20-45 36c-25 19-61 53-81 75l-37 40-5-19c-5-17-4-47 3-79 5-22 0-65-8-65h-8l-1 33c0 17-1 44-2 59l-1 27-22-1c-13-1-28-6-35-11l-12-9 13-14 14-14-5-20-5-20-22-1h-21l20-9 20-9h-12l-13-1v-32l-15 5-14 6 9-24 10-25h-10c-5 0-12-9-15-20l-6-20h-30l6-10 6-9-25-7-25-6 7-16 6-17-16 13-16 13-44-1c-45 0-77 3-216 21l-82 11-7 11-6 10 11-7 12-7v15c0 9 5 16 10 16h11l-18 18-18 19-72 12-72 13-11-7-10-6-6 15c-3 9-10 16-15 16h-9l3-35 4-35 16-18 15-17-1-27-2-27-19 17-19 17 6-17 6-18h-9c-5 0-14 8-20 17l-12 18 6-18 5-17-137-1c-75 0-179-4-230-7-50-4-92-4-92-1 0 11-66 79-77 79-6 0-16 7-23 15L8 590h40l5-12 5-13 12 15 12 15-6-17-5-18h9c6 0 10 4 10 9s14 11 31 15l31 6-12 15-12 15h30l-5 20c-6 22-23 27-23 8v-13l-8 11c-4 6-22 19-39 28-18 9-33 21-33 26v10l-24-15-24-16-2-340L-1 0h491v60h-33l6 6 7 7-22 18c-11 11-25 19-29 19s-49 40-98 89l-91 90v38l-25 29c-13 15-22 30-20 32 2 3-2 11-10 19s-15 18-15 23v9l218 2c119 1 246 1 281 1l65-1 11 9 12 10 91 1 92 2v18l9-5c5-3 49-7 99-10 50-2 95-7 102-11l11-7 12 10 12 10 55-10 55-10 63 5 62 5 6-9 6-10-24-19c-13-10-36-21-53-24l-30-6-98 9c-55 5-104 7-110 4-7-3-34-29-61-59l-48-53 17-45 17-45-5-15-6-15 15 6 14 5v-30l15-6c18-6 20-33 4-38l-12-4 17-17 17-17-33-2c-18 0-41-1-50 0l-17 2 2-20c1-11 5-20 10-20h8l-5-9-6-9 16-6c9-3 459-6 1000-6h984v1220h-71l6-10 6-10h-10c-5 0-11 6-13 12l-4 12-6-20-5-21 26 5 26 4-39-36c-21-20-41-36-43-36-3 0-2 12 1 28l6 27-11-18-11-18 6-15 6-15-13-19c-6-11-17-20-24-20h-12l6 18 6 17-14-17c-8-9-23-18-34-21l-20-5 37-1 37-1-4-22c-3-12-9-26-15-32l-10-10v23l-15-5-15-6v11c0 6-3 10-7 10-22-4-32 3-39 24-5 12-7 26-6 30 1 5-1 6-6 3l-8-5-36 32c-70 64-88 77-106 78l-17 1 12 5 13 5-14 14c-18 17-30 18-20 2l7-13-14 13c-8 7-14 18-14 25l-1 12-13-3-12-2 5 9 6 9-72 78-73 78 1 13 2 13h-14c-8 0-17 7-20 15-4 8-12 15-20 15s-14 5-14 10c0 6-6 10-14 10h-14v-270l1-270-6-7-7-6v592l-10 6-10 6 10 20 11 19h-13c-7 0-36 25-65 56l-52 57-21-6-21-5 6 19 6 19h-16c-9 0-34 9-57 21l-41 21-22-10-22-10-31 25-32 24-2-598zm200 439 4-12-16 6c-9 3-16 11-16 16v10l12-4c6-2 14-10 16-16zm-37-54 12-23-16 14c-10 7-17 17-17 22 0 15 9 10 21-13zm942-385c-7-2-19-2-25 0l-13 5h50l-12-5zm-363-145 54-33 28-46 28-45 6-50 6-49-11-41c-15-56-48-103-96-136l-40-27-51-9-51-9-53 14-54 13-44 37-45 37-19 44-20 44v48l1 48 16 38c8 21 27 52 40 70l24 32 53 26 52 26h122l54-32zM64 655l-6-15-19 11c-26 13-24 19 6 19h24l-5-15zm-31-19 6-15-15 6c-7 3-14 9-14 14 0 14 17 10 23-5zm1337-41c0-8-4-15-10-15-5 0-10 7-10 15s5 15 10 15c6 0 10-7 10-15zm36-93c-13-12-17 8-10 40l9 33 3-33c2-19 1-36-2-40zm-551-2-6-10-77 1-77 1 25 7c14 4 51 8 83 9l59 3-7-11zm-705-56c0-2-7-4-15-4s-15 4-15 10v9l15-5c8-4 15-8 15-10zm-42-140c18-8 32-17 32-20 0-5-71 24-79 31-10 11 18 4 47-11zm67-42c-3-3-11 0-18 7l-12 12 18-7c10-3 15-9 12-12zm-93 1-12-5 6-9 5-9H53v30l21-1 21-1-13-5zm125-19c-3-3-12-4-19-1l-13 5 19 1c11 1 17-2 13-5zm39-36c15-13 32-28 38-33 6-6 27-21 46-35 19-13 50-36 68-52l33-28h-15c-8 0-16 3-18 8-1 4-42 38-90 75-81 63-107 87-94 87 3 0 18-10 32-22zm859-108 6-10h-10c-5 0-13 5-16 10l-6 10h10c5 0 13-4 16-10zM193 83c-7-2-21-2-30 0l-18 5h60l-12-5zm27-17c0-2-7-7-16-10l-15-6 6 10c6 10 25 14 25 6zm74-12 6-17-15 13c-17 14-19 20-6 20 5 0 12-7 15-16zm-19-22c-3-3-11 0-18 7l-12 12 18-7c10-3 15-9 12-12zm8-19c-7-2-21-2-30 0l-18 5h60l-12-5zm2515 1780c6-2 18-2 25 0l12 5h-50l13-5zm-34-65-19-21 20 8c11 4 31 8 45 8h25l-13 4-12 5 6 9 5 9h-38l-19-22zm208-100c9-7 18-22 21-33l5-20 1 33 1 32h-44l16-12zm-553-15-14-18 18 14c16 13 21 21 13 21-2 0-10-8-17-17zm-139-4v-10l10 6c6 3 10 8 10 11 0 2-4 4-10 4-5 0-10-5-10-11zm660-47c0-4 11-9 26-10l25-2-6 10c-7 12-45 14-45 2zm-20-22c0-5 5-10 11-10h10l-6 10c-3 6-8 10-11 10-2 0-4-4-4-10zm18-127c7-3 16-2 19 1 4 3-2 6-13 5l-19-1 13-5zm12-28c0-8 5-15 10-15 6 0 10 4 10 9s8 12 18 14l17 5-27 1-28 1v-15zm-24-70c4-8 8-15 10-15s4 7 4 15-4 15-10 15h-9l5-15zm59 5c3-5 8-10 11-10 2 0 4 5 4 10 0 6-5 10-11 10h-10l6-10zm-5-30-15-10h35v10c0 12-1 12-20 0zm-40-30-15-10h10c6 0 17 5 25 10l15 10h-10c-5 0-17-5-25-10zm18-27c7-3 16-2 19 1 4 3-2 6-13 5l-19-1 13-5zm-2647-59c-31-50-33-66-6-44l15 13 7-7 6-6h-28l15-11 15-10-19 3-19 3-4-11-4-11 23 1c13 1 26 6 30 12l7 11-6 21c-3 12-10 22-15 22h-10l17 26c9 14 14 28 11 31-2 3-18-17-35-43zM140 940c0-5 4-10 9-10 6 0 13 5 16 10l6 10h-15c-9 0-16-4-16-10zm-70-30 15-10H39l5-22 6-23-11 23-12 22H0v-49l17-4 18-5-17-1c-10 0-18-5-18-10v-9l18 3c9 1 25-2 34-6l17-9 6 10c3 5 12 10 18 10h12l-15-11-15-10 20 2c11 1 26 1 33 0l13-1-6-22-6-23 10 16 11 17-25 46-24 46h30l-6 11-7 10-14-5-13-5-6 9c-4 6-12 10-18 10H55l15-10zm1255-60-6-10h32l-6 10c-3 6-8 10-10 10s-7-4-10-10zm1-63c3-10 9-15 12-12s0 11-7 18l-12 12 7-18zM73 715l-13-14 10-6 10-6 6 16c9 21 2 26-13 10zm342-5c3-5 8-10 11-10 2 0 4 5 4 10 0 6-5 10-11 10h-10l6-10zm45-20c0-5 5-10 10-10 6 0 10 5 10 10 0 6-4 10-10 10-5 0-10-4-10-10zm33 3c4-3 18-8 32-9l25-3-5 10c-4 5-18 9-32 9h-26l6-7zm727-82c0-5 5-13 10-16l10-6v10c0 5-4 13-10 16l-10 6v-10zm-715-11c3-5 8-10 11-10 2 0 4 5 4 10 0 6-5 10-11 10h-10l6-10zm-329-12 5-8 10 5c13 9 11 12-6 12h-14l5-9zm394-37c0-6 5-13 12-17l11-7-7 11-6 10 17 5 18 5-22 1-23 1v-9zm91-137c-21-25-4-28 25-5l27 21h-19c-11-1-25-8-33-16zm35-29c4-8 11-15 16-15h10l-12 15c-7 8-14 15-16 15s-1-7 2-15zm-456-39c0-7 7-19 15-26l15-12v10c0 18-12 42-21 42-5 0-9-6-9-14zm723-103c-11-15-23-35-28-43l-8-15 14 13c7 6 22 12 33 13l21 1-12 5-13 5 11 20c17 31 3 32-18 1zm-53-74v-10l10 6c6 3 10 8 10 11 0 2-4 4-10 4-5 0-10-5-10-11zm-72-86c-22-5-23-19-4-26l14-6 5 20c3 10 4 18 4 18-1-1-10-3-19-6z"/></g><g fill="#9f5823" transform="matrix(.1 0 0 -.1 0 300)"><path d="m730 2985-12-14 8-13c4-7 9-22 10-35l3-23-10-5-9-6 15-15 15-16-5-9-6-9 13-1c7-1 2-5-12-9l-25-8 18-1 18-1-5-9-6-9 15-12 14-12 41 7 40 7 31-26c17-14 39-26 49-26 9 0 23-6 29-13l11-14-8-7-7-8 13 4 14 3 15-22 15-23h-11c-16 0-51-32-51-47v-12l-15 5-15 6-14-11-13-11-6 7-7 6v-26l-31 32-30 32 1-18c1-10 2-25 1-33l-2-15-13 38-14 38 4 22 4 22-6-12-6-13h-41l16-17 15-18 5-50c3-27 9-61 13-74l7-24-17-9c-9-5-16-16-16-23v-15h-23l6-7 7-6 21 19 22 19 4-12 4-12 15 6c23 9 16-6-20-45l-35-36 9-17 9-16-18-17-18-16-19 25c-20 26-44 33-44 13v-12l-15 21-16 22-14-5-14-6-15 14c-9 7-21 18-28 23l-13 11-25-14-25-13 28 4 27 4v-37l-17 4c-10 2-28 7-40 11l-23 7v13c0 7 7 16 16 19l15 6-6 10-6 10h10c17 0 13 27-5 34-9 4-19 4-22 1s0-5 6-5c7 0 12-4 12-10v-9l-15 5-15 6v-11c0-6 5-11 12-11h11l-6-7c-4-3-18-7-31-9l-25-3 6 16 6 16-12-8-13-8 7 23 7 23-33-34-33-34 7 18 6 17h-40l6-10 6-10h-14c-8 0-22-9-32-20l-19-21 17 7 17 6v-18l1-19 14 19 15 20v-84h-22l11-13c6-8 8-16 6-19-3-3-1-17 4-32l11-26h58l57 62 57 63-8-30c-4-16-7-35-7-42s-5-13-11-13h-11l15-10 15-10h-36l5-8 5-9 293-1 293-2 50-17 50-18 43-42 42-42 1 17c1 9 2 35 3 57l2 40 135 2c74 1 227 2 342 3h207v10c0 6 5 10 11 10h10l-6-10-6-10h41v10c0 6 8 10 18 11h17l-22 16c-22 15-31 34-15 32 4-1 13-1 20 0l13 1-6 10-6 10h10c6 0 11-5 11-11v-10l10 6 10 6 13-8 12-8-40-6-40-6 55-2 55-2-20-9-20-9h14l13-1-12-15-12-15h15c8 0 18 6 20 13l5 12 1-12c1-6-4-15-9-18l-10-6 16-16 16-17 10 17c5 9 14 17 20 17h10l-12-15-12-15h24l-6-15-5-15h30l5 15 6 15h33l13 20c7 11 17 20 23 20h10l-15-16c-19-18-20-30-6-39l11-7-12-14-11-14h33l-6-10-6-10h9c6 0 12 6 15 14l6 15-12 4-12 4 12 13 12 13 15-15c8-9 13-18 10-21-3-2 7-4 21-4s28 3 31 8 16 9 30 9h25l-6-10-6-10h80l-5 15-6 15h49l47-52c26-29 61-67 77-85l31-31-6-11-7-11 18-1 18-1-12-5c-7-2-13-9-13-15v-10l14 5 15 6 33-41c18-23 41-48 52-57 10-9 25-23 34-31l15-15-24-6-24-7 25-2 25-1-20-8c-11-5-25-6-31-4-7 2-15 0-19-6l-6-11 58-2 58-1-50-7c-27-4-40-8-29-8 12-1 27-9 34-17l13-16 8 13 8 12 20-23 21-24v28l9-15c6-8 7-18 5-22l-5-8h22l-6-10-6-10h31v430l-1 431-57 26c-67 31-94 38-222 63-52 10-124 26-160 35s-84 20-108 24c-23 4-45 11-49 15l-7 6 38-4 38-5-12 14-12 15h10c5 0 12-6 15-13l5-13 46-1 46-1v19l-9-6-10-5-6 10-7 11 39-4 38-5 20 8 20 9h-14c-8 1-12 4-9 7 4 3 27 2 52-1l45-7 6-19 6-19h34l-15 10c-21 13-10 16 35 9l40-6-30-3-30-2 25-8 25-8-47-1-48-1v31l-15 5-15 6-15-12c-7-6-22-11-32-10s-31 1-48 0l-30-2 30-8 30-8-64-1c-78-1-77-10 2-12l56-2-5-9-5-8 33-2c18 0 47-2 64-2l31-1 19-15 19-15-14 18-13 17h32v-30h85l-15-10-15-10 40-1c22-1 54-1 70-1h30l-13-5c-6-3-12-11-12-19v-14l20 17 20 17-1 21-1 20-5-12-5-13-56 2-57 1 55 7 55 6-35 5-35 6 43 1 42 2v179l-22 4-23 4 23 2 22 1v45l-18 12-19 11-12-8-13-7-30 14-30 15-10-10-11-11-21 14-21 14-40 2c-22 1-47-1-55-4l-15-6-16 22c-9 12-19 32-23 45l-7 22h33c18 0 40 5 48 10l15 10-233-1h-232l5-10c4-5 11-9 17-9 5 0 21-9 35-20l26-20h-15c-8 0-19 5-25 11l-11 11-23-5-24-4 26-2 27-1 5-14 6-15-20-6-19-6v-28l23-4 22-4-25-2-25-1 15-10 15-10h-12c-7 0-13-5-13-11v-11l50 5 50 5 5-8 5-9-27 1c-16 0-41-1-58-2l-30-3 35-7 35-7-31-2-32-1-5-14-6-15 17-4 17-5-17-1-18-1v-59l23-4 22-4-22-2-23-1v-14c0-8 3-21 6-30l6-16h48v10c0 6 7 10 16 10h15l-6-10-6-10 58-1 58-2-35-7c-19-4-29-8-21-9l14-1-6-6-7-7-17 14-17 14 8-12 7-13h-13c-8 0-20 6-27 13l-14 12 7-12 6-12-36-3-36-3-13-39c-8-22-23-48-34-60l-21-20v74h-11c-6 0-25-15-43-33-17-18-37-33-43-33-29-2-33-5-33-21v-17l-11 11-10 10-25-5c-25-5-40-19-30-29 3-3 12 0 21 7l15 12v-22h38l5-13c3-7 4-27 2-45l-3-32h8c4 0 13 7 20 15l12 15h-11c-6 0-11 3-11 8 0 4 16 7 35 7s35-3 35-7c0-5-9-8-19-8h-20l-6-21-7-21-31 6c-18 4-56 9-84 13l-53 5v-7c0-4 8-14 17-21l18-12-7-8-8-7-21 19-22 19 5-37 4-38h-26v25l-11-15-11-15-5 13c-2 6-9 12-14 12h-10l6-10 6-10h-10c-6 0-11 5-11 10v10l-22 1h-23l19 8 20 8-12 7c-7 4-12 13-12 19v12l10-15c11-17 11-16 14 23l3 27h-9c-4 0-8-4-8-10 0-5-4-10-10-10h-9l5 15c4 8 12 15 19 15 8 0 17 5 21 12l7 11-11-7-10-6-14 15c-7 8-19 21-26 30l-13 15h19l-5 20c-5 20-23 28-23 10 0-5-5-10-11-10h-10l6 10 6 10h-21v35l9-14 9-14 17 16c21 21 24 21 19 0-2-10 0-24 4-31l9-13 23 9 24 9-23 6-22 5 15 29 15 29-9 14c-4 7-6 19-3 25l4 12-16 17-16 16 38 1 38 1-30 8c-16 4-26 8-21 9l8 1-10 13-11 13 36-4 36-5-7 12-7 11-10-5-9-6v21l23 1h22l-20 9-20 9h15l15 1-11 8-11 7 3 17 2 18-16 10-17 9 13 1h13l-15 15c-8 8-20 15-26 15h-11l6 10 6 10h-62l6 10 6 10 11-6 10-7 9 14 9 14 11-15 11-15-7 20c-4 11-8 26-8 33 0 6-4 12-9 12-4 0-8 6-8 13v13l25 2 24 2 6-10c3-6 11-10 16-10h10l-5 9-6 9 12 5 13 5-17 1-17 1 5 14 5 13-21 6c-12 3-273 6-580 6H741l-11-14zm100-15v-10l-22 1h-23l20 9c11 5 21 9 23 9 1 1 2-3 2-9zm60 6c0-2-9-6-20-9l-20-5v9c0 5 9 9 20 9s20-2 20-4zm150 0c0-2-7-6-15-9l-14-6-6 9-6 10h20c12 0 21-2 21-4zm1597-22c-3-3-12-4-19-1l-13 5 19 1c11 1 17-2 13-5zm-120-60c-3-3-12-4-19-1l-13 5 19 1c11 1 17-2 13-5zm-1730-40c-3-3-12-4-19-1l-13 5 19 1c11 1 17-2 13-5zm1029-30c-18-17-23-18-23-1v13l19 1 18 2-14-15zm-1026-14c0-5-4-10-9-10-6 0-13 5-16 10l-6 10h15c9 0 16-4 16-10zm65 0c-3-5-17-10-31-10h-24v20h61l-6-10zm185 0v-9l-17 6-16 6 21-21c12-12 22-28 22-34v-13l-9 13-8 13-39-1h-68l-29-1 13 16c7 8 21 15 31 15h19v20h80v-10zm70-24c0-2-7-6-15-10l-15-5v9c0 6 7 10 15 10s15-2 15-4zm1303-3c-13-2-33-2-45 0l-23 4h90l-22-4zm34-19c-3-3-12-4-19-1l-13 5 19 1c11 1 17-2 13-5zm-617-21c-8-3-18-11-22-17l-8-11v35l23-1 22-1-15-5zm536-6 7-7h-21c-11 0-23 4-26 8l-5 9 19-2c11-1 23-4 26-8zm69 3 6-10-13 1c-7 0-22 4-33 9l-20 9h27l27 1 6-10zm103-10 4-10h79l-4-7-5-8-74 4c-40 2-65 6-55 8 9 3 17 8 17 13v9l-17-6-16-6 7 11 7 12 27-5c15-2 28-9 30-15zm60 3c-10-2-26-2-35 0l-18 5h70l-17-5zm-770-25c-7-13-12-26-11-29s-10-6-25-5h-27l3-12c3-16-6-15-25 4l-16 15 13 12 13 12-7-12-7-13h12c6 0 18 8 25 18l14 17-6-17-6-18h7c4 0 16 11 27 25 24 31 33 32 16 3zm621 7c2-3-20-5-50-5h-54l13 9 13 8 37-4c20-2 38-6 41-8zm-581-20c-3-3-9 2-12 12l-7 18 12-12c7-7 10-15 7-18zm502-5c0-5-2-10-4-10-3 0-8 5-11 10l-6 10h10c6 0 11-4 11-10zm355-30 6-10h119v20l18-1 17-1-13-5c-6-2-10-8-7-13l5-7 29 3 30 4 7-12 7-11-10 6-11 7-12-15-12-15h-96l-6 15-5 15-73 1-73 2 40 7 40 6-30 6-30 5 27 2 27 1 6-10zm192 4c-3-3-12-4-19-1l-13 5 19 1c11 1 17-2 13-5zm-1207-19c7-8 9-15 6-15-4 0-14 7-22 15l-15 15h9c5 0 15-7 22-15zm1265-14c-6-5-25 10-25 20v10l14-13c8-7 12-15 11-17zm-423-47-9-16v64l9-16 9-16-9-16zm-814 23c6-5 12-13 12-18 0-12-37-11-45 1-3 6-16 10-28 11h-22l20 8c26 11 48 10 63-2zm102-7c0-11-2-20-4-20s-6 9-9 20l-5 20h9c5 0 9-9 9-20zm-500-12c0 6 5 12 10 12 6 0 10-7 10-15s-5-15-10-15h-10l11-18 12-19h57l-13 16-12 15 17-6 16-7 7 17 6 16 12-24 13-25 23-3 23-4-6-23-6-24 16-16 16-16 10-42 9-42-11-3-11-4 12-15 13-15 2-44 3-44h-20l7 12 7 11-11-6-10-7-16 6-17 6 11 12 10 13-14 19-14 19-19-17-19-17-29 15c-17 8-46 28-65 43-19 16-45 31-58 35-12 4-22 12-22 17v9h-19c-11 0-27 8-37 17-9 10-22 18-28 18-13 0-99 56-104 68-2 4-10 7-18 7s-17 7-20 15c-4 8-13 15-21 15h-14l15 15c8 8 22 15 31 15h16l-11-20-11-20h11c5 0 10 5 10 10v10h50v-29l16 6 17 6 14-19 15-19-7 23-6 22 16 6 17 7-14 8-13 9h35l1-12 1-13 5 13 5 12h48v-32l11 4c6 2 10 7 10 11-1 4 4 14 11 21l13 14 7-12 8-11v13zm1427-14c-3-3-12-4-19-1l-13 5 19 1c11 1 17-2 13-5zm-1893-19 5-15h-9c-6 0-10 7-10 15s2 15 4 15 6-7 10-15zm506 5c0-5-5-10-11-10h-10l6 10c3 6 8 10 11 10 2 0 4-4 4-10zm294 2 5-8-30 4c-16 2-29 6-29 8 0 8 49 4 54-4zm71-2 6-10-22-22-21-23 11 23 12 22-6 10-6 10h10c5 0 13-4 16-10zm65-11c0-5-4-9-8-9-5 0-9 7-9 15v14l9-5c4-3 8-9 8-15zm-110-18c0-6-5-13-10-16l-10-6 5-10 6-9h-10c-12 0-14 11-5 34 7 17 24 22 24 7zm710-1c0-5-2-10-4-10-3 0-8 5-11 10l-6 10h10c6 0 11-4 11-10zm-87-42 5-18h-8c-8 0-40 44-40 55 0 12 39-21 43-37zm-568 1c11-16 1-19-13-3l-13 14h10c5 0 13-5 16-11zm518-19c-9-16-21-30-27-30-5 0-14-7-21-17l-12-16-11 7c-7 4-12 14-12 22v14l13 1c6 1 17 1 23 0s17 10 24 24l13 25h28l-18-30zm-459-41 8-7-40-4-40-3 4 7c3 5 14 8 25 8h19v23l8-9c4-5 11-12 16-15zm-1374-3c0-3-4-8-10-11l-10-6v10c0 6 5 11 10 11 6 0 10-2 10-4zm1243-3c-7-2-21-2-30 0l-18 5h60l-12-5zm41-8c-4-8-9-15-13-15s-8 7-8 15v15h26l-5-15zm676-30 25-30-33 29c-17 17-32 34-32 40v10l8-9c4-6 18-23 32-40zm-105 25c-3-5-12-10-18-10h-12l15 10c19 12 23 12 15 0zm-1805-26c0-8-4-14-10-14-5 0-10 5-10 11v11l-15-5-14-6-6 9-5 9 22 3c29 5 38 1 38-18zm1680 16c0-5-4-10-10-10-5 0-10 5-10 10 0 6 5 10 10 10 6 0 10-4 10-10zm-1367-35c-3-9-8-14-10-11-3 3-2 9 2 15 9 16 15 13 8-4zm875 8c-10-2-26-2-35 0l-18 5h70l-17-5zm75-51-6-14-7 12-8 13-12-8-13-8 7 11c3 6 15 10 25 9l19-1-5-14zm657 8c0-5-2-10-4-10-3 0-8 5-11 10l-6 10h10c6 0 11-4 11-10zm105-8c-3-3-11 0-18 7l-12 12 18-7c10-3 15-9 12-12zm-707-17-11-25-26 1-26 1 25 8c14 4 19 8 13 9-7 1-13 5-13 11v9l14-5 14-5 7 10c12 21 15 11 3-14zm-1315 0c-3-9-8-14-10-11-3 3-2 9 2 15 9 16 15 13 8-4zm241-6 18-21-14 5-13 4-17-15-18-15v12c0 12 18 51 23 51 1 0 11-10 21-21zm1119-66c-7-2-19-2-25 0l-13 5h50l-12-5zm944 1c-3-3-12-4-19-1l-13 5 19 1c11 1 17-2 13-5zm-164-21c-7-2-19-2-25 0l-13 5h50l-12-5zm-244-16c-2-1-12-9-22-16l-17-14 6 17 6 16h16c8 0 13-1 11-3zm138-3c-3-3-12-4-19-1l-13 5 19 1c11 1 17-2 13-5zm-10-20c-3-3-12-4-19-1l-13 5 19 1c11 1 17-2 13-5zm328 456-6-10h15c9 0 16 5 16 10 0 6-4 10-9 10-6 0-13-4-16-10zm35 0c0-5 5-10 10-10 6 0 10 5 10 10 0 6-4 10-10 10-5 0-10-4-10-10zm-1160-30c0-5 5-10 11-10h10l-6 10c-3 6-8 10-11 10-2 0-4-4-4-10zm-420-170c0-5 5-10 10-10 6 0 10 5 10 10 0 6-4 10-10 10-5 0-10-4-10-10zM0 2955v-37l15 12 16 13-3 20c-2 11-9 22-15 25l-13 4v-37zm1915 25c3-5 8-10 11-10 2 0 4 5 4 10 0 6-5 10-11 10h-10l6-10zm35 0c0-5 5-10 11-10h10l-6 10c-3 6-8 10-11 10-2 0-4-4-4-10zm15-61-20-8h13l13-1-6-10-6-9 20-23c10-13 49-61 86-108s87-104 111-128c24-23 44-47 44-53v-11l13 4 12 5 3 30 3 30-15 13c-9 7-16 19-16 26v14h-25l-32 48c-18 26-36 56-40 68-8 21-88 96-121 113l-17 8-20-8zM210 2781c0-5-8-12-17-14l-18-5 33-1 32-1v30h-15c-8 0-15-4-15-9zm120-23c0-5 9-8 21-8h21l-6-15-5-15h9c6 0 10-6 10-13 0-8 9-22 20-32l20-18 25-2 25-1v26h40v-30h39l-5-15c-3-8-11-13-16-12-6 1-13-4-15-12l-5-13 22 7 23 7-6-21-5-21h29l-6 21-7 20 14-2c7-1 19-1 27 0l13 1-6 15-5 15h19v-60h-42l6-22c3-13 6-26 6-30 0-12 20-9 20 3 0 6 6 17 14 24l14 14 11-13c6-7 8-16 5-19-4-3-3-19 1-34l7-28 9 18c11 20 31 23 28 5-1-7-1-25 0-40l1-28 18 1 17 1-11 4-10 4 4 30 4 30 17-2 16-3v34l1 34-14 13-13 14 6 20 6 20h-10c-6 0-11-6-12-12v-13l-7 15c-4 8-15 27-25 42l-19 27 8 12 7 12-11-7-12-7v9c0 5-8 12-17 15-10 2-27 8-37 13l-19 7 7-11 7-12h-20c-11 0-31 4-45 10l-25 9-5-8c-3-5-17-8-31-8h-26l5 13 5 14h-9c-15 0-12-21 5-40l14-16-21-1c-12-1-28 3-35 9l-13 10-1-13v-14l-8 20c-5 11-6 24-3 29l5 8 6-11 7-10 11 18 12 19-50 4-49 3v-7zm287-64c-3-3-12-4-19-1l-13 5 19 1c11 1 17-2 13-5zm-37-25v-19h-10c-5 0-10 5-10 10 0 6-7 10-15 10-26 0-16 15 10 16l25 2v-19zm-143 5c-3-3-12-4-19-1l-13 5 19 1c11 1 17-2 13-5zm298-154 6-10h-10c-6 0-11 5-11 10 0 6 2 10 4 10 3 0 8-4 11-10zm-598 223c-4-3-7-17-7-30v-23h23l-6 7-7 6 10 11 9 12-8 12-7 12-7-7zm188-13-6-10h15c9 0 16 5 16 10 0 6-4 10-9 10-6 0-13-4-16-10zm390-30c2-14 5-32 5-40l1-15 10 19 11 18-9 7c-6 3-13 13-17 21l-6 15 5-25zm1485 10c0-5 5-10 11-10h10l-6 10c-3 6-8 10-11 10-2 0-4-4-4-10zm465-10c3-5 8-10 11-10 2 0 4 5 4 10 0 6-5 10-11 10h-10l6-10zm-2545-46v-15l10 6 10 6-5 10c-9 14-15 11-15-7zm2188-41c7-3 16-2 19 1 4 3-2 6-13 5l-19-1 13-5zm-432-19c-9-24-7-27 9-10 17 17 19 26 6 26-5 0-12-7-15-16zm-1376-29c0-8 4-15 10-15h9l-5-15-6-15h23l-6-10-6-10h29l-5 21-6 21 14 9 14 9h-35v10c0 6-7 10-15 10h-15v-15zm2430-5c0-5 5-10 10-10 6 0 10 5 10 10 0 6-4 10-10 10-5 0-10-4-10-10zm50-20c0-5 5-10 10-10 6 0 10 5 10 10 0 6-4 10-10 10-5 0-10-4-10-10zm-2595-10-6-10h10c6 0 11 5 11 10 0 6-2 10-4 10-3 0-8-4-11-10zm235 0c0-5 5-10 10-10 6 0 10 5 10 10 0 6-4 10-10 10-5 0-10-4-10-10zm-170-15v-16l10 6 10 6v-15c0-8 4-17 9-21l10-5-3 27-3 28-17 3-16 3v-16zm1406-4-6-8h52l-13 8c-18 11-26 11-33 0zm-1721-11-6-10h10c6 0 11 5 11 10 0 6-2 10-4 10-3 0-8-4-11-10zm485-27c0-7-5-13-12-13-6 0-9-3-6-6 8-7 48 14 48 25 0 4-7 8-15 8h-15v-14zm27-73c3-11 7-20 9-20s4 9 4 20-4 20-9 20h-9l5-20zm53 11c0-5 5-11 11-13l12-4-17-17-17-17 28 1c15 0 23 3 17 5l-11 5 5 24 4 25h-16c-9 0-16-4-16-9zm40-2v-10l10 6c6 3 10 8 10 11 0 2-4 4-10 4-5 0-10-5-10-11zm11-35 1-19 5 13c3 7 2 16-1 19-3 4-6-2-5-13zm-55-183c5-4 30-22 56-38l46-31 10 10 11 11-6-21-5-22 20-7c12-5 20-11 19-14s7-18 18-32l19-26 15 12 14 12-12-22-12-23h21v-41l13 7 12 7-11-12-11-12 12-37 13-37 27-3 26-3 25 24 25 25-13 5-13 5 24 1 24 1 18 22 19 21v-31l-41-36-42-36h13c8 0 23 8 34 18l21 17-14-17-13-18h19c11 0 43-7 72-15l52-16 46-44c26-25 47-45 48-45s-1 167-4 263l-1 47-22-3c-13-2-17-2-10 0l12 4v40l-26 24c-14 13-47 35-73 47l-46 23-219 2-218 1 8-7zm184-32c-7-11-14-18-17-15-8 8 5 36 17 36h11l-11-21zm205-9c-3-5-12-10-18-10h-12l15 10c19 12 23 12 15 0zm8-49-17-3 25-14 24-13-16-1h-17l-6-15-5-15h-31v-25l-33-2-32-2 14 8 13 9-11 6c-6 4-11 12-11 17v10l16-15c20-21 28-20 20 0l-6 17 13-11 14-12 6 7c4 3 7 14 7 23s8 26 17 37l18 22 7-12 7-12-16-4zm122 6-15-24 7-6 6-7h-13c-7 0-11-3-7-6 6-6-36-78-60-102l-13-13v18c0 10 7 29 16 41 8 12 12 22 7 22h-8l10 8c6 4 23 26 39 50 16 23 33 42 38 42h8l-15-23zm-263-23-9-17-8 13-8 12 14 9c18 11 23 4 11-17zm95 11c0-8-4-15-9-15-4 0-8 7-8 15s4 15 8 15c5 0 9-7 9-15zm-89-95c-7-10-14-18-15-16-6 6 9 36 18 36h9l-12-20zm22-10c0-5-5-10-11-10h-10l6 10c3 6 8 10 11 10 2 0 4-4 4-10zm179-47c-6-10-26-29-43-42l-31-25 40 42c42 45 52 52 34 25zm496 229c44-22 73-42 125-84l14-13 23 3 23 3v-20l-15 5-15 6v-14c0-8 10-24 23-36l22-21 15 9c8 5 19 10 23 10h8l-6-10-6-10h22l-6-10-6-9-14 6c-24 9-17-5 23-47 20-22 43-47 51-55l13-16 15 5c8 3 27 6 41 6h27l-15 10-15 9 15 16 16 15 27 2c16 1 33 8 39 15l10 13-33 1-34 2 28 4 27 4-5 9-6 9-16-6-17-7 22 24c12 13 19 26 16 29s-10-1-15-9l-11-15-5 13-5 12h-49l6 10 6 10h-37v39l30-3c17-2 39 0 51 4l20 9h-77l-77 1 5-14 5-14-32-11c-33-11-49-8-49 12v11l11-11 11-11 27 24 26 24h70l-15 10-15 10 35-1h35l-20-9-20-9h27l27-1-5 15-6 15 18-7 17-6-6 16-6 16 15-6 14-5v22h-75l15-10 14-9-17-7-18-7-12 13-12 13 14-8 14-8-7 11c-4 7-15 13-24 13-9 1 1 5 23 9l40 7-45 2c-25 1-55 4-67 7l-23 6v-24l15 6 15 5v-9c0-6-7-10-15-10h-15l6-25 6-25h-23l6 10 6 10h-32l11 21c7 11 9 23 6 26s-76 7-163 8l-157 3 49-26zm183 1c-10-2-28-2-40 0l-23 4h40l40 1-17-5zm160-27-18-13 7-6 6-7h-34l11 20 11 20h17l17-1-17-13zm-85-23c-7-2-21-2-30 0l-18 5h60l-12-5zm40-110c-7-2-19-2-25 0l-13 5h50l-12-5zm177 132-12-14 21 2c22 1 28 12 12 21l-9 6-12-15zm226-22c-20-5-85-71-86-85 0-13 12-9 32 9l18 16v-11c0-7 5-12 11-12h10l-6 10-6 10h23l-12 15-12 15h37l-15 10-15 10h45v10c0 6-1 9-2 9-2-1-12-4-22-6zm79-13 6-10 10 5c14 9 11 15-7 15h-15l6-10zm-25-21v-10l10 6c6 3 10 8 10 11 0 2-4 4-10 4-5 0-10-5-10-11zm-202-66c6-2 18-2 25 0l12 5h-50l13-5zM320 1883c0-12-4-25-10-28-12-7-13-41-2-48 4-2 1-2-5-1-14 4-14 3-18-34l-2-23 13 5 13 5-6-16-6-15 13-8c7-5 19-6 26-3l13 5-2 79-2 78-13 13-12 12v-21zm2195-33-18-20h11c6 0 19 8 28 18l18 17-7-17-6-18h40l-11 20c-6 11-17 20-24 20s-21-9-31-20zm-1578-7c-2-5-3-28-1-53 1-25 2-75 3-112l1-68h71l-5-9-6-9 12-6 13-5-15 2-15 2-23-23c-12-12-22-28-22-35v-13h40l-4 13-5 13h9c15 0 80 44 80 53 0 5 7 15 15 23l15 15 9-5 9-6-2 18-1 17 25 2 25 2-25-8-25-9 21-1 22-1 6-15 6-16 62 3 62 3 2 40 2 40-14 27c-8 15-31 43-51 63l-36 35-50 15-51 15H990v-10c0-5-5-10-11-10h-10l6 10 6 10h-20c-11 0-22-3-24-7zm123-211c0-5-7-9-15-9h-14l5 9c3 4 9 8 15 8 5 0 9-4 9-8zm955 197 18-19 16 1 16 1-18 5-18 5 4 12 5 12-20 1-20 2 17-20zm503-16c7-3 16-2 19 1 4 3-2 6-13 5l-19-1 13-5zm-640-610-3-598-98 2-99 3-71 21-72 21-45 36c-25 19-61 53-81 75l-37 40-5-19c-5-17-4-47 3-79 5-22 0-65-8-65h-8l-1 33c0 17-1 44-2 59l-1 27-22-1c-13-1-28-6-35-11l-12-9 13-14 14-14-5-20-5-20-22-1h-21l20-9 20-9h-12l-13-1v-32l-15 5-14 6 9-24 10-25h-10c-5 0-12-9-15-20l-6-20h-30l6-10 6-9-25-7-25-6 7-16 6-17-16 13-16 13-44-1c-45 0-77 3-216 21l-82 11-7 11-6 10 11-7 12-7v15c0 9 5 16 10 16h11l-18 18-18 19-72 12-72 13-11-7-10-6-6 15c-3 9-10 16-15 16h-9l3-35 4-35 16-18 15-17-1-27-2-27-19 17-19 17 6-17 6-18h-9c-5 0-14 8-20 17l-12 18 6-18 5-17-137-1c-75 0-179-4-230-7-50-4-92-4-92-1 0 11-66 79-77 79-6 0-16 7-23 15L8 590h40l5-12 5-13 12 15 12 15-6-17-5-18h9c6 0 10 4 10 9s14 11 31 15l31 6-12 15-12 15h30l-5 20c-6 22-23 27-23 8v-13l-8 11c-4 6-22 19-39 28-18 9-33 21-33 26v10l-24-15-24-16-2-340L-1 0h491v60h-33l6 6 7 7-22 18c-11 11-25 19-29 19s-49 40-98 89l-91 90v38l-25 29c-13 15-22 30-20 32 2 3-2 11-10 19s-15 18-15 23v9l218 2c119 1 246 1 281 1l65-1 11 9 12 10 91 1 92 2v18l9-5c5-3 49-7 99-10 50-2 95-7 102-11l11-7 12 10 12 10 55-10 55-10 63 5 62 5 6-9 6-10-24-19c-13-10-36-21-53-24l-30-6-98 9c-55 5-104 7-110 4-7-3-34-29-61-59l-48-53 17-45 17-45-5-15-6-15 15 6 14 5v-30l15-6c18-6 20-33 4-38l-12-4 17-17 17-17-33-2c-18 0-41-1-50 0l-17 2 2-20c1-11 5-20 10-20h8l-5-9-6-9 16-6c9-3 274-6 590-6h574v9c0 6-5 13-11 16l-10 7 5 14 5 13-9 6c-15 9-12 42 5 59 18 18 19 33 3 39l-13 5 15 11c15 10 13 12-12 15-7 0-14 9-16 19l-3 17h28l-5 29-4 29 11 6c6 4 11 14 11 23s28 65 61 125l62 110 18-5 19-5 6 10 6 9 31-2c18-2 37-7 43-11 7-5 46-11 88-13l76-5 20-10 19-10 71 6 71 7-10-24c-5-13-30-60-56-104s-56-105-66-134c-11-30-26-65-34-78l-15-23h9c6 0 15 8 20 18l11 17 10-15 10-15v10c0 6-6 17-12 24l-13 13 22-6 21-7 8 12 7 12-11-7-12-7v13c0 7 7 22 15 32 8 11 15 26 15 34 0 17 107 234 153 309l32 52 13 1h12v-15c0-8-5-15-11-15h-10l6-10 6-10h-10c-6 0-11-6-11-14s-6-16-12-19c-7-2 2-4 19-5 38-1 53-8 52-25l-1-12-5 13c-7 18-20 15-26-8l-5-20h-53l-15-14-14-15 9-5 9-6 14 13 14 14 30-4 31-5 14 15 15 14 13-14c17-18 28-8 12 11-7 8-11 20-10 28 1 7 1 21 0 31l-1 18-10-6-9-6 5-17 6-17-11 17-11 16 6 15 5 14h25l24 1v-9c0-5-5-9-11-9h-11l13-16 13-16-10-6c-13-10-14-26 0-38l12-11v75l1 75-17-20-16-20v67l10-10c6-5 14-10 18-10h8v102l-15-12c-24-20-27-6-5 18l19 21 1 215v216h-71l6-10 6-10h-10c-5 0-11 6-13 12l-4 12-6-20-5-21 26 5 26 4-39-36c-21-20-41-36-43-36-3 0-2 12 1 28l6 27-11-18-11-18 6-15 6-15-13-19c-6-11-17-20-24-20h-12l6 18 6 17-14-17c-8-9-23-18-34-21l-20-5 37-1 37-1-4-22c-3-12-9-26-15-32l-10-10v23l-15-5-15-6v11c0 6-3 10-7 10-22-4-32 3-39 24-5 12-7 26-6 30 1 5-1 6-6 3l-8-5-36 32c-70 64-88 77-106 78l-17 1 12 5 13 5-14 14c-18 17-30 18-20 2l7-13-14 13c-8 7-14 18-14 25l-1 12-13-3-12-2 5 9 6 9-72 78-73 78 1 13 2 13h-14c-8 0-17 7-20 15-4 8-12 15-19 15s-15 6-18 13c-2 6-7 10-10 7-5-4-11-500-7-535 0-5 10 6 20 27l20 36 57 34 58 33 65-1h65l41-22 42-21 36-43c20-23 39-53 42-65 4-13 9-23 13-23h7l-2-52c-2-29-9-72-15-95l-11-41-44-45-43-45 7-7 7-8-16 6-17 5-10-10-11-11-48-3c-26-1-71 2-100 8l-52 11-49 43-50 43-17 43-17 43v45c1 25 5 58 11 73l11 27h-20v589l-10 6-10 6 10 20 11 19h-13c-7 0-36 25-65 56l-52 57-21-6-21-5 6 19 6 19h-16c-9 0-34 9-57 21l-41 21-22-10-22-10-31 25-32 24-2-598zm200 439 4-12-16 6c-9 3-16 11-16 16v10l12-4c6-2 14-10 16-16zm-37-54 12-23-16 14c-10 7-17 17-17 22 0 15 9 10 21-13zm942-385c-7-2-19-2-25 0l-13 5h50l-12-5zm-80-470c-7-2-19-2-25 0l-13 5h50l-12-5zm47-33c0-5-4-10-10-10-5 0-10 5-10 10 0 6 5 10 10 10 6 0 10-4 10-10zm-20-20c0-9-31-23-37-16-3 3 1 11 8 19 14 15 29 13 29-3zM64 655l-6-15-19 11c-26 13-24 19 6 19h24l-5-15zm-31-19 6-15-15 6c-7 3-14 9-14 14 0 14 17 10 23-5zm1337-41c0-8-4-15-10-15-5 0-10 7-10 15s5 15 10 15c6 0 10-7 10-15zm36-93c-13-12-17 8-10 40l9 33 3-33c2-19 1-36-2-40zm-551-2-6-10-77 1-77 1 25 7c14 4 51 8 83 9l59 3-7-11zm-705-56c0-2-7-4-15-4s-15 4-15 10v9l15-5c8-4 15-8 15-10zm-42-140c18-8 32-17 32-20 0-5-71 24-79 31-10 11 18 4 47-11zm67-42c-3-3-11 0-18 7l-12 12 18-7c10-3 15-9 12-12zm-93 1-12-5 6-9 5-9H53v30l21-1 21-1-13-5zm125-19c-3-3-12-4-19-1l-13 5 19 1c11 1 17-2 13-5zm39-36c15-13 32-28 38-33 6-6 27-21 46-35 19-13 50-36 68-52l33-28h-15c-8 0-16 3-18 8-1 4-42 38-90 75-81 63-107 87-94 87 3 0 18-10 32-22zm859-108 6-10h-10c-5 0-13 5-16 10l-6 10h10c5 0 13-4 16-10zM193 83c-7-2-21-2-30 0l-18 5h60l-12-5zm27-17c0-2-7-7-16-10l-15-6 6 10c6 10 25 14 25 6zm74-12 6-17-15 13c-17 14-19 20-6 20 5 0 12-7 15-16zm-19-22c-3-3-11 0-18 7l-12 12 18-7c10-3 15-9 12-12zm8-19c-7-2-21-2-30 0l-18 5h60l-12-5zm2515 1780c6-2 18-2 25 0l12 5h-50l13-5zm-34-65-19-21 20 8c11 4 31 8 45 8h25l-13 4-12 5 6 9 5 9h-38l-19-22zm-2439-38c3-5 8-10 11-10 2 0 4 5 4 10 0 6-5 10-11 10h-10l6-10zm-5-28c0-6 6-13 13-16l12-5-15 2-15 2-23-23c-23-23-29-42-13-42 5 0 12-7 15-16l6-15-9 6-10 5-6-10-6-10-11 6-11 7 7-11 6-11-10-6-10-6v10c0 6-5 11-12 11s-22 12-35 28l-22 27-1-22c0-12-5-25-10-28l-10-6 6-11 7-11-9 6-9 5-25-14-25-15 35 7 35 7-13-15-12-15 27 5 28 5-10-11c-5-5-19-12-30-15l-20-5 29-1 30-1-20-15c-10-8-26-15-34-15h-15l-12 20-13 19 18-5 17-6-15 11c-8 6-25 11-38 11H58l-29-30-30-29 2-38c1-21 6-46 11-55l9-18H-5l14-9 13-8-11-7-11-7v-49h22l-10-12-10-13-1-79-1-78 17 6 17 7-17-19-17-19v-93h11c6 0 27 14 46 30 18 16 31 30 28 30s10 13 28 30c19 17 40 30 46 30h12l-6 10-6 10h12c7 0 25 12 40 26l28 27-4-39-3-39 13 18 13 17-3 30-3 30 9-6 9-5 7 18c4 10 21 34 40 53l33 34v46l-1 45-12-16c-16-20-57-42-65-34-3 3 13 23 36 43l43 37-3 154-3 154-12 5-13 4v-10zm-90-141c0-4-11-7-25-7s-25 3-25 7c0 3 11 7 25 7s25-4 25-7zm29-274c-2-2-17-11-34-22l-30-18 19 21c11 12 26 22 34 22 9 0 13-1 11-3zm-85-72c-4-8-10-15-14-15-5 0-15-6-22-12-7-7-21-19-31-27l-17-14 6 17c3 9 10 16 16 16h9l-6 10-6 10h26c3-1 13 6 21 15 19 19 25 19 18 0zm-114-80c0-8-2-15-4-15s-6 7-10 15l-5 15h9c6 0 10-7 10-15zm175 555 6-10 10 5c14 9 11 15-7 15h-15l6-10zm2737-22c9-7 18-22 21-33l5-20 1 33 1 32h-44l16-12zm-553-15-14-18 18 14c16 13 21 21 13 21-2 0-10-8-17-17zm-139-4v-10l10 6c6 3 10 8 10 11 0 2-4 4-10 4-5 0-10-5-10-11zm660-47c0-4 11-9 26-10l25-2-6 10c-7 12-45 14-45 2zm-20-22c0-5 5-10 11-10h10l-6 10c-3 6-8 10-11 10-2 0-4-4-4-10zm18-127c7-3 16-2 19 1 4 3-2 6-13 5l-19-1 13-5zm12-28c0-8 5-15 10-15 6 0 10 4 10 9s8 12 18 14l17 5-27 1-28 1v-15zm-24-70c4-8 8-15 10-15s4 7 4 15-4 15-10 15h-9l5-15zm59 5c3-5 8-10 11-10 2 0 4 5 4 10 0 6-5 10-11 10h-10l6-10zm-5-30-15-10h35v10c0 12-1 12-20 0zm-40-30-15-10h10c6 0 17 5 25 10l15 10h-10c-5 0-17-5-25-10zm18-27c7-3 16-2 19 1 4 3-2 6-13 5l-19-1 13-5zm-2647-59c-31-50-33-66-6-44l15 13 7-7 6-6h-28l15-11 15-10-19 3-19 3-4-11-4-11 23 1c13 1 26 6 30 12l7 11-6 21c-3 12-10 22-15 22h-10l17 26c9 14 14 28 11 31-2 3-18-17-35-43zM140 940c0-5 4-10 9-10 6 0 13 5 16 10l6 10h-15c-9 0-16-4-16-10zm-70-30 15-10H39l5-22 6-23-11 23-12 22H0v-49l17-4 18-5-17-1c-10 0-18-5-18-10v-9l18 3c9 1 25-2 34-6l17-9 6 10c3 5 12 10 18 10h12l-15-11-15-10 20 2c11 1 26 1 33 0l13-1-6-22-6-23 10 16 11 17-25 46-24 46h30l-6 11-7 10-14-5-13-5-6 9c-4 6-12 10-18 10H55l15-10zm1255-60-6-10h32l-6 10c-3 6-8 10-10 10s-7-4-10-10zm1-63c3-10 9-15 12-12s0 11-7 18l-12 12 7-18zM73 715l-13-14 10-6 10-6 6 16c9 21 2 26-13 10zm342-5c3-5 8-10 11-10 2 0 4 5 4 10 0 6-5 10-11 10h-10l6-10zm45-20c0-5 5-10 10-10 6 0 10 5 10 10 0 6-4 10-10 10-5 0-10-4-10-10zm33 3c4-3 18-8 32-9l25-3-5 10c-4 5-18 9-32 9h-26l6-7zm727-82c0-5 5-13 10-16l10-6v10c0 5-4 13-10 16l-10 6v-10zm-715-11c3-5 8-10 11-10 2 0 4 5 4 10 0 6-5 10-11 10h-10l6-10zm-329-12 5-8 10 5c13 9 11 12-6 12h-14l5-9zm394-37c0-6 5-13 12-17l11-7-7 11-6 10 17 5 18 5-22 1-23 1v-9zm2300-12v-10l10 6c6 3 10 8 10 11 0 2-4 4-10 4-5 0-10-5-10-11zm-80-74c7-8 17-15 22-15h9l-15 15c-8 8-18 15-22 15-3 0-1-7 6-15zM661 414c-21-25-4-28 25-5l27 21h-19c-11-1-25-8-33-16zm35-29c4-8 11-15 16-15h10l-12 15c-7 8-14 15-16 15s-1-7 2-15zm2104-15c0-5 5-10 11-10h10l-6 10c-3 6-8 10-11 10-2 0-4-4-4-10zm39-1-14-9h10c5 0-1-7-13-16l-22-15 5-9 5-8-16-6-15-6 6-9 6-10 13 5 13 5 1-31 1-30h-20l6-10 6-10h-10c-6 0-11-5-11-11v-11l15 6 15 5v-21l-25 4-24 5 5-8c3-5 16-9 30-9h24v9c0 5 11 12 25 15l24 6-5 14-5 14 23 1c13 0 42 1 66 1l42 1v89h-9c-5 0-11-7-13-16l-3-15-22 20c-12 12-26 21-31 21s-15 7-22 16c-8 8-21 19-30 24l-16 9-15-10zm5-54-6-15-9 6-9 5 5 10c4 5 10 9 15 9h9l-5-15zm2-62c7-10 14-21 14-25v-7l-15 6c-9 3-13 8-11 11 3 3 1 11-5 19-6 7-8 13-4 13s14-8 21-17zm109 102v-25h16c18 0 29 18 22 38-3 6-12 12-21 12h-17v-25zm-2715-9c0-7 7-19 15-26l15-12v10c0 18-12 42-21 42-5 0-9-6-9-14zm2491-35-14-9 16-22 15-21 7 10 6 11h-7c-3 0 0 8 7 18l14 17-19-15-20-15 7 18c7 20 7 20-12 8zM963 243c-11-15-23-35-28-43l-8-15 14 13c7 6 22 12 33 13l21 1-12 5-13 5 11 20c17 31 3 32-18 1zm1802 17-6-10h32l-6 10c-3 6-8 10-10 10s-7-4-10-10zm-55-15-12-15h8c5 0 15 4 23 9l13 9-10 6-10 6-12-15zm30-15-15-10h20l-15-10-15-9 18-18 17-17v12c0 7-6 12-12 12h-13l29 25 29 25h-14c-8 0-21-5-29-10zm-46-34 6-26h-21l6 10 6 10h-10c-6 0-11-7-11-15v-15h40v49l-11 7-12 7 7-27zM910 169v-10l10 6c6 3 10 8 10 11 0 2-4 4-10 4-5 0-10-5-10-11zm1690-34c0-8-9-24-19-34l-20-20-23 6-23 6 7-8 7-8-21-31c-12-17-27-34-33-39l-10-7 132 1 133 1-6 9c-3 5-15 10-27 10l-22 1 55 13c59 14 54 17-25 17l-50-1 30 9 30 8-32 1-32 1 5 14 5 13-16 7-16 6 6-10 6-10h-31l-1 13c-1 6-1 20 0 30 1 9 0 17-3 17s-6-7-6-15zm60-115V10h-35l15 10c19 12 20 12 20 0zm-14 122-7-12 15-6 16-6 1-22 1-21 5 18c2 9 9 17 14 17s9 7 9 16v16l-20-5-19-5-4 11-3 11-8-12zM838 83c-22-5-23-19-4-26l14-6 5 20c3 10 4 18 4 18-1-1-10-3-19-6zm1507-14c-4-6-5-12-2-15 2-3 7 2 10 11 7 17 1 20-8 4zm478-66c9-2 25-2 35 0l17 5h-70l18-5z"/></g><g fill="#e92a17" transform="matrix(.1 0 0 -.1 0 300)"><path d="m730 2985-12-14 8-13c4-7 9-22 10-35l3-23-10-5-9-6 15-15 15-16-5-9-6-9 13-1c7-1 2-5-12-9l-25-8 18-1 18-1-5-9-6-9 15-12 16-13 54 12 55 12 1 12c0 7 5 1 10-12l10-24 11 11c7 7 20 12 30 12h18v20h80v-19l-17 5-18 6 18-12c9-6 17-15 17-19 0-11-67-19-81-10l-12 7-27-8-28-8-14 12c-7 6-3 1 10-11l23-23h44l-15-11-15-10 20 3 20 3-3-13-2-13 9 5 9 6 22-27 22-28-15 26-15 25 19 12 19 12v-15c0-20 19-19 27 1l6 15-12 12c-17 17-14 23 18 37l30 12 9-6 10-6 6 16 6 15-10 18c-5 10-7 21-4 24s1 14-6 24l-12 18 6-17 5-18h-9c-6 0-10 7-10 15s-4 15-10 15c-5 0-10 5-10 11v10l10-6 10-6v91l-12 1c-7 1-30 2-50 3l-38 1v-7c0-5 12-8 28-8h27l-15-9c-8-6-18-7-22-5-4 3-8 0-8-5v-11h-35l12 8 12 8-7 11c-4 6-23 14-43 18l-36 7-6-16-6-16h-31v-14c0-7 8-20 17-27l17-14-8 13-7 12h32l-6 10-6 10h10c5 0 13-5 17-11l7-11-13-8-12-7 11-7c18-12 13-24-16-34l-28-10 20-1 20-1 13-20 12-20h-9c-5 0-12 8-15 17l-7 17-8-13-8-13-7 11c-4 6-17 11-29 11h-22l15 10c18 11 8 23-14 14l-16-6 6-9 5-9h-8c-14 0-30 14-35 30l-5 15 20 11 19 11-21 6-21 5 4-7c3-4-4-7-15-7-24 0-24 4 1 26l20 18-6 16-6 16h-18c-10 0-23-7-30-15zm30-25c0-5-5-10-11-10h-10l6 10c3 6 8 10 11 10 2 0 4-4 4-10zm301-27 14-18-17 14c-10 7-18 15-18 17 0 8 8 3 21-13zm-71-20 13-28 4 13 5 13 14-12c8-6 14-16 14-21v-10l-12 4c-7 3-18 0-24-6l-11-11 5-15c3-8-11 6-31 32-21 26-37 50-37 53v7l15-6 15-5v9c0 20 17 9 30-17zm-210-34v-10l-10 6c-5 3-10 11-10 16v10l10-6c6-3 10-11 10-16zm15-29 6-10h-8c-4 0-15 5-23 10l-15 10h17c9 0 20-4 23-10zm260 1 5-10-8-5-9-5v14c0 17 3 19 12 6zm-199-28-3-18-26-3-27-3v21h19c11 0 23 5 26 10 9 15 14 12 11-7zm259-12c-6-5-25 10-25 20v10l14-13c8-7 12-15 11-17zm-328-7c-3-3-11-3-16 1l-11 6 6 11 6 10 11-11c6-6 8-13 4-17zm274-7-12-12 7 18c3 10 9 15 12 12s0-11-7-18zm-31-49v-8l-37 1c-21 0-47 4-58 9l-20 8 57-2 58-1v-7zm-40-28c0-5-2-10-4-10-3 0-8 5-11 10l-6 10h10c6 0 11-4 11-10zm-30 182c0-5 7-17 15-28l14-19 1 12c0 19-11 43-21 43-5 0-9-4-9-8zm-140 91c0-5 5-15 11-23l11-15 5 13c2 6 11 12 19 12s14 5 14 10v10h-30c-16 0-30-3-30-7zm1670-14 11-19h-11c-5 0-10 5-10 10 0 6-7 10-16 10h-15l6-10 6-10h-10c-6 0-11 5-11 10 0 6-5 10-11 10h-10l6-9 5-9-17-5-18-5 57-1 57-1 6-10c3-5 13-10 21-10h14l1 18 1 17 5-12 5-13h48v10c0 6 6 10 13 10h14l-2-30-2-30 33 2 33 2-5 8-5 8-10-5-9-6-1 13c-1 7-2 18-4 23-1 6-3 16-3 24l-2 13-14-5-15-6-11 14-12 14h-64l-64-1 10-19zM0 2955v-37l15 12 16 13-3 20c-2 11-9 22-15 25l-13 4v-37zm795 25c3-5 11-10 16-10h10l-6 10c-3 6-11 10-16 10h-10l6-10zm1583 2-18-3v-29h31l-5 9-6 9 12 5c18 6 6 14-14 9zm-1568-32-15-10h46l-6 10c-7 12-6 12-25 0zm1166-49-6-9 48-65c26-36 57-71 69-78 12-6 20-15 18-19s12-26 31-49l36-41 9 6 9 5v-27l30-17 30-18v38l-19 17-20 18 6 14 5 14h-32l-31 43c-17 23-35 52-40 65-9 24-36 54-83 90-30 23-51 28-60 13zm754-1-15-10h10c6 0 17 5 25 10l15 10h-10c-5 0-17-5-25-10zm54-18 7-22-28-1-28-2 40-6 40-7 17 16 16 15-16 13c-9 6-21 12-26 12h-11l15-10c8-5 12-12 8-15-3-3-13 2-23 12l-18 17 7-22zm66-22-21-29 28-6c15-4 39-11 53-17 14-7 28-12 32-12 4-1 13-7 20-13 6-7 18-13 25-13h13v29l-22 4-23 4 23 2 22 1v45l-18 12-19 11-13-8-12-8-27 14c-35 19-37 18-61-16zm103-8 26 5 6-15c7-20-2-29-17-14l-11 11-28-6c-31-6-33-4-23 22l7 17 7-13 8-12 25 5zm-640 3c-7-8-13-17-13-20 0-8 80-2 86 7l5 8-18 1c-10 1-24 1-32 0l-13-2 7 10 6 11h-8c-4-1-14-7-20-15zm-800-32c9-2 23-2 30 0l12 5h-60l18-5zm817-13 35-7-31-2-32-1-5-14-6-15 17-4 17-5-17-1-18-1v-59l23-4 22-4-23-2-23-1 3-22 3-23 20 2 20 2 7-12 8-12v25h55l-15-10-15-10h76l-5 9-6 9h190l-6-9-5-9 33-2c18 0 47-2 64-2l31-1 19-15 19-15-14 18-13 17h32v-30h81l-6-10-6-10h60l10-17 11-18 9 15c14 20 6 27-30 28-17 0-37 6-42 11l-11 11h-64l-6 15-5 15h-72c-91 0-85 11 7 13l69 1-32 4-33 3v15c0 8-7 17-15 20l-15 6-15-12c-7-6-22-11-32-10s-31 1-48 0l-30-2 30-8 30-8-65-2c-87-4-142 0-160 11l-15 9 38-5 39-4-12 14-12 15h11c28 0 6 20-36 34l-48 14 37-1c21 0 40 2 44 6l7 7h-48l15 10 15 10-50 2-50 1 43 4 43 4-12 15-11 14-57-1-56-2 35-7zm42-76c7-6 26-11 42-12 38-3 40-6 19-23l-17-14 8 13 7 12h-86l15 10 15 10h-22c-12 0-24 4-27 8l-5 9 19-2c10-1 24-6 32-11zm-2-44c0-5-2-10-4-10-3 0-8 5-11 10l-6 10h10c6 0 11-4 11-10zm343-27c-7-2-21-2-30 0l-18 5h60l-12-5zm47 147v-10l28 6c39 10 40 14 4 14h-32v-10zm-1464-25-5-15h9c6 0 10 7 10 15s-2 15-4 15-6-7-10-15zm1150 1 6-16h38v10c0 6-4 10-9 10s-17 3-25 6l-16 6 6-16zm-2236-5c0-5-8-12-17-14l-18-5 33-1 32-1v30h-15c-8 0-15-4-15-9zm1148-8c7-3 16-2 19 1 4 3-2 6-13 5l-19-1 13-5zm1167-7c17-7 48-17 70-21l40-9-40-6-40-7 33-2 33-1-5-9-6-9-19 5-18 5-7-17-6-16-10 6-10 6 5 10 6 9h-20c-11 0-22-4-26-10l-6-9-16 6-16 6 5-14 5-14 46-2 45-2 6 16 6 15 15-6 15-5 22 9 23 9h-13l-13 1 6 10 6 10 42-6c23-4 53-11 67-17 14-5 41-11 60-13s69-10 110-18c41-7 77-12 79-10s-2 10-9 19l-13 15-31-1c-17-1-44 3-59 10-16 6-33 11-38 11h-10l5-9 6-9-21 5-21 6 12 7 12 8-73 5c-88 6-137 15-164 30-11 6-38 12-60 13l-40 3 30-13zm-2195-8c0-5 9-8 21-8h21l-6-15-5-15h9c6 0 10-6 10-13 0-8 9-22 20-32l20-18 25-2 25-1v26h40v-30h39l-5-15c-3-8-11-13-16-12-6 1-13-4-15-12l-5-13 22 7 23 7-6-21-5-21h29l-6 21-7 20 14-2c7-1 19-1 27 0l13 1-6 15-5 15h19v-60h-42l6-22c3-13 6-26 6-30 0-12 20-9 20 3 0 6 6 17 14 24l14 14 11-13c6-7 8-16 5-19-4-3-3-19 1-34l7-28 9 18c11 20 31 23 28 5-1-7-1-25 0-40l1-28 18 1 17 1-11 4-10 4 4 30 4 30 17-2 16-3v34l1 34-14 13-13 14 6 20 6 20h-10c-6 0-11-6-12-12v-13l-7 15c-4 8-15 27-25 42l-19 27 8 12 7 12-11-7-12-7v9c0 5-8 12-17 15-10 2-27 8-37 13l-19 7 7-11 7-12h-20c-11 0-31 4-45 10l-25 9-5-8c-3-5-17-8-31-8h-26l5 13 5 14h-9c-15 0-12-21 5-40l14-16-21-1c-12-1-28 3-35 9l-13 10-1-13v-14l-8 20c-5 11-6 24-3 29l5 8 6-11 7-10 11 18 12 19-50 4-49 3v-7zm287-64c-3-3-12-4-19-1l-13 5 19 1c11 1 17-2 13-5zm-37-25v-19h-10c-5 0-10 5-10 10 0 6-7 10-15 10-26 0-16 15 10 16l25 2v-19zm-143 5c-3-3-12-4-19-1l-13 5 19 1c11 1 17-2 13-5zm298-154 6-10h-10c-6 0-11 5-11 10 0 6 2 10 4 10 3 0 8-4 11-10zm-598 223c-4-3-7-17-7-30v-23h23l-6 7-7 6 10 11 9 12-8 12-7 12-7-7zm188-13-6-10h15c9 0 16 5 16 10 0 6-4 10-9 10-6 0-13-4-16-10zm792-6c6-15 23-19 23-5 0 5-7 11-14 14l-15 6 6-15zm35-9-11-24 9-6 10-6 5 15c3 9 7 23 10 31l4 15h-8c-4 0-13-11-19-25zm-437-15c2-14 5-32 5-40l1-15 10 19 11 18-9 7c-6 3-13 13-17 21l-6 15 5-25zm1485 10c0-5 5-10 11-10h10l-6 10c-3 6-8 10-11 10-2 0-4-4-4-10zm465-10c3-5 8-10 11-10 2 0 4 5 4 10 0 6-5 10-11 10h-10l6-10zm75-13v-17h35l-10 8c-5 4-13 11-17 16l-8 9v-16zm-1950-7v-10h-43l16-17 15-18 5-50c3-27 9-61 13-74l7-24-17-9c-9-5-16-16-16-23v-15h-23l6-7 7-6 21 19 22 19 4-12 4-12 15 6c23 9 16-6-20-45l-35-36 9-17 9-16-18-17-18-16-19 25c-20 26-44 33-44 13v-12l-15 21-16 22-14-5-14-6-15 14c-9 7-21 18-28 23l-13 11-25-14-25-13 28 4 27 4v-37l-17 4c-10 2-28 7-40 11l-23 7v13c0 7 7 16 16 19l15 6-6 10-6 10h10c17 0 13 27-5 34-9 4-19 4-22 1s0-5 6-5c7 0 12-4 12-10v-9l-15 5-15 6v-11c0-6 5-11 12-11h11l-6-7c-4-3-18-7-31-9l-25-3 6 16 6 16-12-8-13-8 7 23 7 23-33-34-33-34 7 18 6 17h-40l6-10 6-10h-14c-8 0-22-9-32-20l-19-21 17 7 17 6v-18l1-19 14 19 15 20v-84h-22l11-13c6-8 8-16 6-19-3-3-1-17 4-32l11-26h58l57 62 57 63-8-30c-4-16-7-35-7-42s-5-13-11-13h-11l15-10 15-10h-36l5-8 5-9 293-1 293-2 50-17 50-18 43-42 42-42 1 17c1 9 2 35 3 57l2 40 124 3 125 3 9 9 10 10h-25l6 10 6 10-15-6c-8-3-20-3-26 1l-11 7 10 12 11 13-14 18-14 19-17-14-18-15-21 4c-12 1-23 6-26 10-15 20-91 71-114 77l-26 6 6 9 5 9h-40l-17 17c-9 10-22 18-28 18-12 0-97 55-107 69l-7 9-10-7-11-6-6 20-6 20h-15c-8 0-14 5-14 11v10l10-6 10-6v9c0 5 9 12 21 15l21 6-7 11-7 12-9-13-9-14-11 15-11 15-5-12-5-13h-50l12-15 12-15h-8c-15 1-44 26-44 39v11h-14c-8 0-18-5-21-10l-6-10-10 5-9 6v-24l-31 32-30 32 1-18c1-10 2-25 1-33l-2-15-13 38-14 38 5 19c3 11 3 20-1 20-3 0-6-4-6-10zm84-125 5-15h-9c-6 0-10 7-10 15s2 15 4 15 6-7 10-15zm-434-129c0-3-4-8-10-11l-10-6v10c0 6 5 11 10 11 6 0 10-2 10-4zm50-42c0-8-4-14-10-14-5 0-10 5-10 11v11l-15-5-14-6-6 9-5 9 22 3c29 5 38 1 38-18zm313-19c-3-9-8-14-10-11-3 3-2 9 2 15 9 16 15 13 8-4zm507-60v-10l-10 15c-5 8-10 20-10 25v10l10-15c5-8 10-19 10-25zm-817 0c-3-9-8-14-10-11-3 3-2 9 2 15 9 16 15 13 8-4zm241-6 18-21-14 5-13 4-17-15-18-15v12c0 12 18 51 23 51 1 0 11-10 21-21zm2054 374c7-3 16-2 19 1 4 3-2 6-13 5l-19-1 13-5zm-2668-19v-15l10 6 10 6-5 10c-9 14-15 11-15-7zm863-7 7-18-17 3-17 3-3-20-3-20 6 13c7 14 34 16 34 2 0-5 5-10 11-10h10l-6 10-6 10 33 1 33 2-30 4-30 4-14 17-14 17 6-18zm45-4c7-3 16-2 19 1 4 3-2 6-13 5l-19-1 13-5zm127-11c2-12 6-26 9-31l6-9-27-11-28-11 28 4 27 3 6-8 5-9h-51v-29l16 6 17 6 14-19 15-19-6 22-7 22 18 10 18 10-12 1h-12l5 15 6 15h-11c-6 0-11 5-11 10v10l19-12c11-7 19-14 19-17 0-4 0-13 1-21l2-15 14 25 14 25 1-14c0-8 2-12 5-9s3 13-1 22l-6 17-19-6-19-6v21h-18c-10 0-23 5-30 12l-12 12 5-22zm1369-4-7-11 16 6 17 6v-16l28 5 27 6-25 7c-38 11-48 10-56-3zm-45-3c-3-2-21-5-41-7l-37-2 5-8 5-8h-13c-8 0-20 6-27 13l-14 12 7-12 6-12-37-3-37-3-8-30-8-30 20-17c11-9 20-21 20-28v-11l10 6 10 6 17-11 18-12-17 6-18 5v-8c0-4 13-22 29-40l29-32 5 13 5 13 2-15c0-8 10-26 20-39l20-23 17 6 18 6-16-12-16-13 28-29c15-17 26-33 23-38l-5-8 15 6 16 6v-30l-16-6c-9-3-28-7-42-7l-27-1 30-8 30-8h-25c-14 0-34 3-45 8l-20 9 15 1 15 1-31 13c-18 8-34 18-38 24l-6 10 40-10 40-10 15 6c21 8 19 27-5 33l-20 5 5 8c3 4-7 20-22 36s-42 49-61 74-43 51-54 58l-19 14-14-18c-8-11-15-22-15-26 0-5-6-8-14-8s-16-7-20-15c-7-20-25-19-33 1l-6 15 22 15 21 15v79h-11c-6 0-25-15-43-33-17-18-37-33-43-33-29-2-33-5-33-21v-17l-11 11-10 10-25-5c-25-5-40-19-30-29 3-3 12 0 21 7l15 12v-22h38l5-13c3-7 4-27 2-45l-3-32h8c4 0 13 7 20 15l12 15h-11c-6 0-11 3-11 8 0 4 16 7 35 7s35-3 35-7c0-5-9-8-19-8h-19l-6-16c-9-22-8-24 10-24h15l-4-7-5-8 31-2 30-2 8-12 7-12 10 7c5 3 30 3 55 0l45-7-11-12-12-13-5 8-5 8-63-2-63-3 13 9 13 8-47-4-48-4 6 9 5 9h-28v-30l21-1h21l-20-9-20-9h14l13-1-12-15-12-15h15c8 0 18 6 20 13l5 12 1-12c1-6-4-15-9-18l-10-6 16-16 16-17 10 17c5 9 14 17 20 17h10l-12-15-12-15h24l-6-15-5-15h30l5 15 6 15h33l13 20c7 11 17 20 23 20h10l-15-16c-19-18-20-30-6-39l11-7-12-14-11-14h33l-6-10-6-10h9c6 0 12 6 15 14l6 15-12 4-12 5 12 12 12 13 15-15c8-9 13-18 10-21-3-2 7-4 21-4s28 3 31 8 16 9 30 9h25l-6-10-6-10h80l-5 15-6 15h42l-11 19-12 18-21-4-21-4 19 15c11 9 26 16 33 16h13v14c0 8-3 16-7 19-5 2-1 2 7-1s41-9 73-13l59-9 10 6 10 7 7-12 8-12 114-14c63-8 124-17 137-20l22-5v220h-111l5 8 5 9 33-3 33-3-20 5c-11 3-27 8-35 11s-28 7-44 9-36 10-43 16l-15 12-34-2-34-3v19l-21-5-20-6-35 19-34 19-6 17-5 18-10-5-9-6v21h-70l10 26c13 33 13 37-2 32l-13-5-13 14c-14 13-25 16-33 8zm-14-25 6-10h-10c-6 0-11 5-11 10 0 6 2 10 4 10 3 0 8-4 11-10zm-55-70c0-5-2-10-4-10-3 0-8 5-11 10l-6 10h10c6 0 11-4 11-10zm-115-120c-3-5-12-10-18-10h-12l15 10c19 12 23 12 15 0zm-125-10c0-5-4-10-10-10-5 0-10 5-10 10 0 6 5 10 10 10 6 0 10-4 10-10zm240-70c0-5-2-10-4-10-3 0-8 5-11 10l-6 10h10c6 0 11-4 11-10zm105-8c-3-3-11 0-18 7l-12 12 18-7c10-3 15-9 12-12zm-252-59c-7-2-19-2-25 0l-13 5h50l-12-5zm124-29c-3-3-12-4-19-1l-13 5 19 1c11 1 17-2 13-5zm410 0c-3-3-12-4-19-1l-13 5 19 1c11 1 17-2 13-5zm-408-37c-2-1-12-9-22-16l-17-14 6 17 6 16h16c8 0 13-1 11-3zm128-23c-3-3-12-4-19-1l-13 5 19 1c11 1 17-2 13-5zm331 449c7-3 16-2 19 1 4 3-2 6-13 5l-19-1 13-5zm-1577-19 1-19 5 13c3 7 2 16-1 19-3 4-6-2-5-13zm1037 9c7-3 16-2 19 1 4 3-2 6-13 5l-19-1 13-5zm305 1c4-5 20-9 35-11 62-7 161-37 227-68 39-18 82-35 98-38l27-4v9c0 10-100 57-150 70-37 10-138 31-205 43l-40 7 8-8zm-1278-15c-4-6-5-12-2-15 2-3 7 2 10 11 7 17 1 20-8 4zm1613 4c6-2 18-2 25 0l12 5h-50l13-5zm-1664-25c-7-23 0-33 15-23l11 6-5 10-6 9h10c6 0 11 4 11 8 0 5-7 9-15 9h-15l-6-19zm77 10c-1-10-6-18-11-18h-10l11-18 12-19h57l-16 18-15 17 13 5 13 5-22 1-21 1-5 13-5 12-1-17zm19-28c0-5-5-10-11-10h-10l6 10c3 6 8 10 11 10 2 0 4-4 4-10zm1176 33c-9-9-7-33 3-33 5 0 11 7 14 15l6 14-8 5c-5 3-11 3-15-1zm-2056-28c0-8 4-15 10-15h9l-5-15-6-15h23l-6-10-6-10h29l-5 21-6 21 14 9 14 9h-35v10c0 6-7 10-15 10h-15v-15zm570-5-11-20h11c5 0 10 5 10 10 0 6 7 10 16 10h15l-6 10c-10 16-23 12-35-10zm350 5c0-8 2-15 4-15s6 7 10 15l5 15h-9c-6 0-10-7-10-15zm36-17 5-8 10 5c13 9 11 12-6 12h-14l5-9zm-1071-18-6-10h10c6 0 11 5 11 10 0 6-2 10-4 10-3 0-8-4-11-10zm235 0c0-5 5-10 10-10 6 0 10 5 10 10 0 6-4 10-10 10-5 0-10-4-10-10zm872 4c9-3 19-13 22-22l5-17-2 20-2 20-20 2-20 2 17-5zm-1042-19v-16l10 6 10 6v-15c0-8 4-17 9-21l10-5-3 27-3 28-17 3-16 3v-16zm-315-15-6-10h10c6 0 11 5 11 10 0 6-2 10-4 10-3 0-8-4-11-10zm485-27c0-7-5-13-12-13-6 0-9-3-6-6 8-7 48 14 48 25 0 4-7 8-15 8h-15v-14zm886 2 6-15 9 6c14 8 10 24-6 24h-14l5-15zm729-5-18-20h9c5 0 15 9 22 20s11 20 9 20-12-9-22-20zm719 5 28-17 9 9 9 9h-18c-9 1-26 4-37 8l-20 7 29-16zm-1424-24c0-6 4-13 10-16l10-6-6 15c-7 18-14 21-14 7zm-230-21c0-5 5-10 10-10 6 0 10 5 10 10 0 6-4 10-10 10-5 0-10-4-10-10zm-653-30c3-11 7-20 9-20s4 9 4 20-4 20-9 20h-9l5-20zm53 11c0-5 5-11 11-13l12-4-17-17-17-17 28 1c15 0 23 3 17 5l-11 5 5 24 4 25h-16c-9 0-16-4-16-9zm40-2v-10l10 6c6 3 10 8 10 11 0 2-4 4-10 4-5 0-10-5-10-11zm801-5 1-19 5 13c3 7 2 16-1 19-3 4-6-2-5-13zm-790-30 1-19 5 13c3 7 2 16-1 19-3 4-6-2-5-13zm790-13-13-8 10-7 10-6 6 15c6 17 6 18-13 6zm459-20c0-7 6-14 14-17l15-6 18 11 18 10-17 1c-9 0-23 3-32 6l-16 6v-11zm48-68c7-3 16-2 19 1 4 3-2 6-13 5l-19-1 13-5zm523-93 11-30 9 5 8 6 28-32c15-18 36-41 46-51 9-10 17-20 17-23 0-5 50-55 55-55 3 0 5 7 5 15v15h35l-15-10-15-10h26l-5-9-6-8 22-19 21-19-6 18-6 17h19v-59l13-8c8-4 19-17 24-27l11-20 21-1 22-2-5 13-5 12 34-14c19-8 41-14 50-14h15v38l-12 5-13 5 13 1 12 1v90h-25l10 8 10 7 3 43 2 42-17 1c-39 2-63 6-70 12l-6 7h43v10c0 6-3 10-7 11-5 1-25 3-46 4l-37 4 5-8 5-9-43 10c-23 6-53 12-67 14l-25 3-7-12-8-12-15 19-14 19-37 2-38 2 24-19 23-19-7-6-7-7-30 37-30 37h-28l10-30zm324-40 6-10h-10c-6 0-11 5-11 10 0 6 2 10 4 10 3 0 8-4 11-10zm-120-62 20-8-27 5-26 5-4-10-3-10-18 20-17 20 27-6c16-4 37-11 48-16zm215-8c0-5-7-10-16-10h-15l6 10c3 6 10 10 16 10 5 0 9-4 9-10zm-125-20 30-8-36 1-35 1-14 15-14 15 19-8c11-5 34-12 50-16zm95-20h14l-12-12-11-11-14 11c-8 7-16 9-19 6s-9 0-14 7l-7 12 24-6c13-4 31-7 39-7zm-115-50 6-10h-10c-6 0-11 5-11 10 0 6 2 10 4 10 3 0 8-4 11-10zm140 0 6-10h-32l6 10c3 6 8 10 10 10s7-4 10-10zm-72-67c-7-2-19-2-25 0l-13 5h50l-12-5zM696 2191c5-4 30-22 56-38l46-31 10 10 11 11-6-21-5-22 20-7c12-5 20-11 19-14s7-18 18-32l19-26 15 12 14 12-12-22-12-23h21v-41l13 7 12 7-11-12-11-12 12-37 13-37 29-1 28-1 23 22 23 23-13 5-13 5 24 1 24 1 18 22 19 21v-31l-41-36-42-36h13c8 0 23 8 34 18l21 17-13-16-13-17 48-7 48-7 42-24 42-24 14 20c7 11 16 17 19 14s9 8 13 23c8 29 9 54 7 141l-2 52-22-3c-13-2-17-2-10 0l12 4v40l-26 24c-14 13-47 35-73 47l-46 23-219 2-218 1 8-7zm184-32c-7-11-14-18-17-15-8 8 5 36 17 36h11l-11-21zm205-9c-3-5-12-10-18-10h-12l15 10c19 12 23 12 15 0zm8-49-17-3 25-14 24-13-16-1h-17l-6-15-5-15h-31v-25l-33-2-32-2 14 8 13 9-11 6c-6 4-11 12-11 17v10l16-15c20-21 28-20 20 0l-6 17 13-11 14-12 6 7c4 3 7 14 7 23s8 26 17 37l18 22 7-12 7-12-16-4zm122 6-15-24 7-6 6-7h-13c-7 0-11-3-7-6 6-6-36-78-60-102l-13-13v18c0 10 7 29 16 41 8 12 12 22 7 22h-8l10 8c6 4 23 26 39 50 16 23 33 42 38 42h8l-15-23zm-263-23-9-17-8 13-8 12 14 9c18 11 23 4 11-17zm95 11c0-8-4-15-9-15-4 0-8 7-8 15s4 15 8 15c5 0 9-7 9-15zm-89-95c-7-10-14-18-15-16-6 6 9 36 18 36h9l-12-20zm22-10c0-5-5-10-11-10h-10l6 10c3 6 8 10 11 10 2 0 4-4 4-10zm179-47c-6-10-26-29-43-42l-31-25 40 42c42 45 52 52 34 25zm1659 230c7-3 16-2 19 1 4 3-2 6-13 5l-19-1 13-5zm-738-14v-10l10 6c6 3 10 8 10 11 0 2-4 4-10 4-5 0-10-5-10-11zm895-29c3-5 10-10 16-10 5 0 9 5 9 10 0 6-7 10-16 10h-15l6-10zm-619-7c-20-5-85-71-86-85 0-13 12-9 32 9l18 16v-11c0-7 5-12 11-12h10l-6 10-6 10h23l-12 15-12 15h37l-15 10-15 10h45v10c0 6-1 9-2 9-2-1-12-4-22-6zm79-13 6-10 10 5c14 9 11 15-7 15h-15l6-10zm-25-21v-10l10 6c6 3 10 8 10 11 0 2-4 4-10 4-5 0-10-5-10-11zm361-126c7-12 15-20 18-17 3 2-3 12-13 22l-18 17 13-22zm-2451-80c0-12-4-25-10-28-12-7-13-41-2-48 4-2 1-2-5-1-14 4-14 3-18-34l-2-23 13 5 13 5-6-16-6-15 13-8c7-5 19-6 26-3l13 5-2 79-2 78-13 13-12 12v-21zm2195-33-18-20h11c6 0 19 8 28 18l18 17-7-17-6-18h40l-11 20c-6 11-17 20-24 20s-21-9-31-20zm459 1 6-9h-40c-22 0-44-3-50-7l-9-6 6-17c7-22 49-62 63-62h11l-6-10-6-10h22l-2 13c-1 6-1 18 0 26l1 15 15-20 15-19-2 58-2 57h-27l5-9zm-2-36c11-15 10-25-3-25h-10l7 12 7 11-14-5-14-5-12 13-13 13 23-2c12 0 25-6 29-12zm-2018 28 7-13h-10c-6 0-11-5-11-11v-10l9 5 9 6v-25c0-14-4-28-9-31l-9-5v-139h65l25 20c14 11 31 20 38 20s20 7 28 15l15 14 16-6 16-6-7 11-7 12h32l-5 9-6 9 32 31c17 17 36 31 41 31h10l-18 20-18 20-50 15-51 15H989l3-17 3-18h-30v12c0 6-4 15-9 20l-9 8 7-12zm1564-30c7-3 16-2 19 1 4 3-2 6-13 5l-19-1 13-5zm-612-55 7-11-16 6-17 6v-36h18c9 0 20 5 24 11l8 11v-25h39l18-30c9-16 20-30 24-30s15-3 24-6l16-6-2 8c-1 5-1 13 0 18l1 9 20-18c20-18 27-45 12-45-4 0-13 5-20 12l-12 12v-11c0-6 18-26 41-43l40-33-5-13-5-14h34l-13-9c-8-4-13-11-13-15 1-3 1-13 1-21v-15h-31l11-20 11-20h-9c-5 0-16 25-26 56l-17 55-15-12-15-12 6 24 6 25-15 13c-9 8-16 19-16 26 0 12-31 45-44 45h-7l2-80 2-80h11l11-1-18-13c-20-15-20-24-1-44l13-13-8-22-9-22-17 3-18 4 6-21 5-21h-7c-4 0-8-16-9-35l-1-35 7 1c18 3 32-2 32-12v-10l-22 7c-13 4-31 7-40 6l-18-1-2 12c-2 7-5-141-8-328l-5-340-23-3-23-4-33-51c-18-29-36-62-40-74-4-13-11-23-15-23s-8-14-9-30c0-17-3-39-7-49l-6-19-25-5-26-5-29 15-28 14 12 22c7 12 18 30 26 40l15 18-17-7-17-6 5 15 6 14-20 6-21 5-5-9c-3-4-8-50-10-101-3-51-7-106-9-121-5-35 18-204 30-216 2-2-1-10-7-18l-11-13h9c6 0 18 18 28 40s26 47 35 55l18 16 16-55 17-56h449v10c0 6-5 10-12 10h-11l17 19 17 19-10 7-11 6V39l-10 6-10 6-1-13V25l-10 24c-5 13-7 26-4 29 2 3-2 10-10 16-7 6-17 23-20 37l-6 26 30-1 31-1v-21h37v13c0 7-3 10-7 8-3-2-12 0-20 5l-15 9 25 10c14 5 22 11 18 12-5 1-12 3-18 4-5 1-14 3-20 4-5 0-10 8-10 16v15l13 1c6 1 15 1 20 0 4-1 2 8-5 18l-12 20 17 19c9 10 15 21 12 24-8 7 37 98 48 98h8l-6 10-6 10h22l-6 10-6 10h10c6 0 11 7 11 15v15h12c6 0 9 3 5 6-3 4 1 13 9 21l14 15-5 9-6 9h22l-5 9c-4 5-1 20 4 33l10 23-5-26-5-27 20-5 20-5 6 10 6 9 31-2c18-2 37-7 43-11 7-5 46-11 89-13 42-3 81-8 87-11l11-7-7 12-8 12 6 24 6 24 15-5 15-6v-30l13 5c8 3 20 1 28-3l13-9-6-7c-4-3-22-10-40-15l-33-8 35 4c41 4 111 22 93 24l-13 1v35l10-15 10-15 10 15 10 15v-26l10 6 10 6-5 10-6 9h9c21 0 20-14-3-45-14-17-25-35-25-39s-23-46-51-94c-29-48-60-112-70-141-11-30-26-65-34-78l-15-23h9c6 0 15 8 20 18l11 17 10-15 10-15v10c0 6-6 17-12 24l-13 13 22-6 21-7 8 12 7 12-11-7-12-7v13c0 7 7 22 15 32 8 11 15 26 15 34 0 17 107 234 153 309l32 52 13 1h12v-15c0-8-5-15-11-15h-10l6-10 6-10h-10c-6 0-11-6-11-14s-6-16-12-19c-7-2 2-4 19-5 38-1 53-8 52-25l-1-12-5 13c-7 18-20 15-26-8l-5-20h-53l-15-14-14-15 9-5 9-6 14 13 14 14 30-4 31-5 14 15 15 14 13-14c17-18 28-8 12 11-7 8-11 20-10 28 1 7 1 21 0 31l-1 18-10-6-9-6 5-17 6-17-11 17-11 16 6 15 5 14h25l24 1v-9c0-5-5-9-11-9h-11l13-16 13-16-10-6c-13-10-14-26 0-38l12-11v75l1 75-17-20-16-20v67l10-10c6-5 14-10 18-10h8v102l-15-12c-24-20-27-6-5 18l20 21-2 139-2 139-17-4-18-5 6-14c3-8 9-14 14-14s9-5 9-11v-11l-13 11-13 11-12-12-12-12v11c0 6 6 14 13 16l12 5-35 1c-20 1-41 6-48 11-6 6-10 7-7 4 2-4-3-13-11-21l-15-15 7-7 7-6 4 13c3 6 9 12 15 12h10l-6-16-6-15 9 6 10 5 6-10 6-10h-32l6-10 6-10h-10c-6 0-10-3-10-7 3-20-2-31-18-38l-18-6 13 12c6 7 12 19 12 26v13h-90v13c0 6-13 22-28 34-45 36-108 97-92 89 8-4 4 1-10 11-38 28-125 115-142 143-16 26-115 137-178 200l-35 35-3-240-2-240 10-3 10-4-7-11c-4-7 7 2 23 19s50 42 74 55l45 23 64 2 63 1 44-24 44-25 35-41c20-23 38-52 41-64 4-13 9-23 13-23h7l-2-52c-2-29-9-72-15-95l-12-43-43-44-43-44 7-8 7-7-16 6-17 5-10-10-11-11-51-4-50-4-60 15-60 15-36 38c-20 21-45 58-56 82l-20 43v51c1 28-1 54-4 58l-5 8-22-8-23-9-22 18-22 18-3 61-3 61 7-11 6-11 5 33 6 34-9 3c-15 6-10 22 6 22 8 0 15 4 15 8 0 12 43 12 57 0l13-11-1 123-1 122-23-4-23-5-5 19-5 18h9c5 0 9-4 9-10v-10h40v29l-17 4-18 5 18 1 17 1v106l-11 11-11 11 11 21 12 21h-32l6-12c3-7-2-2-12 12s-34 42-54 64l-35 39h-55l4 11 5 11-50 25-49 24-19-12-19-12-16 6c-8 3-15 10-15 15s-5 9-11 9h-10l7-12zm232-168c12-11 26-20 32-20 5 0 10-4 10-10v-10l-27 11c-32 12-53 28-53 40 0 15 15 10 38-11zm52-94v-14l-20-5c-25-6-26 1-2 19 22 17 22 17 22 0zm-23-62c-3-3-12-4-19-1l-13 5 19 1c11 1 17-2 13-5zm-37-29-13-16 13-12 13-12-6 18-6 17h9c11 0 12-2 14-47l2-32-6 4-7 4v-37c-1-20-2-48-3-62l-3-25-7 70c-4 39-10 87-15 108l-7 37h34l-12-15zm87 9c-3-3-12-4-19-1l-13 5 19 1c11 1 17-2 13-5zm13-94c0-5-2-10-4-10-3 0-8 5-11 10l-6 10h10c6 0 11-4 11-10zm-83-172-5-13v50l5-12c2-7 2-19 0-25zm0-65-5-18v70l5-17c2-10 2-26 0-35zm807-159 6-15-10 6c-6 3-10 10-10 16 0 14 7 11 14-7zm36-84c0-5-5-10-11-10h-10l6 10c3 6 8 10 11 10 2 0 4-4 4-10zm-87-107c-7-2-19-2-25 0l-13 5h50l-12-5zm47-33c0-5-4-10-10-10-5 0-10 5-10 10 0 6 5 10 10 10 6 0 10-4 10-10zm-20-20c0-9-31-23-37-16-3 3 1 11 8 19 14 15 29 13 29-3zm-613-62-5-13-1 19c-1 11 2 17 5 13 3-3 4-12 1-19zm174-26c-7-2-18 1-23 6l-11 11 24-6 23-7-13-4zm179 8v-10h-35l15 10c19 12 20 12 20 0zm30-30v-9l-15 5c-8 4-15 8-15 10s7 4 15 4 15-4 15-10zm-564-395c-22-17-36-19-36-7 0 14 12 22 34 22l21-1-19-14zm-5 1169 1-19 5 13c3 7 2 16-1 19-3 4-6-2-5-13zm633 384-19-21 20 8c11 4 28 8 38 9 22 0 21 3-2 15l-18 10-19-21zm-878-33c-9-26-7-32 5-12 6 10 9 21 6 23-2 3-7-2-11-11zm59 5-6-10h10c5 0 13 5 16 10l6 10h-10c-5 0-13-4-16-10zm-1620-10c3-5 8-10 11-10 2 0 4 5 4 10 0 6-5 10-11 10h-10l6-10zm1585-9c0-5 5-13 10-16l10-6v10c0 5-4 13-10 16l-10 6v-10zm-1590-19c0-6 6-13 13-16l12-5-15 2-15 2-23-23c-23-23-29-42-13-42 5 0 12-7 15-16l6-15-9 6-10 5-6-10-6-10-11 6-11 7 7-11 6-11-10-6-10-6v10c0 6-5 11-12 11s-23 12-36 28l-24 27 5-16 6-17-22-20c-12-10-31-25-42-31l-20-12 35 7 35 7-13-15-12-15 27 5 28 5-10-11c-5-5-19-12-30-15l-20-5 29-1 30-1-20-15c-10-8-26-15-34-15h-15l-12 20-13 19 18-5 17-6-15 11c-8 6-25 11-38 11H59l-20-19-21-19 6-11 7-11-16 6-16 7 2-44c1-24 6-52 11-61l8-16-13-5-12-5 13-1 13-1-8-12c-4-7-9-23-11-35l-3-23h23l-12-15-12-15h57l-15-10-15-10h56l-6 10-6 10h50l-6 17-6 16 17-6 18-7-6 15-6 16 13-2c6-1 24-1 39 0l27 1-5 25-4 24 14-5 13-5 14 14c8 8 21 17 29 20l15 7-28-4-27-3-6 8-5 9h81l-12 20c-7 11-17 20-21 20h-9l6-15 5-15h-27l5 20 5 20h17c9 0 22 5 29 12l12 12v-24h41l-3 137-3 136-12 5-13 4v-10zm-90-141c0-4-11-7-25-7s-25 3-25 7c0 3 11 7 25 7s25-4 25-7zm-57-258c-13-2-35-2-50 0l-28 4h100l-22-4zm62 387 6-10 10 5c14 9 11 15-7 15h-15l6-10zm2184-37-14-18 18 14c16 13 21 21 13 21-2 0-10-8-17-17zm-139-4v-10l10 6c6 3 10 8 10 11 0 2-4 4-10 4-5 0-10-5-10-11zM320 1289c-14-11-38-30-53-42-28-21-53-43-167-144-31-27-66-56-80-66l-24-17 7-6 6-7 52 47c28 25 55 46 60 46 17 0 9-15-20-35-15-11-44-34-63-51L3 983l-1-28v-27l9 13c4 7 6 16 3 21-2 4 5 12 16 18 12 6 47 34 78 61 54 46 71 61 132 110 14 11 44 38 68 60l42 40v30c0 34 2 34-30 8zm-28-51-12-12v10c0 14 12 26 19 19 2-3-1-11-7-17zm-264-75c12-2 32-2 45 0l22 4H5l23-4zm-24-24-7-11 14-9c8-5 19-9 24-9 6 1 2 5-8 11l-17 10 5 10c4 5 4 9 1 9s-8-5-12-11zm2192-33c3-9 11-16 16-16h10l-4 12c-2 6-10 14-16 16l-12 4 6-16zm749-26c3-5 8-10 11-10 2 0 4 5 4 10 0 6-5 10-11 10h-10l6-10zm-37-27c6-2 18-2 25 0l12 5h-50l13-5zm-70-70c6-2 18-2 25 0l12 5h-50l13-5zM1439 703c-1-4-2-22-3-40l-2-32 8 5c4 3 8 0 8-5 0-6-4-11-10-11-5 0-10-7-10-15s5-15 10-15h11l-13-14-13-14-7 27-7 26 3-57 3-58h-19c-10 0-18 4-18 8v9l-92-4-92-3-10-10-9-9 12-15 12-14 111-1c62-1 113-3 114-4s4-60 8-132c3-72 9-174 12-227l7-98h57l1 38c1 20 0 102-1 182-2 80-4 165-4 190l-1 45 36 3 37 3 17 20c10 10 23 19 29 19h11l-13-9-14-8 37-7 38-7 10 10 11 11h-35l6 10 6 9 14-6 15-5v26l12-12c19-19 34-14 47 15l12 26-13 8-13 9h50l-15 10-15 10h18c9 0 17 4 17 10v9l-45-2c-44-2-55-9-35-22 6-3 10-11 10-17v-10l-31 6-31 6-30-31-31-30-56 7-56 8 25 6 24 6 3 57 2 57h-11c-6 0-20 8-30 17l-19 17-9-14-8-13-4 24-3 24-17 3-18 3-1-8zm61-98c0-13-3-26-7-28l-8-5v66l8-5c4-2 7-15 7-28zm245-85 6-10h-10c-6 0-11 5-11 10 0 6 2 10 4 10 3 0 8-4 11-10zm-145 95c0-8 4-16 9-19l9-6 11 14 11 14-20 5-20 5v-13zm48-22c-8-10-18-24-22-30l-7-13 28 10c15 6 34 18 41 27l12 17v-34h30l-17 20c-21 25-45 26-65 3zM1 404l-2-181 35-27c19-14 37-26 40-26 12 0 5 28-9 40l-15 12v48h46l29-30 28-29 9 5 8 5-1-8c-1-4-1-12 0-18 2-15 101-119 143-150l38-27-6-9-5-9h151v60h-33l6 6 7 7-22 18c-11 11-25 19-29 19s-49 40-98 89l-91 90v38l-24 28c-14 16-23 32-20 37 3 4 1 8-5 8-5 0-13 9-16 20l-6 20h-39v49l-12 7-11 7 6-17 7-17-10 6c-6 3-10 14-10 24v19l-35 26-35 27-1-18-1-18-7 25-8 25-2-181zm34 117-6-19 27-21c15-12 22-21 17-21s-19 11-32 23l-22 24 7 16c9 23 17 21 9-2zm73-217c18-8 32-17 32-20 0-5-71 24-79 31-10 11 18 4 47-11zm67-42c-3-3-11 0-18 7l-12 12 18-7c10-3 15-9 12-12zm32-18c-3-3-12-4-19-1l-13 5 19 1c11 1 17-2 13-5zm39-36c15-13 32-28 38-33 6-6 27-21 46-35 19-13 50-36 68-52l33-28h-15c-8 0-16 3-18 8-1 4-42 38-90 75-81 63-107 87-94 87 3 0 18-10 32-22zm444 361v-10l11 7 11 7 7-11 6-10 13 14 13 14h-61v-11zm896 2c-8-12 3-41 15-41s12 37 0 45l-10 5-5-9zm1284-32v-10l10 6c6 3 10 8 10 11 0 2-4 4-10 4-5 0-10-5-10-11zM795 520l-6-10 63 1 63 1-40 9c-55 11-73 11-80-1zm60-30-6-10-47-1-47-1 34-10 33-9 17 7c19 9 58 13 131 13h55l9-9c6-6 16-10 23-10h13v14c0 20-18 24-118 25l-91 1-6-10zm248 3c-7-2-13-9-13-14 0-6 6-9 13-8 6 1 20-1 30-6 22-9 29-3 21 19l-6 16-17-1c-9 0-22-3-28-6zm-860-17c-102-8-142-18-95-24 60-7 91-11 122-13 50-3 398 10 443 17l37 6-5 9-6 8-31-6-31-6 6 10 6 10-167-1c-92-1-218-5-279-10zm2547-11c7-8 17-15 22-15h9l-15 15c-8 8-18 15-22 15-3 0-1-7 6-15zm-1674-80-5-15h8c5 0 11 7 15 15l5 15h-8c-5 0-11-7-15-15zm14-22-32-38 6 20 6 20-25-29-26-28 7-7 7-6 4 13c3 6 9 12 14 12h10l-6-10-6-10h10c6 0 11 5 11 11s7 17 15 25l15 15 10-6 10-6-7 18-7 18 17-14 17-13v10c0 6-5 14-10 17l-10 6 5 10c13 21-4 7-35-28zm74 4c-12-12-32-41-44-64-22-41-40-55-40-33 0 6-5 10-11 10h-10l6-10 6-10h-15c-9 0-16 5-16 10 0 6-5 10-12 10h-11l6-7 7-6-17-19-16-18h23l-3-12-2-13 18 3 17 3 6-30 6-31 9 5 8 5-6-37c-6-42-20-64-37-62-6 1-26 1-45 0l-34-1 15-17c9-10 14-23 11-29l-4-12 213-1 213-1-12 7c-6 5-15 21-19 37-3 15-17 47-29 70-12 22-25 55-29 71l-7 30-26 27c-14 15-29 25-33 23-5-3-11 2-14 11l-6 15 10-6 10-6v72l-14 15c-17 16-30 19-21 4l6-10h-21v-35l-10 15-10 15 6 18c7 22 4 21-22-6zm41-127 6-10h-10c-6 0-11 5-11 10 0 6 2 10 4 10 3 0 8-4 11-10zm-25-15 12-15h-10c-5 0-12 7-16 15-3 8-4 15-2 15s9-7 16-15zm418 148c6-2 18-2 25 0l12 5h-50l13-5zm1162-3c0-5 5-10 11-10h10l-6 10c-3 6-8 10-11 10-2 0-4-4-4-10zm39-1-14-9h10c5 0-1-7-13-16l-22-15 5-9 5-8-16-6-15-6 6-9 6-10 13 5 13 5 1-31 1-30h-20l6-10 6-10h-10c-6 0-11-5-11-11v-11l15 6 15 5v-21l-25 4-24 5 5-8c3-5 16-9 30-9h24v9c0 5 11 12 25 15l24 6-5 14-5 14 23 1c13 0 42 1 66 1l42 1v89h-9c-5 0-11-7-13-16l-3-15-22 20c-12 12-26 21-31 21s-15 7-22 16c-8 8-21 19-30 24l-16 9-15-10zm5-54-6-15-9 6-9 5 5 10c4 5 10 9 15 9h9l-5-15zm2-62c7-10 14-21 14-25v-7l-15 6c-9 3-13 8-11 11 3 3 1 11-5 19-6 7-8 13-4 13s14-8 21-17zm109 102v-25h16c18 0 29 18 22 38-3 6-12 12-21 12h-17v-25zm-2715-9c0-7 7-19 15-26l15-12v10c0 18-12 42-21 42-5 0-9-6-9-14zm2491-35-14-9 16-22 15-21 7 10 6 11h-7c-3 0 0 8 7 18l14 17-19-15-20-15 7 18c7 20 7 20-12 8zm34-51-6-10h32l-6 10c-3 6-8 10-10 10s-7-4-10-10zm-55-15-12-15h8c5 0 15 4 23 9l13 9-10 6-10 6-12-15zm30-15-15-10h20l-15-10-15-9 18-18 17-17v12c0 7-6 12-12 12h-13l29 25 29 25h-14c-8 0-21-5-29-10zm-46-34 6-26h-21l6 10 6 10h-10c-6 0-11-7-11-15v-15h40v49l-11 7-12 7 7-27zM2 177l3-22 30-2 30-2-17 5-18 5v14c0 7-7 16-16 19l-15 6 3-23zm2598-42c0-8-9-24-19-34l-20-20-23 6-23 6 7-8 7-8-21-31c-12-17-27-34-33-39l-10-7 132 1 133 1-6 9c-3 5-15 10-27 10l-22 1 55 13c59 14 54 17-25 17l-50-1 30 9 30 8-32 1-32 1 5 14 5 13-16 7-16 6 6-10 6-10h-31l-1 13c-1 6-1 20 0 30 1 9 0 17-3 17s-6-7-6-15zm60-115V10h-35l15 10c19 12 20 12 20 0zm-14 122-7-12 15-6 16-6 1-22 1-21 5 18c2 9 9 17 14 17s9 7 9 16v16l-20-5-19-5-4 11-3 11-8-12zM66 125c4-8 10-15 15-15h8l-5 15c-4 8-10 15-15 15h-8l5-15zm2044-16V99l10 6c6 3 10 8 10 11 0 2-4 4-10 4-5 0-10-5-10-11zM45 70c3-5 8-10 11-10 2 0 4 5 4 10 0 6-5 10-11 10H39l6-10zm2300-1c-4-6-5-12-2-15 2-3 7 2 10 11 7 17 1 20-8 4zM0 41c0-5 5-13 10-16l10-6v10c0 5-4 13-10 16L0 51V41zM2823 3c9-2 25-2 35 0l17 5h-70l18-5z"/></g><g fill="#454c4f" transform="matrix(.1 0 0 -.1 0 300)"><path d="m730 2985-12-14 8-13c4-7 9-22 10-35l3-23-10-5-9-6 15-15 15-16-5-9-6-9 13-1c7-1 2-5-12-9l-25-8 18-1 18-1-5-9-6-9 15-12 16-13 54 12 55 12 1 12c0 7 5 1 10-12l10-24 11 11c7 7 20 12 30 12h18v20h80v-19l-17 5-18 6 18-12c9-6 17-15 17-19 0-11-67-19-81-10l-12 7-27-8-28-8-14 12c-7 6-3 1 10-11l23-23h44l-15-11-15-10 20 3 20 3-3-13-2-13 9 5 9 6 22-27 22-28-15 26-15 25 19 12 19 12v-15c0-20 19-19 27 1l6 15-12 12c-17 17-14 23 18 37l30 12 9-6 10-6 6 16 6 15-10 18c-5 10-7 21-4 24s1 14-6 24l-12 18 6-17 5-18h-9c-6 0-10 7-10 15s-4 15-10 15c-5 0-10 5-10 11v10l10-6 10-6v91l-12 1c-7 1-30 2-50 3l-38 1v-7c0-5 12-8 28-8h27l-15-9c-8-6-18-7-22-5-4 3-8 0-8-5v-11h-35l12 8 12 8-7 11c-4 6-23 14-43 18l-36 7-6-16-6-16h-31v-14c0-7 8-20 17-27l17-14-8 13-7 12h32l-6 10-6 10h10c5 0 13-5 17-11l7-11-13-8-12-7 11-7c18-12 13-24-16-34l-28-10 20-1 20-1 13-20 12-20h-9c-5 0-12 8-15 17l-7 17-8-13-8-13-7 11c-4 6-17 11-29 11h-22l15 10c18 11 8 23-14 14l-16-6 6-9 5-9h-8c-14 0-30 14-35 30l-5 15 20 11 19 11-21 6-21 5 4-7c3-4-4-7-15-7-24 0-24 4 1 26l20 18-6 16-6 16h-18c-10 0-23-7-30-15zm30-25c0-5-5-10-11-10h-10l6 10c3 6 8 10 11 10 2 0 4-4 4-10zm301-27 14-18-17 14c-10 7-18 15-18 17 0 8 8 3 21-13zm-71-20 13-28 4 13 5 13 14-12c8-6 14-16 14-21v-10l-12 4c-7 3-18 0-24-6l-11-11 5-15c3-8-11 6-31 32-21 26-37 50-37 53v7l15-6 15-5v9c0 20 17 9 30-17zm-210-34v-10l-10 6c-5 3-10 11-10 16v10l10-6c6-3 10-11 10-16zm15-29 6-10h-8c-4 0-15 5-23 10l-15 10h17c9 0 20-4 23-10zm260 1 5-10-8-5-9-5v14c0 17 3 19 12 6zm-199-28-3-18-26-3-27-3v21h19c11 0 23 5 26 10 9 15 14 12 11-7zm259-12c-6-5-25 10-25 20v10l14-13c8-7 12-15 11-17zm-328-7c-3-3-11-3-16 1l-11 6 6 11 6 10 11-11c6-6 8-13 4-17zm274-7-12-12 7 18c3 10 9 15 12 12s0-11-7-18zm-31-49v-8l-37 1c-21 0-47 4-58 9l-20 8 57-2 58-1v-7zm-40-28c0-5-2-10-4-10-3 0-8 5-11 10l-6 10h10c6 0 11-4 11-10zm-30 182c0-5 7-17 15-28l14-19 1 12c0 19-11 43-21 43-5 0-9-4-9-8zm-140 91c0-5 5-15 11-23l11-15 5 13c2 6 11 12 19 12s14 5 14 10v10h-30c-16 0-30-3-30-7zm1670-14 11-19h-11c-5 0-10 5-10 10 0 6-7 10-16 10h-15l6-10 6-10h-10c-6 0-11 5-11 10 0 6-5 10-11 10h-10l6-9 5-9-17-5-18-5 57-1 57-1 6-10c3-5 13-10 21-10h14l1 18 1 17 5-12 5-13h48v10c0 6 6 10 13 10h14l-2-30-2-30 33 2 33 2-5 8-5 8-10-5-9-6-1 13c-1 7-2 18-4 23-1 6-3 16-3 24l-2 13-14-5-15-6-11 14-12 14h-64l-64-1 10-19zM0 2955v-37l15 12 16 13-3 20c-2 11-9 22-15 25l-13 4v-37zm795 25c3-5 11-10 16-10h10l-6 10c-3 6-11 10-16 10h-10l6-10zm1583 2-18-3v-29h31l-5 9-6 9 12 5c18 6 6 14-14 9zm-1568-32-15-10h46l-6 10c-7 12-6 12-25 0zm1166-49-6-9 48-65c26-36 57-71 69-78 12-6 20-15 18-19s12-26 31-49l36-41 9 6 9 5v-27l30-17 30-18v33l-55 66c-30 36-62 81-71 101-33 69-129 143-148 112zm754-1-15-10h10c6 0 17 5 25 10l15 10h-10c-5 0-17-5-25-10zm54-18 7-22-28-1-28-2 40-6 40-7 17 16 16 15-16 13c-9 6-21 12-26 12h-11l15-10c8-5 12-12 8-15-3-3-13 2-23 12l-18 17 7-22zm66-22-21-29 28-6c15-4 39-11 53-17 14-7 28-12 32-12 4-1 13-7 20-13 6-7 18-13 25-13h13v29l-22 4-23 4 23 2 22 1v45l-18 12-19 11-13-8-12-8-27 14c-35 19-37 18-61-16zm103-8 26 5 6-15c7-20-2-29-17-14l-11 11-28-6c-31-6-33-4-23 22l7 17 7-13 8-12 25 5zm-1440-29c9-2 23-2 30 0l12 5h-60l18-5zm1247-13v-10l28 6c39 10 40 14 4 14h-32v-10zm-1464-25-5-15h9c6 0 10 7 10 15s-2 15-4 15-6-7-10-15zm1150 1 6-16h38v10c0 6-4 10-9 10s-17 3-25 6l-16 6 6-16zm-2236-5c0-5-8-12-17-14l-18-5 33-1 32-1v30h-15c-8 0-15-4-15-9zm1148-8c7-3 16-2 19 1 4 3-2 6-13 5l-19-1 13-5zm1167-7c17-7 66-20 110-30s94-23 110-28c17-6 46-12 65-14s69-10 110-18c41-7 77-12 79-10s-2 10-9 19l-13 15-31-1c-17-1-44 3-59 10-16 6-33 11-38 11h-10l5-9 6-9-21 5-21 6 12 7 12 8-73 5c-88 6-137 15-164 30-11 6-38 12-60 13l-40 3 30-13zm-2195-8c0-5 9-8 21-8h21l-6-15-5-15h9c6 0 10-6 10-13 0-8 9-22 20-32l20-18 25-2 25-1v26h40v-30h39l-5-15c-3-8-11-13-16-12-6 1-13-4-15-12l-5-13 22 7 23 7-6-21-5-21h29l-6 21-7 20 14-2c7-1 19-1 27 0l13 1-6 15-5 15h19v-60h-42l6-22c3-13 6-26 6-30 0-12 20-9 20 3 0 6 6 17 14 24l14 14 11-13c6-7 8-16 5-19-4-3-3-19 1-34l7-28 9 18c11 20 31 23 28 5-1-7-1-25 0-40l1-28 18 1 17 1-11 4-10 4 4 30 4 30 17-2 16-3v34l1 34-14 13-13 14 6 20 6 20h-10c-6 0-11-6-12-12v-13l-7 15c-4 8-15 27-25 42l-19 27 8 12 7 12-11-7-12-7v9c0 5-8 12-17 15-10 2-27 8-37 13l-19 7 7-11 7-12h-20c-11 0-31 4-45 10l-25 9-5-8c-3-5-17-8-31-8h-26l5 13 5 14h-9c-15 0-12-21 5-40l14-16-21-1c-12-1-28 3-35 9l-13 10-1-13v-14l-8 20c-5 11-6 24-3 29l5 8 6-11 7-10 11 18 12 19-50 4-49 3v-7zm287-64c-3-3-12-4-19-1l-13 5 19 1c11 1 17-2 13-5zm-37-25v-19h-10c-5 0-10 5-10 10 0 6-7 10-15 10-26 0-16 15 10 16l25 2v-19zm-143 5c-3-3-12-4-19-1l-13 5 19 1c11 1 17-2 13-5zm298-154 6-10h-10c-6 0-11 5-11 10 0 6 2 10 4 10 3 0 8-4 11-10zm-598 223c-4-3-7-17-7-30v-23h23l-6 7-7 6 10 11 9 12-8 12-7 12-7-7zm188-13-6-10h15c9 0 16 5 16 10 0 6-4 10-9 10-6 0-13-4-16-10zm792-6c6-15 23-19 23-5 0 5-7 11-14 14l-15 6 6-15zm35-9-11-24 9-6 10-6 5 15c3 9 7 23 10 31l4 15h-8c-4 0-13-11-19-25zm-437-15c2-14 5-32 5-40l1-15 10 19 11 18-9 7c-6 3-13 13-17 21l-6 15 5-25zm75-20v-10h-43l16-17 15-18 5-50c3-27 9-61 13-74l7-24-17-9c-9-5-16-16-16-23v-15h-23l6-7 7-6 21 19 22 19 4-12 4-12 15 6c23 9 16-6-20-45l-35-36 9-17 9-16-18-17-18-16-19 25c-20 26-44 33-44 13v-12l-15 21-16 22-14-5-14-6-15 14c-9 7-21 18-28 23l-13 11-25-14-25-13 28 4 27 4v-37l-17 4c-10 2-28 7-40 11l-23 7v13c0 7 7 16 16 19l15 6-6 10-6 10h10c17 0 13 27-5 34-9 4-19 4-22 1s0-5 6-5c7 0 12-4 12-10v-9l-15 5-15 6v-11c0-6 5-11 12-11h11l-6-7c-4-3-18-7-31-9l-25-3 6 16 6 16-12-8-13-8 7 23 7 23-33-34-33-34 7 18 6 17h-40l6-10 6-10h-14c-8 0-22-9-32-20l-19-21 17 7 17 6v-18l1-19 14 19 15 20v-84h-22l11-13c6-8 8-16 6-19-3-3-1-17 4-32l11-26h58l57 62 57 63-8-30c-4-16-7-35-7-42s-5-13-11-13h-11l15-10 15-10h-36l5-8 5-9 293-1 293-2 50-17 50-18 43-42 42-42 1 17c1 9 2 35 3 57l2 40 124 3 125 3 9 9 10 10h-25l6 10 6 10-15-6c-8-3-20-3-26 1l-11 7 10 12 11 13-14 18-14 19-17-14-18-15-21 4c-12 1-23 6-26 10-15 20-91 71-114 77l-26 6 6 9 5 9h-40l-17 17c-9 10-22 18-28 18-12 0-97 55-107 69l-7 9-10-7-11-6-6 20-6 20h-15c-8 0-14 5-14 11v10l10-6 10-6v9c0 5 9 12 21 15l21 6-7 11-7 12-9-13-9-14-11 15-11 15-5-12-5-13h-50l12-15 12-15h-8c-15 1-44 26-44 39v11h-14c-8 0-18-5-21-10l-6-10-10 5-9 6v-24l-31 32-30 32 1-18c1-10 2-25 1-33l-2-15-13 38-14 38 5 19c3 11 3 20-1 20-3 0-6-4-6-10zm84-125 5-15h-9c-6 0-10 7-10 15s2 15 4 15 6-7 10-15zm-434-129c0-3-4-8-10-11l-10-6v10c0 6 5 11 10 11 6 0 10-2 10-4zm50-42c0-8-4-14-10-14-5 0-10 5-10 11v11l-15-5-14-6-6 9-5 9 22 3c29 5 38 1 38-18zm313-19c-3-9-8-14-10-11-3 3-2 9 2 15 9 16 15 13 8-4zm507-60v-10l-10 15c-5 8-10 20-10 25v10l10-15c5-8 10-19 10-25zm-817 0c-3-9-8-14-10-11-3 3-2 9 2 15 9 16 15 13 8-4zm241-6 18-21-14 5-13 4-17-15-18-15v12c0 12 18 51 23 51 1 0 11-10 21-21zm-614 355v-15l10 6 10 6-5 10c-9 14-15 11-15-7zm863-7 7-18-17 3-17 3-3-20-3-20 6 13c7 14 34 16 34 2 0-5 5-10 11-10h10l-6 10-6 10 33 1 33 2-30 4-30 4-14 17-14 17 6-18zm45-4c7-3 16-2 19 1 4 3-2 6-13 5l-19-1 13-5zm127-11c2-12 6-26 9-31l6-9-27-11-28-11 28 4 27 3 6-8 5-9h-51v-29l16 6 17 6 14-19 15-19-6 22-7 22 18 10 18 10-12 1h-12l5 15 6 15h-11c-6 0-11 5-11 10v10l19-12c11-7 19-14 19-17 0-4 0-13 1-21l2-15 14 25 14 25 1-14c0-8 2-12 5-9s3 13-1 22l-6 17-19-6-19-6v21h-18c-10 0-23 5-30 12l-12 12 5-22zm116-28 1-19 5 13c3 7 2 16-1 19-3 4-6-2-5-13zm64-5c-4-6-5-12-2-15 2-3 7 2 10 11 7 17 1 20-8 4zm-51-21c-7-23 0-33 15-23l11 6-5 10-6 9h10c6 0 11 4 11 8 0 5-7 9-15 9h-15l-6-19zm77 10c-1-10-6-18-11-18h-10l11-18 12-19h57l-16 18-15 17 13 5 13 5-22 1-21 1-5 13-5 12-1-17zm19-28c0-5-5-10-11-10h-10l6 10c3 6 8 10 11 10 2 0 4-4 4-10zm-880 5c0-8 4-15 10-15h9l-5-15-6-15h23l-6-10-6-10h29l-5 21-6 21 14 9 14 9h-35v10c0 6-7 10-15 10h-15v-15zm570-5-11-20h11c5 0 10 5 10 10 0 6 7 10 16 10h15l-6 10c-10 16-23 12-35-10zm350 5c0-8 2-15 4-15s6 7 10 15l5 15h-9c-6 0-10-7-10-15zm36-17 5-8 10 5c13 9 11 12-6 12h-14l5-9zm-1071-18-6-10h10c6 0 11 5 11 10 0 6-2 10-4 10-3 0-8-4-11-10zm235 0c0-5 5-10 10-10 6 0 10 5 10 10 0 6-4 10-10 10-5 0-10-4-10-10zm872 4c9-3 19-13 22-22l5-17-2 20-2 20-20 2-20 2 17-5zm-1042-19v-16l10 6 10 6v-15c0-8 4-17 9-21l10-5-3 27-3 28-17 3-16 3v-16zm-315-15-6-10h10c6 0 11 5 11 10 0 6-2 10-4 10-3 0-8-4-11-10zm485-27c0-7-5-13-12-13-6 0-9-3-6-6 8-7 48 14 48 25 0 4-7 8-15 8h-15v-14zm886 2 6-15 9 6c14 8 10 24-6 24h-14l5-15zm834-4c0-4 14-23 30-41l30-34v20c-1 23-19 48-42 57l-18 6v-8zm-810-20c0-6 4-13 10-16l10-6-6 15c-7 18-14 21-14 7zm-230-21c0-5 5-10 10-10 6 0 10 5 10 10 0 6-4 10-10 10-5 0-10-4-10-10zm-653-30c3-11 7-20 9-20s4 9 4 20-4 20-9 20h-9l5-20zm53 11c0-5 5-11 11-13l12-4-17-17-17-17 28 1c15 0 23 3 17 5l-11 5 5 24 4 25h-16c-9 0-16-4-16-9zm40-2v-10l10 6c6 3 10 8 10 11 0 2-4 4-10 4-5 0-10-5-10-11zm801-5 1-19 5 13c3 7 2 16-1 19-3 4-6-2-5-13zm-790-30 1-19 5 13c3 7 2 16-1 19-3 4-6-2-5-13zm790-13-13-8 10-7 10-6 6 15c6 17 6 18-13 6zm459-20c0-7 6-14 14-17l15-6 18 11 18 10-17 1c-9 0-23 3-32 6l-16 6v-11zm188-58c7-3 16-2 19 1 4 3-2 6-13 5l-19-1 13-5zm117-28c50-13 101-24 115-24h25l-31 13c-18 8-35 19-38 25-4 6-16 11-27 11h-19v-25l-8 10-7 10-50 2-50 2 90-24zm217-11-13-14-32-1-32-1 35-8 35-9 23 6 22 5v13c0 7-6 15-13 18l-12 4-13-13zm49-64 11-30 9 5 8 6 28-32c15-18 36-41 46-51 9-10 17-20 17-23 0-5 50-55 55-55 3 0 5 7 5 15v15h35l-15-10-15-10h26l-5-9-6-8 22-19 21-19-6 18-6 17h19v-59l13-8c8-4 19-17 24-27l11-20 21-1 22-2-5 13-5 12 34-14c19-8 41-14 50-14h15v38l-12 5-13 5 13 1 12 1v88l-16 6c-9 3-20 3-25 0l-10-6-14 12c-8 7-15 9-15 5s-6-3-13 3-30 12-50 14c-20 1-37 5-37 10 0 4-17 12-37 17l-38 11-3-10-4-10-30 27c-17 16-52 49-77 76-25 26-51 47-58 47h-12l10-30zm274-200 6-10h-10c-6 0-11 5-11 10 0 6 2 10 4 10 3 0 8-4 11-10zm140 0 6-10h-32l6 10c3 6 8 10 10 10s7-4 10-10zm-72-67c-7-2-19-2-25 0l-13 5h50l-12-5zM696 2191c5-4 30-22 56-38l46-31 10 10 11 11-6-21-5-22 20-7c12-5 20-11 19-14s7-18 18-32l19-26 15 12 14 12-12-22-12-23h21v-41l13 7 12 7-11-12-11-12 11-34 10-33 31-5 30-4 23 22 23 23-13 5-13 5 24 1 24 1 18 22 19 21v-31l-41-36-42-36h13c8 0 23 8 34 18l21 17-13-16-13-17 48-7 48-7 42-24 42-24 14 20c7 11 16 17 19 14s9 8 13 23c8 29 9 54 7 141l-2 52-22-3c-13-2-17-2-10 0l12 4v40l-26 24c-14 13-47 35-73 47l-46 23-219 2-218 1 8-7zm184-32c-7-11-14-18-17-15-8 8 5 36 17 36h11l-11-21zm205-9c-3-5-12-10-18-10h-12l15 10c19 12 23 12 15 0zm8-49-17-3 25-14 24-13-16-1h-17l-6-15-5-15h-31v-25l-33-2-32-2 14 8 13 9-11 6c-6 4-11 12-11 17v10l16-15c20-21 28-20 20 0l-6 17 13-11 14-12 6 7c4 3 7 14 7 23s8 26 17 37l18 22 7-12 7-12-16-4zm122 6-15-24 7-6 6-7h-13c-7 0-11-3-7-6 6-6-36-78-60-102l-13-13v18c0 10 7 29 16 41 8 12 12 22 7 22h-8l10 8c6 4 23 26 39 50 16 23 33 42 38 42h8l-15-23zm-263-23-9-17-8 13-8 12 14 9c18 11 23 4 11-17zm95 11c0-8-4-15-9-15-4 0-8 7-8 15s4 15 8 15c5 0 9-7 9-15zm-89-95c-7-10-14-18-15-16-6 6 9 36 18 36h9l-12-20zm22-10c0-5-5-10-11-10h-10l6 10c3 6 8 10 11 10 2 0 4-4 4-10zm179-47c-6-10-26-29-43-42l-31-25 40 42c42 45 52 52 34 25zm1659 230c7-3 16-2 19 1 4 3-2 6-13 5l-19-1 13-5zm47-24c4-5 10-7 15-4s11 1 15-5c3-5 17-10 31-10h24v10c0 6-3 10-7 11-5 1-25 3-46 4l-37 4 5-10zm110-19c3-5 10-10 16-10 5 0 9 5 9 10 0 6-7 10-16 10h-15l6-10zm-204-167c7-12 15-20 18-17 3 2-3 12-13 22l-18 17 13-22zm-2451-80c0-12-4-25-10-28-12-7-13-41-2-48 4-2 1-2-5-1-14 4-14 3-18-34l-2-23 13 5 13 5-6-16-6-15 13-8c7-5 19-6 26-3l13 5-2 79-2 78-13 13-12 12v-21zm2654-32 6-9h-40c-22 0-44-3-50-7l-9-6 6-17c7-22 49-62 63-62h11l-6-10-6-10h22l-2 13c-1 6-1 18 0 26l1 15 15-20 15-19-2 58-2 57h-27l5-9zm-2-36c11-15 10-25-3-25h-10l7 12 7 11-14-5-14-5-12 13-13 13 23-2c12 0 25-6 29-12zm-2018 27 6-10-12-5-13-4 6-7 6-6 12 14 12 14-12 8-12 7 7-11zm39-5 5-14-29-34-29-34v-135h65l25 20c14 11 31 20 38 20s20 7 28 15l15 14 16-6 16-6-7 11-7 12h32l-5 9-6 9 32 31c17 17 36 31 41 31h10l-18 20-18 20-50 15-51 15H988l5-13zm913-79 7-11-16 6-17 6v-36h18c9 0 20 5 24 11l8 11v-25h39l18-30c9-16 20-30 24-30s15-3 24-6l16-6-2 8c-1 5-1 13 0 18l1 9 20-18c20-18 27-45 12-45-4 0-13 5-20 12l-12 12v-11c0-6 18-26 41-43l40-33-5-13-5-14h34l-13-9c-8-4-13-11-13-15 1-3 1-13 1-21v-15h-31l10-19 10-18-6-7-6-6h35l-12-15-13-16 13-12 13-12-6 18-6 17h9c11 0 12-2 14-47 3-39-1-41-15-10l-10 22 6-25c3-14 7-78 10-142 2-64 7-127 11-140l8-23 7 35 8 35-10 3c-15 6-10 22 6 22 8 0 15 4 15 8 0 12 43 12 57 0l13-11-1 123-1 122-23-4-23-5-5 19-5 18h9c5 0 9-4 9-10v-10h40v29l-17 4-18 5 18 1 17 1v98l-22 42c-13 24-40 62-61 86l-39 44h-60l5 13 5 12-50 25-49 24-19-12-19-12-16 6c-8 3-15 10-15 15s-5 9-11 9h-10l7-12zm232-168c12-11 26-20 32-20 5 0 10-4 10-10v-10l-27 11c-32 12-53 28-53 40 0 15 15 10 38-11zm52-94v-14l-20-5c-25-6-26 1-2 19 22 17 22 17 22 0zm-23-62c-3-3-12-4-19-1l-13 5 19 1c11 1 17-2 13-5zm50-20c-3-3-12-4-19-1l-13 5 19 1c11 1 17-2 13-5zm13-94c0-5-2-10-4-10-3 0-8 5-11 10l-6 10h10c6 0 11-4 11-10zm-344 375c-9-26-7-32 5-12 6 10 9 21 6 23-2 3-7-2-11-11zm59 5-6-10h10c5 0 13 5 16 10l6 10h-10c-5 0-13-4-16-10zm-1620-10c3-5 8-10 11-10 2 0 4 5 4 10 0 6-5 10-11 10h-10l6-10zm1585-9c0-5 5-13 10-16l10-6v10c0 5-4 13-10 16l-10 6v-10zm-1590-19c0-6 6-13 13-16l12-5-15 2-15 2-23-23c-23-23-29-42-13-42 5 0 12-7 15-16l6-15-9 6-10 5-6-10-6-10-11 6-11 7 7-11 6-11-10-6-10-6v10c0 6-5 11-12 11s-23 12-36 28l-24 27 5-16 6-17-22-20c-12-10-31-25-42-31l-20-12 35 7 35 7-13-15-12-15 27 5 28 5-10-11c-5-5-19-12-30-15l-20-5 29-1 30-1-20-15c-10-8-26-15-34-15h-15l-12 20-13 19 18-5 17-6-15 11c-8 6-25 11-38 11H59l-20-19-21-19 6-11 7-11-16 6-16 7 2-44c1-24 6-52 11-61l8-16-13-5-12-5 13-1 13-1-8-12c-4-7-9-23-11-35l-3-23h23l-12-15-12-15h57l-15-10-15-10h56l-6 10-6 10h50l-6 17-6 16 17-6 18-7-6 15-6 16 13-2c6-1 24-1 39 0l27 1-5 25-4 24 14-5 13-5 14 14c8 8 21 17 29 20l15 7-28-4-27-3-6 8-5 9h81l-12 20c-7 11-17 20-21 20h-9l6-15 5-15h-27l5 20 5 20h17c9 0 22 5 29 12l12 12v-24h41l-3 137-3 136-12 5-13 4v-10zm-90-141c0-4-11-7-25-7s-25 3-25 7c0 3 11 7 25 7s25-4 25-7zm-57-258c-13-2-35-2-50 0l-28 4h100l-22-4zm62 387 6-10 10 5c14 9 11 15-7 15h-15l6-10zm2045-400v-240h21l-7-12c-4-7 6 1 22 18s50 42 74 55l45 23 64 2 63 1 44-24 44-25 35-41c20-23 38-52 41-64 4-13 9-23 13-23h7l-2-52c-2-29-9-72-15-95l-12-43-43-44-43-44 7-8 7-7-16 6-17 5-10-10-11-11-51-4-50-4-62 16-61 15-14 20c-20 28-28 25-31-10-1-17-8-48-15-68l-13-37 20 1c12 1 28 4 37 8 18 8 58 4 76-7 7-4 46-10 88-12 42-3 81-8 87-11l11-7-7 12-8 12 6 24 6 24 15-5 15-6v-30l13 5c8 3 20 1 28-3l13-9-6-7c-4-3-22-10-40-15l-33-8 35 4c41 4 111 22 93 24l-13 1v35l10-15 10-15 10 15 10 15v-26l10 6 10 6-5 10-6 9h9c21 0 20-14-3-45-14-17-25-35-25-39s-23-46-51-94c-29-48-60-112-70-141-11-30-26-65-34-78l-15-23h9c6 0 15 8 20 18l11 17 10-15 10-15v10c0 6-6 17-12 24l-13 13 22-6 21-7 8 12 7 12-11-7-12-7v13c0 7 7 22 15 32 8 11 15 26 15 34 0 17 107 234 153 309l32 52 13 1h12v-15c0-8-5-15-11-15h-10l6-10 6-10h-10c-6 0-11-6-11-14s-6-16-12-19c-7-2 2-4 19-5 38-1 53-8 52-25l-1-12-5 13c-7 18-20 15-26-8l-5-20h-53l-15-14-14-15 9-5 9-6 14 13 14 14 30-4 31-5 14 15 15 14 13-14c17-18 28-8 12 11-7 8-11 20-10 28 1 7 1 21 0 31l-1 18-10-6-9-6 5-17 6-17-11 17-11 16 6 15 5 15h49v-9c0-5-5-9-11-9h-11l13-16 13-16-10-6c-13-10-14-26 0-38l12-11v75l1 75-17-20-16-20v67l10-10c5-5 14-10 18-10h8v102l-15-12c-24-20-27-6-5 18l20 21-2 139-2 139-17-4-18-5 6-14c3-8 9-14 14-14s9-5 9-11v-11l-13 11-13 11-12-12-12-12v11c0 6 6 14 13 16l12 5-35 1c-20 1-41 6-48 11-6 6-10 7-7 4 2-4-3-13-11-21l-15-15 7-7 7-6 4 13c3 6 9 12 15 12h10l-6-16-6-15 9 6 10 5 6-10 6-10h-32l6-10 6-10h-10c-6 0-10-3-10-7 3-20-2-31-18-38l-18-6 13 12c6 7 12 19 12 26v13h-90v13c0 6-13 22-28 34-45 36-108 97-92 89 8-4 4 1-10 11-38 28-125 115-142 143-8 14-43 55-78 93-34 37-71 78-82 92s-28 30-39 35l-19 11v-241zm674-326 6-15-10 6c-6 3-10 10-10 16 0 14 7 11 14-7zm36-84c0-5-5-10-11-10h-10l6 10c3 6 8 10 11 10 2 0 4-4 4-10zm-87-107c-7-2-19-2-25 0l-13 5h50l-12-5zm47-33c0-5-4-10-10-10-5 0-10 5-10 10 0 6 5 10 10 10 6 0 10-4 10-10zm-20-20c0-9-31-23-37-16-3 3 1 11 8 19 14 15 29 13 29-3zm-439-88c-7-2-18 1-23 6l-11 11 24-6 23-7-13-4zm179 8v-10h-35l15 10c19 12 20 12 20 0zm30-30v-9l-15 5c-8 4-15 8-15 10s7 4 15 4 15-4 15-10zM320 1289c-14-11-38-30-53-42-28-21-53-43-167-144-31-27-66-56-80-66l-24-17 7-6 6-7 52 47c28 25 55 46 60 46 17 0 9-15-20-35-48-34-101-84-101-95v-11l33 22c17 12 55 42 82 66 28 24 61 53 75 64s36 29 50 40 44 38 68 60l42 40v30c0 34 2 34-30 8zm-28-51-12-12v10c0 14 12 26 19 19 2-3-1-11-7-17zm-264-75c12-2 32-2 45 0l22 4H5l23-4zm-24-24-7-11 14-9c8-5 19-9 24-9 6 1 2 5-8 11l-17 10 5 10c4 5 4 9 1 9s-8-5-12-11zm2192-33c3-9 11-16 16-16h10l-4 12c-2 6-10 14-16 16l-12 4 6-16zm749-26c3-5 8-10 11-10 2 0 4 5 4 10 0 6-5 10-11 10h-10l6-10zm-37-27c6-2 18-2 25 0l12 5h-50l13-5zm-70-70c6-2 18-2 25 0l12 5h-50l13-5zM1439 703c-1-5-2-22-3-40l-2-32 8 5c4 3 8 0 8-5 0-6-4-11-10-11-5 0-10-7-10-15v-15h25l-14-9-14-9-2-23c-1-13-3-30-4-36l-1-13h-20c-11 0-20 4-20 8v9l-92-4-92-3-10-10-9-9 12-15 12-14 111-1c62-1 113-3 114-4s4-60 8-132c3-72 9-174 12-227l7-98h57l1 38c1 20 0 102-1 182-2 80-4 165-4 190l-1 45 36 3 37 3 17 20c10 10 23 19 29 19h11l-13-9-14-8 37-7 38-7 10 10 11 11h-35l6 10 6 9 14-6 15-5v26l12-12c19-19 34-14 47 15l12 26-13 8-13 9h50l-15 10-15 10h18c9 0 17 4 17 10v9l-45-2c-44-2-55-9-35-22 6-3 10-11 10-17v-10l-31 6-31 6-30-30-30-30-66 6-67 7-7 10-6 10 9 26 10 25-6 49c-3 27-8 53-11 58-6 11-34 12-35 2zm306-183 6-10h-10c-6 0-11 5-11 10 0 6 2 10 4 10 3 0 8-4 11-10zm-45 67v-17h35l-10 8c-5 4-13 11-17 16l-8 9v-16zM2 560v-25l5 13c2 6 2 18 0 25l-5 12v-25zm688 9v-10l11 7 11 7 7-11 6-10 13 14 13 14h-61v-11zM36 527l-6-22 28-24 27-24 3 22c5 30-3 48-26 60l-20 11-6-23zm2834 12v-10l10 6c6 3 10 8 10 11 0 2-4 4-10 4-5 0-10-5-10-11zM855 490l-6-10-47-1-47-1 34-10 33-9 17 7c19 9 58 13 131 13h55l9-9c6-6 16-10 23-10h13v14c0 20-18 24-118 25l-91 1-6-10zm248 3c-7-2-13-9-13-14 0-6 6-9 13-8 6 1 20-1 30-6 22-9 29-3 21 19l-6 16-17-1c-9 0-22-3-28-6zm-862-18-114-10 36-13 37-13 243 5c133 4 257 9 274 12l33 6-5 9-6 8-31-6-31-6 6 10 6 10-167-1c-92-1-218-5-281-11zm2549-10c7-8 17-15 22-15h9l-15 15c-8 8-18 15-22 15-3 0-1-7 6-15zm-1674-80-5-15h8c5 0 11 7 15 15l5 15h-8c-5 0-11-7-15-15zm14-22-32-38 6 20 6 20-25-29-26-28 7-7 7-6 4 13c3 6 9 12 14 12h10l-6-10-6-10h10c6 0 11 5 11 11s7 17 15 25l15 15 10-6 10-6-7 18-7 18 17-14 17-13v10c0 6-5 14-10 17l-10 6 5 10c13 21-4 7-35-28zm74 4c-12-12-32-41-44-64-22-41-40-55-40-33 0 6-5 10-11 10h-10l6-10 6-10h-15c-9 0-16 5-16 10 0 6-5 10-12 10h-11l6-7 7-6-17-19-16-18h23l-3-12-2-13 18 3 17 3 6-30 6-31 9 5 8 5-6-37c-6-42-20-64-37-62-6 1-26 1-45 0l-34-1 15-17c9-10 14-23 11-29l-4-12 213-1 213-1-12 7c-6 5-15 21-19 37-3 15-17 47-29 70-12 22-25 55-29 71l-7 30-26 27c-14 15-29 25-33 23-5-3-11 2-14 11l-6 15 10-6 10-6v72l-14 15c-17 16-30 19-21 4l6-10h-21v-35l-10 15-10 15 6 18c7 22 4 21-22-6zm41-127 6-10h-10c-6 0-11 5-11 10 0 6 2 10 4 10 3 0 8-4 11-10zm-25-15 12-15h-10c-5 0-12 7-16 15-3 8-4 15-2 15s9-7 16-15zm418 148c6-2 18-2 25 0l12 5h-50l13-5zm1162-3c0-5 5-10 11-10h10l-6 10c-3 6-8 10-11 10-2 0-4-4-4-10zm39-1-14-9h10c5 0-1-7-13-16l-22-15 5-9 5-8-16-6-15-6 6-9 6-10 13 5 13 5 1-31 1-30h-20l6-10 6-10h-10c-6 0-11-5-11-11v-11l15 6 15 5v-21l-25 4-24 5 5-8c3-5 16-9 30-9h24v9c0 5 11 12 25 15l24 6-5 14-5 14 23 1c13 0 42 1 66 1l42 1v89h-9c-5 0-11-7-13-16l-3-15-22 20c-12 12-26 21-31 21s-15 7-22 16c-8 8-21 19-30 24l-16 9-15-10zm5-54-6-15-9 6-9 5 5 10c4 5 10 9 15 9h9l-5-15zm2-62c7-10 14-21 14-25v-7l-15 6c-9 3-13 8-11 11 3 3 1 11-5 19-6 7-8 13-4 13s14-8 21-17zm109 102v-25h16c18 0 29 18 22 38-3 6-12 12-21 12h-17v-25zm-224-44-14-9 16-22 15-21 7 10 6 11h-7c-3 0 0 8 7 18l14 17-19-15-20-15 7 18c7 20 7 20-12 8zm34-51-6-10h32l-6 10c-3 6-8 10-10 10s-7-4-10-10zm-55-15-12-15h8c5 0 15 4 23 9l13 9-10 6-10 6-12-15zm30-15-15-10h20l-15-10-15-9 18-18 17-17v12c0 7-6 12-12 12h-13l29 25 29 25h-14c-8 0-21-5-29-10zm-46-34 6-26h-21l6 10 6 10h-10c-6 0-11-7-11-15v-15h40v49l-11 7-12 7 7-27zm-548-7c3-5 12-9 21-9h16l-7 7c-3 4-13 8-21 9l-15 2 6-9zm-36-29-15-10h17c9 0 20 5 23 10l6 10h-8c-4 0-15-5-23-10zm490-25c0-8-9-24-19-34l-20-20-23 6-23 6 7-8 7-8-21-31c-12-17-27-34-33-39l-10-7 132 1 133 1-6 9c-3 5-15 10-27 10l-22 1 55 13c59 14 54 17-25 17l-50-1 30 9 30 8-32 1-32 1 5 14 5 13-16 7-16 6 6-10 6-10h-31l-1 13c-1 6-1 20 0 30 1 9 0 17-3 17s-6-7-6-15zm60-115V10h-35l15 10c19 12 20 12 20 0zm-14 122-7-12 15-6 16-6 1-22 1-21 5 18c2 9 9 17 14 17s9 7 9 16v16l-20-5-19-5-4 11-3 11-8-12zm-536-33V99l10 6c6 3 10 8 10 11 0 2-4 4-10 4-5 0-10-5-10-11zm235-40c-4-6-5-12-2-15 2-3 7 2 10 11 7 17 1 20-8 4zm-195-14V39l-10 6-10 6V41c0-15 15-14 29 3l12 14-11 7-10 6V55zm673-52c9-2 25-2 35 0l17 5h-70l18-5z"/></g></g></svg>